<svg width="894" height="120" viewBox="0 0 894 120" fill="none" xmlns="http://www.w3.org/2000/svg">
<rect x="0.5" y="0.5" width="893" height="119" rx="9.5" fill="white" stroke="#2DCC8A"/>
<path d="M234.689 49.1818V71H231.397V49.1818H234.689ZM257.093 49.1818V71H254.067L242.977 54.9986H242.775V71H239.483V49.1818H242.53L253.631 65.2045H253.833V49.1818H257.093ZM265.187 49.1818V71H261.895V49.1818H265.187ZM288.102 56.277H284.779C284.651 55.5668 284.413 54.9418 284.065 54.402C283.717 53.8622 283.291 53.4041 282.786 53.0277C282.282 52.6513 281.718 52.3672 281.093 52.1754C280.475 51.9837 279.818 51.8878 279.122 51.8878C277.865 51.8878 276.739 52.2038 275.744 52.8359C274.757 53.468 273.976 54.3949 273.401 55.6165C272.833 56.8381 272.548 58.3295 272.548 60.0909C272.548 61.8665 272.833 63.3651 273.401 64.5866C273.976 65.8082 274.761 66.7315 275.755 67.3565C276.749 67.9815 277.868 68.294 279.111 68.294C279.8 68.294 280.453 68.2017 281.071 68.017C281.696 67.8253 282.261 67.5447 282.765 67.1754C283.269 66.8061 283.695 66.3551 284.044 65.8224C284.399 65.2827 284.644 64.6648 284.779 63.9688L288.102 63.9794C287.925 65.0518 287.58 66.0391 287.069 66.9411C286.565 67.8359 285.915 68.6101 285.119 69.2635C284.331 69.9098 283.429 70.4105 282.414 70.7656C281.398 71.1207 280.29 71.2983 279.09 71.2983C277.2 71.2983 275.517 70.8509 274.04 69.956C272.563 69.054 271.398 67.7649 270.546 66.0888C269.7 64.4126 269.278 62.4134 269.278 60.0909C269.278 57.7614 269.704 55.7621 270.556 54.093C271.409 52.4169 272.573 51.1314 274.051 50.2365C275.528 49.3345 277.208 48.8835 279.09 48.8835C280.247 48.8835 281.327 49.0504 282.328 49.3842C283.337 49.7109 284.242 50.1939 285.045 50.8331C285.847 51.4652 286.512 52.2393 287.037 53.1555C287.563 54.0646 287.918 55.1051 288.102 56.277ZM295.333 49.1818V71H292.042V49.1818H295.333ZM301.971 71H298.476L306.328 49.1818H310.131L317.983 71H314.488L308.32 53.1449H308.15L301.971 71ZM302.556 62.456H313.892V65.2259H302.556V62.456ZM321.133 71V49.1818H328.91C330.601 49.1818 332.003 49.473 333.118 50.0554C334.241 50.6378 335.079 51.4439 335.633 52.4737C336.187 53.4964 336.464 54.679 336.464 56.0213C336.464 57.3565 336.183 58.532 335.622 59.5476C335.068 60.5561 334.23 61.3409 333.108 61.902C331.993 62.4631 330.59 62.7436 328.9 62.7436H323.008V59.9098H328.601C329.667 59.9098 330.533 59.7571 331.201 59.4517C331.876 59.1463 332.369 58.7024 332.682 58.12C332.994 57.5376 333.15 56.8381 333.15 56.0213C333.15 55.1974 332.991 54.4837 332.671 53.88C332.358 53.2763 331.865 52.8146 331.19 52.495C330.523 52.1683 329.645 52.005 328.559 52.005H324.425V71H321.133ZM331.904 61.1562L337.295 71H333.545L328.26 61.1562H331.904ZM360.309 54.9134C360.195 53.9048 359.726 53.1236 358.902 52.5696C358.078 52.0085 357.042 51.728 355.792 51.728C354.897 51.728 354.123 51.87 353.469 52.1541C352.816 52.4311 352.308 52.8146 351.946 53.3047C351.591 53.7876 351.413 54.3381 351.413 54.956C351.413 55.4744 351.534 55.9219 351.775 56.2983C352.024 56.6747 352.347 56.9908 352.745 57.2464C353.15 57.495 353.583 57.7045 354.044 57.875C354.506 58.0384 354.95 58.1733 355.376 58.2798L357.507 58.8338C358.203 59.0043 358.917 59.2351 359.648 59.5263C360.38 59.8175 361.058 60.201 361.683 60.6768C362.308 61.1527 362.812 61.7422 363.196 62.4453C363.586 63.1484 363.782 63.9901 363.782 64.9702C363.782 66.206 363.462 67.3033 362.823 68.2621C362.191 69.2209 361.271 69.9773 360.064 70.5312C358.863 71.0852 357.411 71.3622 355.706 71.3622C354.073 71.3622 352.659 71.103 351.466 70.5845C350.273 70.0661 349.339 69.331 348.664 68.3793C347.99 67.4205 347.617 66.2841 347.546 64.9702H350.848C350.912 65.7585 351.168 66.4155 351.615 66.9411C352.07 67.4595 352.649 67.8466 353.352 68.1023C354.062 68.3509 354.84 68.4751 355.685 68.4751C356.615 68.4751 357.443 68.3295 358.167 68.0384C358.899 67.7401 359.474 67.3281 359.893 66.8026C360.312 66.2699 360.522 65.6484 360.522 64.9382C360.522 64.2919 360.337 63.7628 359.968 63.3509C359.605 62.9389 359.112 62.598 358.487 62.3281C357.869 62.0582 357.169 61.8203 356.388 61.6143L353.81 60.9112C352.063 60.4354 350.678 59.7358 349.655 58.8125C348.64 57.8892 348.132 56.6676 348.132 55.1477C348.132 53.8906 348.473 52.7933 349.154 51.8558C349.836 50.9183 350.76 50.1903 351.924 49.6719C353.089 49.1463 354.403 48.8835 355.866 48.8835C357.343 48.8835 358.647 49.1428 359.776 49.6612C360.912 50.1797 361.807 50.8935 362.461 51.8026C363.114 52.7045 363.455 53.7415 363.483 54.9134H360.309ZM367.715 71V49.1818H381.394V52.0156H371.007V58.6634H380.681V61.4865H371.007V68.1662H381.522V71H367.715ZM397.691 54.9134C397.578 53.9048 397.109 53.1236 396.285 52.5696C395.461 52.0085 394.424 51.728 393.174 51.728C392.279 51.728 391.505 51.87 390.852 52.1541C390.199 52.4311 389.691 52.8146 389.328 53.3047C388.973 53.7876 388.796 54.3381 388.796 54.956C388.796 55.4744 388.917 55.9219 389.158 56.2983C389.407 56.6747 389.73 56.9908 390.127 57.2464C390.532 57.495 390.966 57.7045 391.427 57.875C391.889 58.0384 392.333 58.1733 392.759 58.2798L394.89 58.8338C395.586 59.0043 396.299 59.2351 397.031 59.5263C397.762 59.8175 398.441 60.201 399.066 60.6768C399.691 61.1527 400.195 61.7422 400.578 62.4453C400.969 63.1484 401.164 63.9901 401.164 64.9702C401.164 66.206 400.845 67.3033 400.206 68.2621C399.574 69.2209 398.654 69.9773 397.446 70.5312C396.246 71.0852 394.794 71.3622 393.089 71.3622C391.456 71.3622 390.042 71.103 388.849 70.5845C387.656 70.0661 386.722 69.331 386.047 68.3793C385.373 67.4205 385 66.2841 384.929 64.9702H388.231C388.295 65.7585 388.551 66.4155 388.998 66.9411C389.453 67.4595 390.032 67.8466 390.735 68.1023C391.445 68.3509 392.223 68.4751 393.068 68.4751C393.998 68.4751 394.826 68.3295 395.55 68.0384C396.282 67.7401 396.857 67.3281 397.276 66.8026C397.695 66.2699 397.904 65.6484 397.904 64.9382C397.904 64.2919 397.72 63.7628 397.35 63.3509C396.988 62.9389 396.495 62.598 395.87 62.3281C395.252 62.0582 394.552 61.8203 393.771 61.6143L391.193 60.9112C389.446 60.4354 388.061 59.7358 387.038 58.8125C386.022 57.8892 385.515 56.6676 385.515 55.1477C385.515 53.8906 385.855 52.7933 386.537 51.8558C387.219 50.9183 388.142 50.1903 389.307 49.6719C390.472 49.1463 391.786 48.8835 393.249 48.8835C394.726 48.8835 396.029 49.1428 397.159 49.6612C398.295 50.1797 399.19 50.8935 399.843 51.8026C400.497 52.7045 400.838 53.7415 400.866 54.9134H397.691ZM408.39 49.1818V71H405.098V49.1818H408.39ZM432.137 60.0909C432.137 62.4205 431.71 64.4233 430.858 66.0994C430.006 67.7685 428.838 69.054 427.353 69.956C425.876 70.8509 424.196 71.2983 422.314 71.2983C420.425 71.2983 418.738 70.8509 417.254 69.956C415.776 69.054 414.612 67.7649 413.759 66.0888C412.907 64.4126 412.481 62.4134 412.481 60.0909C412.481 57.7614 412.907 55.7621 413.759 54.093C414.612 52.4169 415.776 51.1314 417.254 50.2365C418.738 49.3345 420.425 48.8835 422.314 48.8835C424.196 48.8835 425.876 49.3345 427.353 50.2365C428.838 51.1314 430.006 52.4169 430.858 54.093C431.71 55.7621 432.137 57.7614 432.137 60.0909ZM428.877 60.0909C428.877 58.3153 428.589 56.8203 428.014 55.6058C427.445 54.3842 426.664 53.4609 425.67 52.8359C424.683 52.2038 423.564 51.8878 422.314 51.8878C421.057 51.8878 419.935 52.2038 418.948 52.8359C417.96 53.4609 417.179 54.3842 416.604 55.6058C416.036 56.8203 415.752 58.3153 415.752 60.0909C415.752 61.8665 416.036 63.3651 416.604 64.5866C417.179 65.8011 417.96 66.7244 418.948 67.3565C419.935 67.9815 421.057 68.294 422.314 68.294C423.564 68.294 424.683 67.9815 425.67 67.3565C426.664 66.7244 427.445 65.8011 428.014 64.5866C428.589 63.3651 428.877 61.8665 428.877 60.0909ZM420.993 46.9979L423.486 42.0866H426.842L423.539 46.9979H420.993ZM453.851 49.1818V71H450.825L439.735 54.9986H439.533V71H436.241V49.1818H439.288L450.388 65.2045H450.591V49.1818H453.851ZM484.714 56.277H481.39C481.262 55.5668 481.024 54.9418 480.676 54.402C480.328 53.8622 479.902 53.4041 479.398 53.0277C478.893 52.6513 478.329 52.3672 477.704 52.1754C477.086 51.9837 476.429 51.8878 475.733 51.8878C474.476 51.8878 473.35 52.2038 472.356 52.8359C471.369 53.468 470.587 54.3949 470.012 55.6165C469.444 56.8381 469.16 58.3295 469.16 60.0909C469.16 61.8665 469.444 63.3651 470.012 64.5866C470.587 65.8082 471.372 66.7315 472.366 67.3565C473.361 67.9815 474.479 68.294 475.722 68.294C476.411 68.294 477.065 68.2017 477.683 68.017C478.308 67.8253 478.872 67.5447 479.376 67.1754C479.881 66.8061 480.307 66.3551 480.655 65.8224C481.01 65.2827 481.255 64.6648 481.39 63.9688L484.714 63.9794C484.536 65.0518 484.192 66.0391 483.68 66.9411C483.176 67.8359 482.526 68.6101 481.731 69.2635C480.942 69.9098 480.04 70.4105 479.025 70.7656C478.009 71.1207 476.901 71.2983 475.701 71.2983C473.812 71.2983 472.129 70.8509 470.651 69.956C469.174 69.054 468.009 67.7649 467.157 66.0888C466.312 64.4126 465.889 62.4134 465.889 60.0909C465.889 57.7614 466.315 55.7621 467.168 54.093C468.02 52.4169 469.185 51.1314 470.662 50.2365C472.139 49.3345 473.819 48.8835 475.701 48.8835C476.859 48.8835 477.938 49.0504 478.94 49.3842C479.948 49.7109 480.854 50.1939 481.656 50.8331C482.459 51.4652 483.123 52.2393 483.648 53.1555C484.174 54.0646 484.529 55.1051 484.714 56.277ZM507.605 60.0909C507.605 62.4205 507.179 64.4233 506.327 66.0994C505.475 67.7685 504.306 69.054 502.822 69.956C501.345 70.8509 499.665 71.2983 497.783 71.2983C495.894 71.2983 494.207 70.8509 492.722 69.956C491.245 69.054 490.08 67.7649 489.228 66.0888C488.376 64.4126 487.95 62.4134 487.95 60.0909C487.95 57.7614 488.376 55.7621 489.228 54.093C490.08 52.4169 491.245 51.1314 492.722 50.2365C494.207 49.3345 495.894 48.8835 497.783 48.8835C499.665 48.8835 501.345 49.3345 502.822 50.2365C504.306 51.1314 505.475 52.4169 506.327 54.093C507.179 55.7621 507.605 57.7614 507.605 60.0909ZM504.345 60.0909C504.345 58.3153 504.058 56.8203 503.482 55.6058C502.914 54.3842 502.133 53.4609 501.139 52.8359C500.151 52.2038 499.033 51.8878 497.783 51.8878C496.526 51.8878 495.404 52.2038 494.416 52.8359C493.429 53.4609 492.648 54.3842 492.073 55.6058C491.504 56.8203 491.22 58.3153 491.22 60.0909C491.22 61.8665 491.504 63.3651 492.073 64.5866C492.648 65.8011 493.429 66.7244 494.416 67.3565C495.404 67.9815 496.526 68.294 497.783 68.294C499.033 68.294 500.151 67.9815 501.139 67.3565C502.133 66.7244 502.914 65.8011 503.482 64.5866C504.058 63.3651 504.345 61.8665 504.345 60.0909ZM529.32 49.1818V71H526.294L515.204 54.9986H515.001V71H511.71V49.1818H514.756L525.857 65.2045H526.06V49.1818H529.32ZM556.827 56.0746C556.621 55.4283 556.344 54.8494 555.996 54.3381C555.655 53.8196 555.246 53.3793 554.771 53.017C554.295 52.6477 553.751 52.3672 553.141 52.1754C552.537 51.9837 551.873 51.8878 551.148 51.8878C549.92 51.8878 548.812 52.2038 547.825 52.8359C546.837 53.468 546.056 54.3949 545.481 55.6165C544.913 56.831 544.629 58.3189 544.629 60.0803C544.629 61.8487 544.916 63.3437 545.491 64.5653C546.067 65.7869 546.855 66.7138 547.857 67.3459C548.858 67.978 549.998 68.294 551.276 68.294C552.462 68.294 553.496 68.0526 554.376 67.5696C555.264 67.0866 555.95 66.4048 556.433 65.5241C556.923 64.6364 557.168 63.5923 557.168 62.392L558.02 62.5518H551.777V59.8352H560.353V62.3175C560.353 64.1499 559.962 65.7408 559.181 67.0902C558.407 68.4325 557.335 69.4695 555.964 70.201C554.6 70.9325 553.038 71.2983 551.276 71.2983C549.302 71.2983 547.569 70.8438 546.077 69.9347C544.593 69.0256 543.435 67.7365 542.604 66.0675C541.773 64.3913 541.358 62.4027 541.358 60.1016C541.358 58.3615 541.599 56.799 542.082 55.4141C542.565 54.0291 543.244 52.8537 544.117 51.8878C544.998 50.9148 546.031 50.1726 547.217 49.6612C548.411 49.1428 549.714 48.8835 551.127 48.8835C552.306 48.8835 553.403 49.0575 554.419 49.4055C555.442 49.7536 556.351 50.2472 557.146 50.8864C557.949 51.5256 558.613 52.2855 559.138 53.1662C559.664 54.0398 560.019 55.0092 560.204 56.0746H556.827ZM583.484 60.0909C583.484 62.4205 583.058 64.4233 582.206 66.0994C581.354 67.7685 580.185 69.054 578.701 69.956C577.224 70.8509 575.544 71.2983 573.662 71.2983C571.773 71.2983 570.086 70.8509 568.601 69.956C567.124 69.054 565.959 67.7649 565.107 66.0888C564.255 64.4126 563.829 62.4134 563.829 60.0909C563.829 57.7614 564.255 55.7621 565.107 54.093C565.959 52.4169 567.124 51.1314 568.601 50.2365C570.086 49.3345 571.773 48.8835 573.662 48.8835C575.544 48.8835 577.224 49.3345 578.701 50.2365C580.185 51.1314 581.354 52.4169 582.206 54.093C583.058 55.7621 583.484 57.7614 583.484 60.0909ZM580.224 60.0909C580.224 58.3153 579.937 56.8203 579.361 55.6058C578.793 54.3842 578.012 53.4609 577.018 52.8359C576.03 52.2038 574.912 51.8878 573.662 51.8878C572.405 51.8878 571.282 52.2038 570.295 52.8359C569.308 53.4609 568.527 54.3842 567.952 55.6058C567.383 56.8203 567.099 58.3153 567.099 60.0909C567.099 61.8665 567.383 63.3651 567.952 64.5866C568.527 65.8011 569.308 66.7244 570.295 67.3565C571.282 67.9815 572.405 68.294 573.662 68.294C574.912 68.294 576.03 67.9815 577.018 67.3565C578.012 66.7244 578.793 65.8011 579.361 64.5866C579.937 63.3651 580.224 61.8665 580.224 60.0909ZM606.541 60.0909C606.541 62.4205 606.115 64.4233 605.262 66.0994C604.41 67.7685 603.242 69.054 601.757 69.956C600.28 70.8509 598.6 71.2983 596.718 71.2983C594.829 71.2983 593.142 70.8509 591.658 69.956C590.181 69.054 589.016 67.7649 588.164 66.0888C587.311 64.4126 586.885 62.4134 586.885 60.0909C586.885 57.7614 587.311 55.7621 588.164 54.093C589.016 52.4169 590.181 51.1314 591.658 50.2365C593.142 49.3345 594.829 48.8835 596.718 48.8835C598.6 48.8835 600.28 49.3345 601.757 50.2365C603.242 51.1314 604.41 52.4169 605.262 54.093C606.115 55.7621 606.541 57.7614 606.541 60.0909ZM603.281 60.0909C603.281 58.3153 602.993 56.8203 602.418 55.6058C601.85 54.3842 601.069 53.4609 600.074 52.8359C599.087 52.2038 597.968 51.8878 596.718 51.8878C595.461 51.8878 594.339 52.2038 593.352 52.8359C592.365 53.4609 591.583 54.3842 591.008 55.6058C590.44 56.8203 590.156 58.3153 590.156 60.0909C590.156 61.8665 590.44 63.3651 591.008 64.5866C591.583 65.8011 592.365 66.7244 593.352 67.3565C594.339 67.9815 595.461 68.294 596.718 68.294C597.968 68.294 599.087 67.9815 600.074 67.3565C601.069 66.7244 601.85 65.8011 602.418 64.5866C602.993 63.3651 603.281 61.8665 603.281 60.0909ZM625.411 56.0746C625.205 55.4283 624.928 54.8494 624.58 54.3381C624.239 53.8196 623.83 53.3793 623.355 53.017C622.879 52.6477 622.335 52.3672 621.725 52.1754C621.121 51.9837 620.457 51.8878 619.732 51.8878C618.504 51.8878 617.396 52.2038 616.409 52.8359C615.421 53.468 614.64 54.3949 614.065 55.6165C613.497 56.831 613.213 58.3189 613.213 60.0803C613.213 61.8487 613.5 63.3437 614.075 64.5653C614.651 65.7869 615.439 66.7138 616.441 67.3459C617.442 67.978 618.582 68.294 619.86 68.294C621.046 68.294 622.08 68.0526 622.96 67.5696C623.848 67.0866 624.534 66.4048 625.017 65.5241C625.507 64.6364 625.752 63.5923 625.752 62.392L626.604 62.5518H620.361V59.8352H628.937V62.3175C628.937 64.1499 628.546 65.7408 627.765 67.0902C626.991 68.4325 625.919 69.4695 624.548 70.201C623.184 70.9325 621.622 71.2983 619.86 71.2983C617.886 71.2983 616.153 70.8438 614.661 69.9347C613.177 69.0256 612.019 67.7365 611.188 66.0675C610.357 64.3913 609.942 62.4027 609.942 60.1016C609.942 58.3615 610.183 56.799 610.666 55.4141C611.149 54.0291 611.828 52.8537 612.701 51.8878C613.582 50.9148 614.615 50.1726 615.801 49.6612C616.994 49.1428 618.298 48.8835 619.711 48.8835C620.89 48.8835 621.987 49.0575 623.003 49.4055C624.026 49.7536 624.935 50.2472 625.73 50.8864C626.533 51.5256 627.197 52.2855 627.722 53.1662C628.248 54.0398 628.603 55.0092 628.788 56.0746H625.411ZM633.116 71V49.1818H636.408V68.1662H646.294V71H633.116ZM650.049 71V49.1818H663.728V52.0156H653.341V58.6634H663.015V61.4865H653.341V68.1662H663.856V71H650.049Z" fill="#91959D"/>
<path d="M109.045 52.8188H106.125V52.6667H73.5V67.3333H93.9867C90.9979 75.8712 82.9667 82 73.5 82C61.4886 82 51.75 72.1495 51.75 60C51.75 47.8505 61.4886 38 73.5 38C79.0444 38 84.0886 40.1157 87.9293 43.5715L98.1826 33.2003C91.7084 27.0972 83.0483 23.3333 73.5 23.3333C53.4809 23.3333 37.25 39.7508 37.25 60C37.25 80.2492 53.4809 96.6667 73.5 96.6667C93.5191 96.6667 109.75 80.2492 109.75 60C109.75 57.5415 109.5 55.1417 109.045 52.8188Z" fill="#FFC107"/>
<path d="M41.4296 42.9335L53.3396 51.7683C56.5622 43.698 64.3668 38 73.5 38C79.0444 38 84.0886 40.1157 87.9293 43.5715L98.1826 33.2003C91.7084 27.0972 83.0482 23.3333 73.5 23.3333C59.5764 23.3333 47.5015 31.2845 41.4296 42.9335Z" fill="#FF3D00"/>
<path d="M73.5 96.6667C82.8633 96.6667 91.3712 93.0422 97.8038 87.148L86.5844 77.545C82.9449 80.3335 78.4209 82 73.5 82C64.0714 82 56.0655 75.9188 53.0495 67.4323L41.2284 76.6448C47.2278 88.5193 59.4114 96.6667 73.5 96.6667Z" fill="#4CAF50"/>
<path d="M109.045 52.8188H106.125V52.6667H73.5V67.3333H93.9867C92.5512 71.4345 89.943 74.971 86.579 77.5468C86.5808 77.545 86.5826 77.545 86.5844 77.5432L97.8038 87.1462C97.0099 87.8758 109.75 78.3333 109.75 60C109.75 57.5415 109.5 55.1417 109.045 52.8188Z" fill="#1976D2"/>
</svg>
