<svg width="75" height="76" viewBox="0 0 75 76" fill="none" xmlns="http://www.w3.org/2000/svg">
<rect y="0.5" width="75" height="75" rx="30" fill="#FFB700"/>
<path d="M38.4607 12.3132C24.8124 12.3132 13.7355 23.3902 13.7355 37.0385C13.7355 50.6869 24.8124 61.7638 38.4607 61.7638C52.1091 61.7638 63.186 50.6869 63.186 37.0385C63.186 23.3902 52.1091 12.3132 38.4607 12.3132ZM38.4607 56.8187C27.5569 56.8187 18.6805 47.9424 18.6805 37.0385C18.6805 26.1347 27.5569 17.2583 38.4607 17.2583C49.3646 17.2583 58.241 26.1347 58.241 37.0385C58.241 47.9424 49.3646 56.8187 38.4607 56.8187ZM40.6613 34.8132C36.2602 33.3545 34.1338 32.4396 34.1338 30.1154C34.1338 27.5935 36.8783 26.6786 38.6091 26.6786C40.2584 26.6786 41.3757 27.3133 42.1109 28.0506C42.9817 28.9238 44.2898 29.575 45.4251 29.0936V29.0936C46.4331 28.6661 46.9472 27.5197 46.355 26.5988C45.5685 25.3758 44.2124 23.918 42.0053 23.1685C41.2325 22.906 40.6366 22.2257 40.6366 21.4095V21.4095C40.6366 20.4824 39.885 19.7308 38.9579 19.7308H38.0332C37.0813 19.7308 36.3096 20.5025 36.3096 21.4544V21.4544C36.3096 22.2664 35.7328 22.9521 34.9683 23.2258C29.8739 25.0498 29.8316 29.9133 29.8316 30.1649C29.8316 35.7775 35.3948 37.36 38.1146 38.349C42.0212 39.7336 43.752 40.9946 43.752 43.3682C43.752 46.1621 41.1558 47.349 38.8564 47.349C36.2756 47.349 34.7521 45.8283 33.8939 44.4285C33.2104 43.3136 31.8566 42.6115 30.6439 43.101V43.101C29.6063 43.5198 29.0297 44.6686 29.507 45.6806C30.931 48.6996 33.2322 50.0856 34.9465 50.7411C35.716 51.0353 36.2849 51.7365 36.2849 52.5603V52.5603C36.2849 53.5466 37.0845 54.3462 38.0709 54.3462H38.9472C39.8666 54.3462 40.6118 53.6009 40.6118 52.6816V52.6816C40.6118 51.8717 41.1975 51.1925 41.9746 50.9644C44.2298 50.3021 48.0789 48.4501 48.0789 43.3187C48.1036 39.8819 46.5954 36.8654 40.6613 34.8132Z" fill="white"/>
</svg>
