<svg width="357" height="154" viewBox="0 0 357 154" fill="none" xmlns="http://www.w3.org/2000/svg">
<path d="M31.1813 91.3896L20.3444 71.6223H11.7434V91.3896H0V36.2343H25.8233C37.3249 36.2343 44.3548 43.7628 44.3548 54.0088C44.3548 63.7717 38.2314 68.9652 32.269 70.3742L44.6771 91.3695H31.1813V91.3896ZM24.0708 46.3394H11.7434V61.5574H24.0708C28.7843 61.5574 32.3496 58.5782 32.3496 53.9484C32.3295 49.3186 28.7843 46.3394 24.0708 46.3394Z" fill="black"/>
<path d="M79.323 35.3284C96.0416 35.3284 108.188 47.225 108.188 63.8522C108.188 80.4793 96.0215 92.3759 79.323 92.3759C62.6849 92.3759 50.5386 80.4793 50.5386 63.8522C50.5386 47.2452 62.705 35.3284 79.323 35.3284ZM79.323 45.7556C69.1508 45.7556 62.6043 53.5256 62.6043 63.8723C62.6043 74.1183 69.1306 81.989 79.323 81.989C89.4952 81.989 96.1222 74.1385 96.1222 63.8723C96.1222 53.5256 89.5153 45.7556 79.323 45.7556Z" fill="black"/>
<path d="M116.487 91.3896V36.2343H145.533C156.048 36.2343 161.426 42.9374 161.426 50.2848C161.426 57.2295 157.115 61.8594 151.918 62.9262C157.8 63.8321 162.513 69.5489 162.513 76.4937C162.513 84.767 156.974 91.3695 146.46 91.3695H116.487V91.3896ZM128.23 58.3971H142.955C146.923 58.3971 149.4 55.8406 149.4 52.2776C149.4 48.8958 146.923 46.2387 142.955 46.2387H128.23V58.3971ZM128.23 81.3852H143.378C147.849 81.3852 150.488 78.8287 150.488 74.8632C150.488 71.3807 148.011 68.4217 143.378 68.4217H128.23V81.3852Z" fill="black"/>
<path d="M171.336 102.38V36.2544H183.079V102.401H171.336V102.38Z" fill="#2DCC8A"/>
<path d="M232.047 91.3896L205.74 54.351V91.3896H193.997V36.2343H206.083L231.644 71.9443V36.2544H243.388V91.4098H232.047V91.3896Z" fill="black"/>
<path d="M85.2652 152.825V113.13L69.7148 152.825H64.5783L49.0279 113.13V152.825H37.2846V97.6701H53.7414L67.1365 132.072L80.5315 97.6701H97.0689V152.825H85.2652Z" fill="black"/>
<path d="M134.172 96.7643C150.891 96.7643 163.037 108.661 163.037 125.288C163.037 141.915 150.871 153.812 134.172 153.812C117.534 153.812 105.388 141.915 105.388 125.288C105.388 108.681 117.534 96.7643 134.172 96.7643ZM134.172 107.191C124 107.191 117.454 114.962 117.454 125.308C117.454 135.554 123.98 143.425 134.172 143.425C144.345 143.425 150.972 135.574 150.972 125.308C150.972 114.962 144.345 107.191 134.172 107.191Z" fill="black"/>
<path d="M209.366 152.825L183.059 115.787V152.825H171.316V97.6701H183.059L208.963 133.38V97.6701H220.706V152.825H209.366Z" fill="#2DCC8A"/>
<path d="M231.624 152.825V97.6701H270.681V107.755H243.388V119.752H270.117V129.837H243.388V142.66H270.681V152.825H231.624Z" fill="black"/>
<path d="M295.256 152.825V130.26L273.985 97.6902H287.38L301.117 119.853L314.694 97.6902H328.089L306.999 130.26V152.825H295.256Z" fill="black"/>
<path d="M277.693 59.9892L277.615 60.2611L277.807 60.4685C278.764 61.498 280.327 62.0973 281.767 61.7502C283.198 61.4052 284.394 60.1249 284.523 58.6198C284.652 57.1173 283.643 55.5815 282.156 55.1882L282.156 55.1882L282.154 55.1875C280.671 54.8041 278.948 55.6991 278.51 57.1991L278.51 57.1991L278.509 57.2002C278.375 57.665 278.239 58.1281 278.102 58.5925L278.102 58.593C277.965 59.0569 277.828 59.5221 277.693 59.9892Z" fill="black" stroke="black"/>
<path d="M260.834 63.6691C260.434 63.911 260.474 64.3171 260.566 64.5546C260.489 64.7384 260.511 64.9449 260.547 65.0607C260.562 65.1152 260.562 65.1706 260.577 65.2252C260.573 65.2461 260.569 65.2671 260.56 65.2814C260.469 65.2999 260.386 65.3318 260.314 65.3839C259.978 65.1381 259.499 65.0519 259.271 65.6932C259.224 65.8132 259.189 65.9257 259.146 66.0524C259.125 66.1019 259.103 66.1515 259.073 66.2153C258.832 66.9472 258.582 67.6934 258.34 68.4253C258.206 68.8265 258.721 69.3399 259.181 69.3095C259.181 69.3372 259.18 69.3649 259.184 69.3993C259.169 69.6284 259.672 70.3776 260.194 70.0812C260.444 70.2413 260.771 70.2177 261.038 69.8097C262.588 67.5372 262.761 65.4181 261.82 63.9439C261.711 63.7627 261.335 63.3668 260.834 63.6691Z" fill="black"/>
<path d="M303.323 36.0192C302.864 35.6805 303.833 35.0039 303.209 34.8844C302.712 34.7847 302.228 34.715 301.719 34.6751C300.751 34.6054 299.783 34.5755 298.815 34.5855C296.815 34.6054 294.829 34.715 292.854 34.9142C288.906 35.3127 285.073 36.1794 281.328 37.2255C280.921 37.335 280.641 37.9129 280.539 38.1818C280.348 38.6799 280.309 39.2677 280.399 39.7857C280.513 40.4532 280.946 41.5092 282.029 41.2402C285.582 40.3636 289.301 39.9053 293.007 39.6363C294.829 39.5068 296.663 39.447 298.497 39.467C299.464 39.4769 300.46 41.1354 301.409 39.8476C301.842 39.8575 302.254 39.5367 302.687 39.5068C303.4 39.4769 302.75 38.2522 303.323 37.9334C304.418 37.3357 304.329 36.7564 303.323 36.0192Z" fill="black"/>
<path d="M319.593 13.5279L307.63 37.9334L306.119 37.9972C306.119 37.9972 316.627 16.5152 316.488 16.3696C316.474 16.3623 311.458 14.9635 311.458 14.9635C311.458 14.9635 305.353 34.3975 303.801 38.8905C303.51 38.6138 288.762 39.9051 285.031 41.0702C283.902 41.4197 273.78 44.3253 269.35 46.7866C264.081 49.714 265.968 50.8686 265.997 50.854C266.091 50.7957 276.017 47.3327 287.895 47.3327C288.128 47.3327 316.772 47.7551 321.859 45.505C323.025 44.9879 324.453 42.0606 324.773 41.2304C326.493 36.8102 323.454 33.1983 323.454 33.1983L330.107 18.6561" fill="#2DCC8A"/>
<path d="M317.268 4.04836C315.628 3.02888 307.474 10.8716 306.476 11.5634C305.638 12.146 286.525 25.4721 282.029 26.8484C281.919 26.8848 271.607 36.5069 270.782 37.9334C269.033 41.3123 258.637 54.1267 265.997 48.4613C275.455 41.172 303.991 34.3707 303.991 34.3707C303.991 34.3707 310.513 13.1072 310.637 12.7941C310.651 12.7795 317.275 14.4107 317.297 14.4107C317.363 14.4835 318.827 5.01687 317.268 4.04836Z" fill="#2DCC8A"/>
<path d="M281.015 48.1565L301.448 47.4138C302.358 47.3628 303.269 47.3264 304.18 47.3118L316.305 46.8749C316.305 46.8749 320.583 46.6419 322.995 44.115C323.68 43.3941 324.816 41.4134 325.028 38.6025C325.144 37.0223 324.999 34.9906 324.999 34.9906C324.999 34.9906 324.86 33.4541 324.649 33.3813C324.489 33.3231 322.055 35.8936 321.137 36.6291C318.783 38.5079 305.543 39.5565 305.543 39.5565C305.543 39.5565 295.29 39.4691 284.141 41.1949C280.513 41.7556 275.149 43.4669 273.197 44.5155C266.5 48.0983 253.85 54.3317 273.401 49.3435C277.255 48.3604 281.015 48.1565 281.015 48.1565Z" stroke="black" stroke-width="5" stroke-miterlimit="10"/>
<path d="M302.111 35.4421C302.111 35.4421 302.927 35.3183 303.058 35.1945C303.299 34.976 309.828 13.9747 309.828 13.9747C309.828 13.9747 310.024 13.2028 310.979 13.2028C312.32 13.2028 316.619 14.5354 316.619 14.5354C316.619 14.5354 317.02 14.6737 317.267 14.3752C317.297 14.3388 317.697 13.4576 317.683 13.3047" stroke="#2DCC8A" stroke-width="5" stroke-miterlimit="10"/>
<path d="M304.399 35.1217L302.417 35.3911C302.417 35.3911 284.987 38.1 275.878 42.0396C268.723 45.1345 263.731 51.1567 263.287 50.9747C261.574 50.2683 271.003 34.3425 283.027 26.6017C291.159 21.3732 300.041 16.669 306.301 11.2367C311.066 7.10047 316.823 2.78951 317.136 3.00797C318.36 3.85997 317.675 15.6131 317.675 15.6131" stroke="black" stroke-width="5" stroke-miterlimit="10"/>
<path d="M302.942 39.7093L310.855 14.2368L317.53 15.8243" stroke="black" stroke-width="5" stroke-miterlimit="10"/>
<path d="M306.315 39.287L319.133 12.7149L331.192 18.3949L323.483 34.8668" stroke="black" stroke-width="5" stroke-miterlimit="10"/>
<path d="M324.999 35.5295C330.58 28.9393 337.452 23.4414 345.103 19.429C346.262 18.8246 347.836 19.1741 348.623 20.2227C354.656 28.2256 355.72 39.673 351.268 48.659C346.816 57.6377 342.944 61.7583 332.917 61.8166C330.265 61.8312 325.145 58.8118 324.999 56.1612" stroke="black" stroke-width="5" stroke-miterlimit="10"/>
<path d="M344.236 19.9168C342.742 21.3368 341.547 22.8369 340.25 24.4972C339.106 26.0046 338.224 27.4028 337.292 29.0121C334.596 33.8401 331.528 39.0613 329.764 44.2024C327.899 49.4454 323.381 53.5379 318.011 54.8924" stroke="black" stroke-width="5" stroke-miterlimit="10"/>
<path d="M264.347 77.5651C277.148 86.0272 288.925 84.3684 289.513 84.4195C291.278 84.573 310.665 82.2054 319.044 64.9669C320.67 59.6471 320.676 52.9188 320.676 52.9261" stroke="black" stroke-width="5" stroke-miterlimit="10"/>
<path d="M269.233 50.7416L268.621 52.4165C266.34 57.8198 262.325 62.473 257.312 65.5314C257.326 68.2767 258.616 70.9929 260.729 72.7479C262.842 74.5029 265.75 75.2675 268.46 74.7869" stroke="black" stroke-width="5" stroke-miterlimit="10"/>
</svg>
