<svg width="283" height="100" viewBox="0 0 283 100" fill="none" xmlns="http://www.w3.org/2000/svg">
<rect width="282.727" height="100" rx="15" fill="#FEE9E8"/>
<rect x="13.6364" y="14.5454" width="70.9091" height="70.9091" rx="15" fill="#FE665A"/>
<path d="M47.0909 40L44.2909 42.8L49.4909 48H29.0909V52H49.4909L44.2909 57.2L47.0909 60L57.0909 50L47.0909 40ZM65.0909 64H49.0909V68H65.0909C67.2909 68 69.0909 66.2 69.0909 64V36C69.0909 33.8 67.2909 32 65.0909 32H49.0909V36H65.0909V64Z" fill="white"/>
<path d="M121.885 47.3622H119.229C119.153 46.9266 119.013 46.5407 118.81 46.2045C118.606 45.8636 118.353 45.5748 118.05 45.3381C117.747 45.1013 117.401 44.9238 117.013 44.8054C116.629 44.6823 116.215 44.6207 115.77 44.6207C114.979 44.6207 114.278 44.8196 113.668 45.2173C113.057 45.6103 112.579 46.188 112.233 46.9503C111.887 47.7079 111.714 48.6335 111.714 49.7273C111.714 50.84 111.887 51.7775 112.233 52.5398C112.583 53.2973 113.062 53.8703 113.668 54.2585C114.278 54.642 114.977 54.8338 115.763 54.8338C116.198 54.8338 116.606 54.777 116.984 54.6634C117.368 54.545 117.711 54.3722 118.014 54.1449C118.322 53.9176 118.58 53.6383 118.788 53.3068C119.001 52.9754 119.148 52.5966 119.229 52.1705L121.885 52.1847C121.786 52.8759 121.57 53.5246 121.239 54.1307C120.912 54.7367 120.483 55.2718 119.953 55.7358C119.423 56.1951 118.803 56.5549 118.092 56.8153C117.382 57.071 116.594 57.1989 115.727 57.1989C114.449 57.1989 113.308 56.9029 112.304 56.3111C111.3 55.7192 110.509 54.8646 109.932 53.7472C109.354 52.6297 109.065 51.2898 109.065 49.7273C109.065 48.16 109.357 46.8201 109.939 45.7074C110.521 44.59 111.314 43.7353 112.318 43.1435C113.322 42.5516 114.458 42.2557 115.727 42.2557C116.537 42.2557 117.29 42.3693 117.986 42.5966C118.682 42.8239 119.302 43.1577 119.847 43.598C120.391 44.0336 120.839 44.5687 121.189 45.2031C121.544 45.8329 121.776 46.5526 121.885 47.3622ZM129.014 57.2131C127.92 57.2131 126.975 56.9858 126.18 56.5312C125.389 56.072 124.781 55.4233 124.355 54.5852C123.929 53.7424 123.716 52.7505 123.716 51.6094C123.716 50.4872 123.929 49.5024 124.355 48.6548C124.786 47.8026 125.387 47.1397 126.159 46.6662C126.931 46.188 127.837 45.9489 128.879 45.9489C129.551 45.9489 130.186 46.0578 130.782 46.2756C131.384 46.4886 131.914 46.8201 132.373 47.2699C132.837 47.7197 133.202 48.2926 133.467 48.9886C133.732 49.6799 133.865 50.5038 133.865 51.4602V52.2486H124.923V50.5156H131.4C131.395 50.0232 131.289 49.5852 131.081 49.2017C130.872 48.8134 130.581 48.508 130.207 48.2855C129.838 48.063 129.407 47.9517 128.914 47.9517C128.389 47.9517 127.927 48.0795 127.529 48.3352C127.132 48.5862 126.822 48.9176 126.599 49.3295C126.381 49.7367 126.27 50.1842 126.265 50.6719V52.1847C126.265 52.8191 126.381 53.3636 126.613 53.8182C126.845 54.268 127.17 54.6136 127.586 54.8551C128.003 55.0919 128.491 55.2102 129.049 55.2102C129.423 55.2102 129.762 55.1581 130.065 55.054C130.368 54.9451 130.631 54.7865 130.853 54.5781C131.076 54.3698 131.244 54.1117 131.358 53.804L133.758 54.0739C133.607 54.7083 133.318 55.2623 132.892 55.7358C132.47 56.2045 131.931 56.5691 131.272 56.8295C130.614 57.0852 129.861 57.2131 129.014 57.2131ZM136.04 57V46.0909H138.533V47.9091H138.646C138.845 47.2794 139.186 46.794 139.669 46.4531C140.157 46.1075 140.713 45.9347 141.338 45.9347C141.48 45.9347 141.639 45.9418 141.814 45.956C141.994 45.9654 142.143 45.982 142.261 46.0057V48.3707C142.152 48.3329 141.98 48.2997 141.743 48.2713C141.511 48.2382 141.286 48.2216 141.068 48.2216C140.599 48.2216 140.178 48.3234 139.804 48.527C139.435 48.7259 139.143 49.0028 138.93 49.358C138.717 49.7131 138.611 50.1226 138.611 50.5866V57H136.04ZM143.969 57V46.0909H146.462V47.9091H146.576C146.775 47.2794 147.116 46.794 147.599 46.4531C148.086 46.1075 148.643 45.9347 149.268 45.9347C149.41 45.9347 149.568 45.9418 149.744 45.956C149.924 45.9654 150.073 45.982 150.191 46.0057V48.3707C150.082 48.3329 149.909 48.2997 149.673 48.2713C149.441 48.2382 149.216 48.2216 148.998 48.2216C148.529 48.2216 148.108 48.3234 147.734 48.527C147.364 48.7259 147.073 49.0028 146.86 49.358C146.647 49.7131 146.54 50.1226 146.54 50.5866V57H143.969ZM154.843 57.2202C154.152 57.2202 153.529 57.0971 152.975 56.8509C152.426 56.5999 151.99 56.2306 151.668 55.7429C151.351 55.2552 151.192 54.6539 151.192 53.9389C151.192 53.3234 151.306 52.8144 151.533 52.4119C151.761 52.0095 152.071 51.6875 152.464 51.446C152.857 51.2045 153.299 51.0223 153.792 50.8991C154.289 50.7713 154.803 50.679 155.333 50.6222C155.972 50.5559 156.491 50.4967 156.888 50.4446C157.286 50.3878 157.575 50.3026 157.755 50.1889C157.94 50.0705 158.032 49.8883 158.032 49.642V49.5994C158.032 49.0644 157.873 48.6501 157.556 48.3565C157.239 48.063 156.782 47.9162 156.185 47.9162C155.556 47.9162 155.056 48.0535 154.687 48.3281C154.322 48.6027 154.076 48.9271 153.948 49.3011L151.548 48.9602C151.737 48.2973 152.049 47.7434 152.485 47.2983C152.921 46.8485 153.453 46.5123 154.083 46.2898C154.713 46.0625 155.409 45.9489 156.171 45.9489C156.697 45.9489 157.22 46.0104 157.741 46.1335C158.262 46.2566 158.737 46.4602 159.168 46.7443C159.599 47.0237 159.945 47.4048 160.205 47.8878C160.47 48.3707 160.603 48.9744 160.603 49.6989V57H158.131V55.5014H158.046C157.89 55.8045 157.67 56.0885 157.386 56.3537C157.106 56.6141 156.754 56.8248 156.327 56.9858C155.906 57.142 155.411 57.2202 154.843 57.2202ZM155.511 55.331C156.027 55.331 156.474 55.2292 156.853 55.0256C157.232 54.8172 157.523 54.5426 157.727 54.2017C157.935 53.8608 158.039 53.4891 158.039 53.0866V51.8011C157.959 51.8674 157.821 51.929 157.627 51.9858C157.438 52.0426 157.225 52.0923 156.988 52.1349C156.751 52.1776 156.517 52.2154 156.285 52.2486C156.053 52.2817 155.852 52.3101 155.681 52.3338C155.298 52.3859 154.954 52.4711 154.651 52.5895C154.348 52.7079 154.109 52.8736 153.934 53.0866C153.759 53.295 153.671 53.5649 153.671 53.8963C153.671 54.3698 153.844 54.7273 154.19 54.9688C154.535 55.2102 154.976 55.331 155.511 55.331ZM163.188 57V46.0909H165.681V47.9091H165.795C165.994 47.2794 166.335 46.794 166.817 46.4531C167.305 46.1075 167.862 45.9347 168.487 45.9347C168.629 45.9347 168.787 45.9418 168.962 45.956C169.142 45.9654 169.291 45.982 169.41 46.0057V48.3707C169.301 48.3329 169.128 48.2997 168.891 48.2713C168.659 48.2382 168.434 48.2216 168.217 48.2216C167.748 48.2216 167.326 48.3234 166.952 48.527C166.583 48.7259 166.292 49.0028 166.079 49.358C165.866 49.7131 165.759 50.1226 165.759 50.5866V57H163.188ZM184.097 46.4531C184.031 45.8329 183.752 45.3499 183.259 45.0043C182.772 44.6586 182.137 44.4858 181.356 44.4858C180.807 44.4858 180.335 44.5687 179.942 44.7344C179.549 44.9001 179.249 45.125 179.04 45.4091C178.832 45.6932 178.726 46.0175 178.721 46.3821C178.721 46.6851 178.79 46.9479 178.927 47.1705C179.069 47.393 179.261 47.5824 179.502 47.7386C179.744 47.8902 180.011 48.018 180.305 48.1222C180.598 48.2263 180.894 48.3139 181.192 48.3849L182.556 48.7259C183.105 48.8537 183.633 49.0265 184.14 49.2443C184.651 49.4621 185.108 49.7367 185.511 50.0682C185.918 50.3996 186.24 50.7997 186.477 51.2685C186.713 51.7372 186.832 52.2865 186.832 52.9162C186.832 53.7685 186.614 54.5189 186.178 55.1676C185.743 55.8116 185.113 56.3158 184.289 56.6804C183.47 57.0402 182.478 57.2202 181.313 57.2202C180.182 57.2202 179.199 57.045 178.366 56.6946C177.537 56.3442 176.888 55.8329 176.42 55.1605C175.956 54.4882 175.705 53.669 175.667 52.7031H178.259C178.297 53.2098 178.453 53.6312 178.728 53.9673C179.003 54.3035 179.36 54.5545 179.8 54.7202C180.246 54.8859 180.743 54.9688 181.292 54.9688C181.865 54.9688 182.367 54.8835 182.798 54.7131C183.233 54.5379 183.574 54.2964 183.82 53.9886C184.067 53.6761 184.192 53.3116 184.197 52.8949C184.192 52.5161 184.081 52.2036 183.863 51.9574C183.645 51.7064 183.34 51.4981 182.947 51.3324C182.558 51.1619 182.104 51.0104 181.583 50.8778L179.928 50.4517C178.73 50.1439 177.783 49.6776 177.087 49.0526C176.396 48.4228 176.05 47.5871 176.05 46.5455C176.05 45.6884 176.282 44.938 176.746 44.294C177.215 43.6501 177.852 43.1506 178.657 42.7955C179.462 42.4356 180.373 42.2557 181.391 42.2557C182.424 42.2557 183.328 42.4356 184.104 42.7955C184.886 43.1506 185.499 43.6454 185.944 44.2798C186.389 44.9096 186.619 45.634 186.633 46.4531H184.097ZM193.897 57.2131C192.803 57.2131 191.858 56.9858 191.063 56.5312C190.272 56.072 189.664 55.4233 189.238 54.5852C188.811 53.7424 188.598 52.7505 188.598 51.6094C188.598 50.4872 188.811 49.5024 189.238 48.6548C189.668 47.8026 190.27 47.1397 191.042 46.6662C191.813 46.188 192.72 45.9489 193.762 45.9489C194.434 45.9489 195.069 46.0578 195.665 46.2756C196.266 46.4886 196.797 46.8201 197.256 47.2699C197.72 47.7197 198.085 48.2926 198.35 48.9886C198.615 49.6799 198.748 50.5038 198.748 51.4602V52.2486H189.806V50.5156H196.283C196.278 50.0232 196.172 49.5852 195.963 49.2017C195.755 48.8134 195.464 48.508 195.09 48.2855C194.721 48.063 194.29 47.9517 193.797 47.9517C193.272 47.9517 192.81 48.0795 192.412 48.3352C192.015 48.5862 191.704 48.9176 191.482 49.3295C191.264 49.7367 191.153 50.1842 191.148 50.6719V52.1847C191.148 52.8191 191.264 53.3636 191.496 53.8182C191.728 54.268 192.052 54.6136 192.469 54.8551C192.886 55.0919 193.373 55.2102 193.932 55.2102C194.306 55.2102 194.645 55.1581 194.948 55.054C195.251 54.9451 195.514 54.7865 195.736 54.5781C195.959 54.3698 196.127 54.1117 196.24 53.804L198.641 54.0739C198.489 54.7083 198.201 55.2623 197.775 55.7358C197.353 56.2045 196.813 56.5691 196.155 56.8295C195.497 57.0852 194.744 57.2131 193.897 57.2131ZM209.545 48.9744L207.201 49.2301C207.135 48.9934 207.019 48.7708 206.853 48.5625C206.692 48.3542 206.474 48.1861 206.2 48.0582C205.925 47.9304 205.589 47.8665 205.191 47.8665C204.656 47.8665 204.206 47.9825 203.842 48.2145C203.482 48.4465 203.304 48.7472 203.309 49.1165C203.304 49.4337 203.42 49.6918 203.657 49.8906C203.898 50.0895 204.296 50.2528 204.85 50.3807L206.711 50.7784C207.743 51.0009 208.51 51.3537 209.012 51.8366C209.519 52.3196 209.774 52.9517 209.779 53.733C209.774 54.4195 209.573 55.0256 209.175 55.5511C208.782 56.072 208.236 56.4792 207.535 56.7727C206.834 57.0663 206.029 57.2131 205.12 57.2131C203.785 57.2131 202.71 56.9337 201.896 56.375C201.081 55.8116 200.596 55.0279 200.44 54.0241L202.947 53.7827C203.06 54.2751 203.302 54.6468 203.671 54.8977C204.04 55.1487 204.521 55.2741 205.113 55.2741C205.724 55.2741 206.214 55.1487 206.583 54.8977C206.957 54.6468 207.144 54.3366 207.144 53.9673C207.144 53.6548 207.023 53.3968 206.782 53.1932C206.545 52.9896 206.176 52.8333 205.674 52.7244L203.813 52.3338C202.767 52.116 201.993 51.7491 201.491 51.233C200.989 50.7121 200.74 50.054 200.745 49.2585C200.74 48.5862 200.923 48.0038 201.292 47.5114C201.666 47.0142 202.184 46.6307 202.847 46.3608C203.515 46.0862 204.284 45.9489 205.156 45.9489C206.434 45.9489 207.44 46.2211 208.174 46.7656C208.913 47.3101 209.37 48.0464 209.545 48.9744ZM211.899 57V46.0909H214.47V57H211.899ZM213.192 44.5426C212.785 44.5426 212.434 44.4077 212.141 44.1378C211.847 43.8632 211.7 43.5341 211.7 43.1506C211.7 42.7623 211.847 42.4332 212.141 42.1634C212.434 41.8887 212.785 41.7514 213.192 41.7514C213.604 41.7514 213.954 41.8887 214.243 42.1634C214.536 42.4332 214.683 42.7623 214.683 43.1506C214.683 43.5341 214.536 43.8632 214.243 44.1378C213.954 44.4077 213.604 44.5426 213.192 44.5426ZM221.873 57.2131C220.807 57.2131 219.884 56.9787 219.103 56.5099C218.321 56.0412 217.715 55.3854 217.284 54.5426C216.858 53.6998 216.645 52.715 216.645 51.5881C216.645 50.4612 216.858 49.474 217.284 48.6264C217.715 47.7789 218.321 47.1207 219.103 46.652C219.884 46.1832 220.807 45.9489 221.873 45.9489C222.938 45.9489 223.861 46.1832 224.642 46.652C225.424 47.1207 226.027 47.7789 226.453 48.6264C226.884 49.474 227.1 50.4612 227.1 51.5881C227.1 52.715 226.884 53.6998 226.453 54.5426C226.027 55.3854 225.424 56.0412 224.642 56.5099C223.861 56.9787 222.938 57.2131 221.873 57.2131ZM221.887 55.1534C222.464 55.1534 222.947 54.9948 223.336 54.6776C223.724 54.3556 224.013 53.9247 224.202 53.3849C224.396 52.8452 224.493 52.2438 224.493 51.581C224.493 50.9134 224.396 50.3097 224.202 49.7699C224.013 49.2254 223.724 48.7921 223.336 48.4702C222.947 48.1482 222.464 47.9872 221.887 47.9872C221.295 47.9872 220.802 48.1482 220.409 48.4702C220.021 48.7921 219.73 49.2254 219.536 49.7699C219.346 50.3097 219.252 50.9134 219.252 51.581C219.252 52.2438 219.346 52.8452 219.536 53.3849C219.73 53.9247 220.021 54.3556 220.409 54.6776C220.802 54.9948 221.295 55.1534 221.887 55.1534ZM220.885 44.6562L222.476 41.4105H224.99L222.81 44.6562H220.885ZM231.853 50.608V57H229.282V46.0909H231.739V47.9446H231.867C232.118 47.3338 232.518 46.8485 233.067 46.4886C233.621 46.1288 234.306 45.9489 235.12 45.9489C235.873 45.9489 236.529 46.1098 237.087 46.4318C237.651 46.7538 238.086 47.2202 238.394 47.831C238.707 48.4418 238.861 49.1828 238.856 50.054V57H236.285V50.4517C236.285 49.7225 236.095 49.152 235.717 48.7401C235.343 48.3281 234.824 48.1222 234.161 48.1222C233.711 48.1222 233.311 48.2216 232.961 48.4205C232.615 48.6146 232.343 48.8963 232.144 49.2656C231.95 49.6349 231.853 50.0824 231.853 50.608Z" fill="#454F50"/>
</svg>
