<svg width="894" height="166" viewBox="0 0 894 166" fill="none" xmlns="http://www.w3.org/2000/svg">
<rect x="2.5" y="48.5" width="889" height="115" rx="27.5" fill="white" stroke="#FFB700" stroke-width="5"/>
<path d="M266.324 83.3636V127H262.339V87.5398H262.084L251.857 94.3366V90.2031L262.169 83.3636H266.324ZM293.128 127.597C290.06 127.597 287.439 126.716 285.266 124.955C283.107 123.179 281.445 120.615 280.28 117.263C279.129 113.911 278.554 109.884 278.554 105.182C278.554 100.494 279.129 96.4815 280.28 93.1435C281.445 89.7912 283.114 87.2273 285.287 85.4517C287.474 83.6619 290.088 82.767 293.128 82.767C296.168 82.767 298.774 83.6619 300.947 85.4517C303.135 87.2273 304.804 89.7912 305.955 93.1435C307.119 96.4815 307.702 100.494 307.702 105.182C307.702 109.884 307.119 113.911 305.955 117.263C304.804 120.615 303.142 123.179 300.969 124.955C298.81 126.716 296.196 127.597 293.128 127.597ZM293.128 124.017C296.494 124.017 299.122 122.376 301.011 119.095C302.901 115.8 303.845 111.162 303.845 105.182C303.845 101.205 303.412 97.8097 302.545 94.9972C301.693 92.1705 300.464 90.0114 298.859 88.5199C297.268 87.0284 295.358 86.2827 293.128 86.2827C289.79 86.2827 287.169 87.9446 285.266 91.2685C283.362 94.5781 282.411 99.2159 282.411 105.182C282.411 109.159 282.837 112.554 283.689 115.366C284.555 118.179 285.784 120.324 287.375 121.801C288.98 123.278 290.898 124.017 293.128 124.017ZM329.925 127.597C326.857 127.597 324.236 126.716 322.062 124.955C319.903 123.179 318.241 120.615 317.077 117.263C315.926 113.911 315.351 109.884 315.351 105.182C315.351 100.494 315.926 96.4815 317.077 93.1435C318.241 89.7912 319.911 87.2273 322.084 85.4517C324.271 83.6619 326.885 82.767 329.925 82.767C332.964 82.767 335.571 83.6619 337.744 85.4517C339.932 87.2273 341.601 89.7912 342.751 93.1435C343.916 96.4815 344.499 100.494 344.499 105.182C344.499 109.884 343.916 113.911 342.751 117.263C341.601 120.615 339.939 123.179 337.766 124.955C335.607 126.716 332.993 127.597 329.925 127.597ZM329.925 124.017C333.291 124.017 335.919 122.376 337.808 119.095C339.697 115.8 340.642 111.162 340.642 105.182C340.642 101.205 340.209 97.8097 339.342 94.9972C338.49 92.1705 337.261 90.0114 335.656 88.5199C334.065 87.0284 332.155 86.2827 329.925 86.2827C326.587 86.2827 323.966 87.9446 322.062 91.2685C320.159 94.5781 319.207 99.2159 319.207 105.182C319.207 109.159 319.634 112.554 320.486 115.366C321.352 118.179 322.581 120.324 324.172 121.801C325.777 123.278 327.695 124.017 329.925 124.017ZM354.529 127.32C353.691 127.32 352.966 127.021 352.355 126.425C351.759 125.814 351.461 125.089 351.461 124.251C351.461 123.399 351.759 122.675 352.355 122.078C352.966 121.482 353.691 121.183 354.529 121.183C355.381 121.183 356.105 121.482 356.702 122.078C357.299 122.675 357.597 123.399 357.597 124.251C357.597 124.805 357.455 125.317 357.171 125.786C356.901 126.254 356.532 126.631 356.063 126.915C355.608 127.185 355.097 127.32 354.529 127.32ZM379.202 127.597C376.134 127.597 373.513 126.716 371.34 124.955C369.181 123.179 367.519 120.615 366.354 117.263C365.203 113.911 364.628 109.884 364.628 105.182C364.628 100.494 365.203 96.4815 366.354 93.1435C367.519 89.7912 369.188 87.2273 371.361 85.4517C373.549 83.6619 376.162 82.767 379.202 82.767C382.242 82.767 384.848 83.6619 387.022 85.4517C389.209 87.2273 390.878 89.7912 392.029 93.1435C393.194 96.4815 393.776 100.494 393.776 105.182C393.776 109.884 393.194 113.911 392.029 117.263C390.878 120.615 389.216 123.179 387.043 124.955C384.884 126.716 382.27 127.597 379.202 127.597ZM379.202 124.017C382.569 124.017 385.196 122.376 387.086 119.095C388.975 115.8 389.919 111.162 389.919 105.182C389.919 101.205 389.486 97.8097 388.62 94.9972C387.767 92.1705 386.539 90.0114 384.934 88.5199C383.343 87.0284 381.432 86.2827 379.202 86.2827C375.864 86.2827 373.243 87.9446 371.34 91.2685C369.436 94.5781 368.485 99.2159 368.485 105.182C368.485 109.159 368.911 112.554 369.763 115.366C370.63 118.179 371.858 120.324 373.449 121.801C375.054 123.278 376.972 124.017 379.202 124.017ZM415.999 127.597C412.931 127.597 410.31 126.716 408.137 124.955C405.978 123.179 404.316 120.615 403.151 117.263C402 113.911 401.425 109.884 401.425 105.182C401.425 100.494 402 96.4815 403.151 93.1435C404.316 89.7912 405.985 87.2273 408.158 85.4517C410.346 83.6619 412.959 82.767 415.999 82.767C419.039 82.767 421.645 83.6619 423.819 85.4517C426.006 87.2273 427.675 89.7912 428.826 93.1435C429.99 96.4815 430.573 100.494 430.573 105.182C430.573 109.884 429.99 113.911 428.826 117.263C427.675 120.615 426.013 123.179 423.84 124.955C421.681 126.716 419.067 127.597 415.999 127.597ZM415.999 124.017C419.365 124.017 421.993 122.376 423.882 119.095C425.772 115.8 426.716 111.162 426.716 105.182C426.716 101.205 426.283 97.8097 425.417 94.9972C424.564 92.1705 423.336 90.0114 421.73 88.5199C420.14 87.0284 418.229 86.2827 415.999 86.2827C412.661 86.2827 410.04 87.9446 408.137 91.2685C406.233 94.5781 405.282 99.2159 405.282 105.182C405.282 109.159 405.708 112.554 406.56 115.366C407.426 118.179 408.655 120.324 410.246 121.801C411.851 123.278 413.769 124.017 415.999 124.017ZM452.796 127.597C449.728 127.597 447.107 126.716 444.934 124.955C442.775 123.179 441.113 120.615 439.948 117.263C438.797 113.911 438.222 109.884 438.222 105.182C438.222 100.494 438.797 96.4815 439.948 93.1435C441.113 89.7912 442.782 87.2273 444.955 85.4517C447.142 83.6619 449.756 82.767 452.796 82.767C455.836 82.767 458.442 83.6619 460.615 85.4517C462.803 87.2273 464.472 89.7912 465.623 93.1435C466.787 96.4815 467.37 100.494 467.37 105.182C467.37 109.884 466.787 113.911 465.623 117.263C464.472 120.615 462.81 123.179 460.637 124.955C458.478 126.716 455.864 127.597 452.796 127.597ZM452.796 124.017C456.162 124.017 458.79 122.376 460.679 119.095C462.569 115.8 463.513 111.162 463.513 105.182C463.513 101.205 463.08 97.8097 462.213 94.9972C461.361 92.1705 460.132 90.0114 458.527 88.5199C456.936 87.0284 455.026 86.2827 452.796 86.2827C449.458 86.2827 446.837 87.9446 444.934 91.2685C443.03 94.5781 442.078 99.2159 442.078 105.182C442.078 109.159 442.505 112.554 443.357 115.366C444.223 118.179 445.452 120.324 447.043 121.801C448.648 123.278 450.566 124.017 452.796 124.017ZM477.4 127.32C476.562 127.32 475.837 127.021 475.227 126.425C474.63 125.814 474.332 125.089 474.332 124.251C474.332 123.399 474.63 122.675 475.227 122.078C475.837 121.482 476.562 121.183 477.4 121.183C478.252 121.183 478.977 121.482 479.573 122.078C480.17 122.675 480.468 123.399 480.468 124.251C480.468 124.805 480.326 125.317 480.042 125.786C479.772 126.254 479.403 126.631 478.934 126.915C478.479 127.185 477.968 127.32 477.4 127.32ZM502.073 127.597C499.005 127.597 496.384 126.716 494.211 124.955C492.052 123.179 490.39 120.615 489.225 117.263C488.075 113.911 487.499 109.884 487.499 105.182C487.499 100.494 488.075 96.4815 489.225 93.1435C490.39 89.7912 492.059 87.2273 494.232 85.4517C496.42 83.6619 499.033 82.767 502.073 82.767C505.113 82.767 507.719 83.6619 509.893 85.4517C512.08 87.2273 513.749 89.7912 514.9 93.1435C516.065 96.4815 516.647 100.494 516.647 105.182C516.647 109.884 516.065 113.911 514.9 117.263C513.749 120.615 512.087 123.179 509.914 124.955C507.755 126.716 505.141 127.597 502.073 127.597ZM502.073 124.017C505.44 124.017 508.067 122.376 509.957 119.095C511.846 115.8 512.79 111.162 512.79 105.182C512.79 101.205 512.357 97.8097 511.491 94.9972C510.638 92.1705 509.41 90.0114 507.805 88.5199C506.214 87.0284 504.303 86.2827 502.073 86.2827C498.735 86.2827 496.114 87.9446 494.211 91.2685C492.308 94.5781 491.356 99.2159 491.356 105.182C491.356 109.159 491.782 112.554 492.634 115.366C493.501 118.179 494.729 120.324 496.32 121.801C497.925 123.278 499.843 124.017 502.073 124.017ZM538.87 127.597C535.802 127.597 533.181 126.716 531.008 124.955C528.849 123.179 527.187 120.615 526.022 117.263C524.871 113.911 524.296 109.884 524.296 105.182C524.296 100.494 524.871 96.4815 526.022 93.1435C527.187 89.7912 528.856 87.2273 531.029 85.4517C533.217 83.6619 535.83 82.767 538.87 82.767C541.91 82.767 544.516 83.6619 546.69 85.4517C548.877 87.2273 550.546 89.7912 551.697 93.1435C552.862 96.4815 553.444 100.494 553.444 105.182C553.444 109.884 552.862 113.911 551.697 117.263C550.546 120.615 548.884 123.179 546.711 124.955C544.552 126.716 541.938 127.597 538.87 127.597ZM538.87 124.017C542.237 124.017 544.864 122.376 546.754 119.095C548.643 115.8 549.587 111.162 549.587 105.182C549.587 101.205 549.154 97.8097 548.288 94.9972C547.435 92.1705 546.207 90.0114 544.602 88.5199C543.011 87.0284 541.1 86.2827 538.87 86.2827C535.532 86.2827 532.911 87.9446 531.008 91.2685C529.104 94.5781 528.153 99.2159 528.153 105.182C528.153 109.159 528.579 112.554 529.431 115.366C530.298 118.179 531.526 120.324 533.117 121.801C534.722 123.278 536.64 124.017 538.87 124.017ZM575.667 127.597C572.599 127.597 569.978 126.716 567.805 124.955C565.646 123.179 563.984 120.615 562.819 117.263C561.668 113.911 561.093 109.884 561.093 105.182C561.093 100.494 561.668 96.4815 562.819 93.1435C563.984 89.7912 565.653 87.2273 567.826 85.4517C570.013 83.6619 572.627 82.767 575.667 82.767C578.707 82.767 581.313 83.6619 583.487 85.4517C585.674 87.2273 587.343 89.7912 588.494 93.1435C589.658 96.4815 590.241 100.494 590.241 105.182C590.241 109.884 589.658 113.911 588.494 117.263C587.343 120.615 585.681 123.179 583.508 124.955C581.349 126.716 578.735 127.597 575.667 127.597ZM575.667 124.017C579.033 124.017 581.661 122.376 583.55 119.095C585.44 115.8 586.384 111.162 586.384 105.182C586.384 101.205 585.951 97.8097 585.085 94.9972C584.232 92.1705 583.004 90.0114 581.398 88.5199C579.808 87.0284 577.897 86.2827 575.667 86.2827C572.329 86.2827 569.708 87.9446 567.805 91.2685C565.901 94.5781 564.95 99.2159 564.95 105.182C564.95 109.159 565.376 112.554 566.228 115.366C567.094 118.179 568.323 120.324 569.914 121.801C571.519 123.278 573.437 124.017 575.667 124.017ZM612.464 127.597C609.396 127.597 606.775 126.716 604.602 124.955C602.442 123.179 600.781 120.615 599.616 117.263C598.465 113.911 597.89 109.884 597.89 105.182C597.89 100.494 598.465 96.4815 599.616 93.1435C600.781 89.7912 602.45 87.2273 604.623 85.4517C606.81 83.6619 609.424 82.767 612.464 82.767C615.504 82.767 618.11 83.6619 620.283 85.4517C622.471 87.2273 624.14 89.7912 625.29 93.1435C626.455 96.4815 627.038 100.494 627.038 105.182C627.038 109.884 626.455 113.911 625.29 117.263C624.14 120.615 622.478 123.179 620.305 124.955C618.146 126.716 615.532 127.597 612.464 127.597ZM612.464 124.017C615.83 124.017 618.458 122.376 620.347 119.095C622.237 115.8 623.181 111.162 623.181 105.182C623.181 101.205 622.748 97.8097 621.881 94.9972C621.029 92.1705 619.8 90.0114 618.195 88.5199C616.604 87.0284 614.694 86.2827 612.464 86.2827C609.126 86.2827 606.505 87.9446 604.602 91.2685C602.698 94.5781 601.746 99.2159 601.746 105.182C601.746 109.159 602.173 112.554 603.025 115.366C603.891 118.179 605.12 120.324 606.711 121.801C608.316 123.278 610.234 124.017 612.464 124.017Z" fill="#91959D"/>
<rect x="22" y="68.5" width="75" height="75" rx="30" fill="#FFB700"/>
<path d="M60.4607 80.3132C46.8124 80.3132 35.7355 91.3902 35.7355 105.039C35.7355 118.687 46.8124 129.764 60.4607 129.764C74.1091 129.764 85.186 118.687 85.186 105.039C85.186 91.3902 74.1091 80.3132 60.4607 80.3132ZM60.4607 124.819C49.5569 124.819 40.6805 115.942 40.6805 105.039C40.6805 94.1347 49.5569 85.2583 60.4607 85.2583C71.3646 85.2583 80.241 94.1347 80.241 105.039C80.241 115.942 71.3646 124.819 60.4607 124.819ZM62.6613 102.813C58.2602 101.354 56.1338 100.44 56.1338 98.1154C56.1338 95.5935 58.8783 94.6786 60.6091 94.6786C62.2584 94.6786 63.3757 95.3133 64.1109 96.0506C64.9817 96.9238 66.2898 97.575 67.4251 97.0936C68.4331 96.6661 68.9472 95.5197 68.355 94.5988C67.5685 93.3758 66.2124 91.918 64.0053 91.1685C63.2325 90.906 62.6366 90.2257 62.6366 89.4095C62.6366 88.4824 61.885 87.7308 60.9579 87.7308H60.0332C59.0813 87.7308 58.3097 88.5025 58.3097 89.4544C58.3097 90.2664 57.7328 90.9521 56.9683 91.2258C51.8739 93.0498 51.8316 97.9133 51.8316 98.1649C51.8316 103.778 57.3948 105.36 60.1146 106.349C64.0212 107.734 65.752 108.995 65.752 111.368C65.752 114.162 63.1558 115.349 60.8564 115.349C58.2756 115.349 56.7521 113.828 55.8939 112.428C55.2104 111.314 53.8566 110.612 52.6439 111.101C51.6063 111.52 51.0297 112.669 51.507 113.681C52.931 116.7 55.2322 118.086 56.9465 118.741C57.716 119.035 58.2849 119.736 58.2849 120.56C58.2849 121.547 59.0845 122.346 60.0709 122.346H60.9472C61.8666 122.346 62.6118 121.601 62.6118 120.682C62.6118 119.872 63.1975 119.193 63.9746 118.964C66.2298 118.302 70.0789 116.45 70.0789 111.319C70.1036 107.882 68.5954 104.865 62.6613 102.813Z" fill="white"/>
<path d="M1.44886 9.52557V7.18182H17.8125V9.52557H10.9517V29H8.30966V9.52557H1.44886ZM36.2083 7.18182H38.8503V21.6278C38.8503 23.1193 38.4988 24.451 37.7956 25.6229C37.0996 26.7876 36.1159 27.7074 34.8446 28.3821C33.5733 29.0497 32.0819 29.3835 30.3702 29.3835C28.6586 29.3835 27.1671 29.0497 25.8958 28.3821C24.6245 27.7074 23.6373 26.7876 22.9341 25.6229C22.2381 24.451 21.8901 23.1193 21.8901 21.6278V7.18182H24.5321V21.4148C24.5321 22.4801 24.7665 23.4283 25.2353 24.2592C25.704 25.0831 26.3716 25.733 27.2381 26.2088C28.1117 26.6776 29.1557 26.9119 30.3702 26.9119C31.5847 26.9119 32.6287 26.6776 33.5023 26.2088C34.3759 25.733 35.0435 25.0831 35.5051 24.2592C35.9739 23.4283 36.2083 22.4801 36.2083 21.4148V7.18182ZM56.0582 12.6364C55.9304 11.5568 55.4119 10.7188 54.5028 10.1222C53.5938 9.52557 52.4787 9.22727 51.1577 9.22727C50.1918 9.22727 49.3466 9.38352 48.6222 9.69602C47.9048 10.0085 47.3438 10.4382 46.9389 10.9851C46.5412 11.532 46.3423 12.1534 46.3423 12.8494C46.3423 13.4318 46.4808 13.9325 46.7578 14.3516C47.0419 14.7635 47.4041 15.108 47.8445 15.3849C48.2848 15.6548 48.7464 15.8786 49.2294 16.0561C49.7124 16.2266 50.1562 16.3651 50.5611 16.4716L52.777 17.0682C53.3452 17.2173 53.9773 17.4233 54.6733 17.6861C55.3764 17.9489 56.0476 18.3075 56.6868 18.7621C57.3331 19.2095 57.8658 19.7848 58.2848 20.4879C58.7038 21.1911 58.9134 22.054 58.9134 23.0767C58.9134 24.2557 58.6044 25.321 57.9865 26.2727C57.3757 27.2244 56.4808 27.9808 55.3018 28.5419C54.13 29.103 52.706 29.3835 51.0298 29.3835C49.4673 29.3835 48.1143 29.1314 46.9709 28.6271C45.8345 28.1229 44.9396 27.4197 44.2862 26.5178C43.6399 25.6158 43.2741 24.5682 43.1889 23.375H45.9162C45.9872 24.1989 46.2642 24.8807 46.7472 25.4205C47.2372 25.9531 47.8551 26.3509 48.6009 26.6136C49.3537 26.8693 50.1634 26.9972 51.0298 26.9972C52.0384 26.9972 52.9439 26.8338 53.7464 26.5071C54.549 26.1733 55.1847 25.7116 55.6534 25.1222C56.1222 24.5256 56.3565 23.8295 56.3565 23.0341C56.3565 22.3097 56.1541 21.7202 55.7493 21.2656C55.3445 20.8111 54.8118 20.4418 54.1513 20.1577C53.4908 19.8736 52.777 19.625 52.0099 19.4119L49.3253 18.6449C47.6207 18.1548 46.2713 17.4553 45.277 16.5462C44.2827 15.6371 43.7855 14.4474 43.7855 12.9773C43.7855 11.7557 44.1158 10.6903 44.7763 9.78125C45.4439 8.86506 46.3388 8.15483 47.4609 7.65057C48.5902 7.1392 49.8509 6.88352 51.2429 6.88352C52.6491 6.88352 53.8991 7.13565 54.9929 7.63991C56.0866 8.13707 56.9531 8.81889 57.5923 9.68537C58.2386 10.5518 58.5795 11.5355 58.6151 12.6364H56.0582ZM71.6948 29V7.18182H84.7772V9.52557H74.3368V16.8977H83.7971V19.2415H74.3368V29H71.6948ZM91.9442 7.18182V29H89.3022V7.18182H91.9442ZM114.798 14H112.156C112 13.2401 111.727 12.5724 111.336 11.9972C110.953 11.4219 110.484 10.9389 109.93 10.5483C109.383 10.1506 108.776 9.85227 108.108 9.65341C107.441 9.45455 106.744 9.35511 106.02 9.35511C104.699 9.35511 103.502 9.68892 102.43 10.3565C101.365 11.0241 100.516 12.0078 99.8837 13.3075C99.2587 14.6072 98.9462 16.2017 98.9462 18.0909C98.9462 19.9801 99.2587 21.5746 99.8837 22.8743C100.516 24.174 101.365 25.1577 102.43 25.8253C103.502 26.4929 104.699 26.8267 106.02 26.8267C106.744 26.8267 107.441 26.7273 108.108 26.5284C108.776 26.3295 109.383 26.0348 109.93 25.6442C110.484 25.2464 110.953 24.7599 111.336 24.1847C111.727 23.6023 112 22.9347 112.156 22.1818H114.798C114.6 23.2969 114.237 24.2947 113.712 25.1754C113.186 26.0561 112.533 26.8054 111.752 27.4233C110.97 28.0341 110.093 28.4993 109.12 28.8189C108.154 29.1385 107.121 29.2983 106.02 29.2983C104.159 29.2983 102.504 28.8438 101.056 27.9347C99.6067 27.0256 98.4668 25.733 97.6358 24.0568C96.8049 22.3807 96.3894 20.392 96.3894 18.0909C96.3894 15.7898 96.8049 13.8011 97.6358 12.125C98.4668 10.4489 99.6067 9.15625 101.056 8.24716C102.504 7.33807 104.159 6.88352 106.02 6.88352C107.121 6.88352 108.154 7.04332 109.12 7.36293C110.093 7.68253 110.97 8.15128 111.752 8.76918C112.533 9.37997 113.186 10.1257 113.712 11.0064C114.237 11.88 114.6 12.8778 114.798 14ZM119.068 29V7.18182H121.71V16.8977H133.343V7.18182H135.985V29H133.343V19.2415H121.71V29H119.068ZM142.17 29H139.4L147.411 7.18182H150.138L158.15 29H155.38L148.86 10.6335H148.69L142.17 29ZM143.192 20.4773H154.357V22.821H143.192V20.4773ZM173.48 12.6364C173.352 11.5568 172.834 10.7188 171.925 10.1222C171.016 9.52557 169.901 9.22727 168.58 9.22727C167.614 9.22727 166.768 9.38352 166.044 9.69602C165.327 10.0085 164.766 10.4382 164.361 10.9851C163.963 11.532 163.764 12.1534 163.764 12.8494C163.764 13.4318 163.903 13.9325 164.18 14.3516C164.464 14.7635 164.826 15.108 165.266 15.3849C165.707 15.6548 166.168 15.8786 166.651 16.0561C167.134 16.2266 167.578 16.3651 167.983 16.4716L170.199 17.0682C170.767 17.2173 171.399 17.4233 172.095 17.6861C172.798 17.9489 173.469 18.3075 174.109 18.7621C174.755 19.2095 175.288 19.7848 175.707 20.4879C176.126 21.1911 176.335 22.054 176.335 23.0767C176.335 24.2557 176.026 25.321 175.408 26.2727C174.798 27.2244 173.903 27.9808 172.724 28.5419C171.552 29.103 170.128 29.3835 168.452 29.3835C166.889 29.3835 165.536 29.1314 164.393 28.6271C163.256 28.1229 162.362 27.4197 161.708 26.5178C161.062 25.6158 160.696 24.5682 160.611 23.375H163.338C163.409 24.1989 163.686 24.8807 164.169 25.4205C164.659 25.9531 165.277 26.3509 166.023 26.6136C166.776 26.8693 167.585 26.9972 168.452 26.9972C169.46 26.9972 170.366 26.8338 171.168 26.5071C171.971 26.1733 172.607 25.7116 173.075 25.1222C173.544 24.5256 173.778 23.8295 173.778 23.0341C173.778 22.3097 173.576 21.7202 173.171 21.2656C172.766 20.8111 172.234 20.4418 171.573 20.1577C170.913 19.8736 170.199 19.625 169.432 19.4119L166.747 18.6449C165.043 18.1548 163.693 17.4553 162.699 16.5462C161.705 15.6371 161.207 14.4474 161.207 12.9773C161.207 11.7557 161.538 10.6903 162.198 9.78125C162.866 8.86506 163.761 8.15483 164.883 7.65057C166.012 7.1392 167.273 6.88352 168.665 6.88352C170.071 6.88352 171.321 7.13565 172.415 7.63991C173.509 8.13707 174.375 8.81889 175.014 9.68537C175.661 10.5518 176.001 11.5355 176.037 12.6364H173.48Z" fill="#91959D"/>
</svg>
