<svg width="894" height="166" viewBox="0 0 894 166" fill="none" xmlns="http://www.w3.org/2000/svg">
<path d="M195.625 34.5398H192.727L192.94 18.858H195.412L195.625 34.5398ZM194.176 12.5511C194.702 12.5511 195.153 12.7393 195.529 13.1158C195.906 13.4922 196.094 13.9432 196.094 14.4688C196.094 14.9943 195.906 15.4453 195.529 15.8217C195.153 16.1982 194.702 16.3864 194.176 16.3864C193.651 16.3864 193.2 16.1982 192.823 15.8217C192.447 15.4453 192.259 14.9943 192.259 14.4688C192.259 14.1136 192.344 13.794 192.514 13.5099C192.692 13.2188 192.926 12.9879 193.217 12.8175C193.509 12.6399 193.828 12.5511 194.176 12.5511ZM200.992 7.18182H204.145L211.56 25.2926H211.816L219.23 7.18182H222.384V29H219.912V12.4233H219.699L212.881 29H210.494L203.676 12.4233H203.463V29H200.992V7.18182ZM230.323 7.18182V29H227.681V7.18182H230.323ZM235.621 29V7.18182H242.993C244.697 7.18182 246.096 7.47301 247.19 8.0554C248.284 8.63068 249.094 9.42258 249.619 10.4311C250.145 11.4396 250.407 12.5866 250.407 13.8722C250.407 15.1577 250.145 16.2976 249.619 17.2919C249.094 18.2862 248.287 19.0675 247.201 19.6357C246.114 20.1967 244.726 20.4773 243.035 20.4773H237.069V18.0909H242.95C244.115 18.0909 245.052 17.9205 245.763 17.5795C246.48 17.2386 246.998 16.7557 247.318 16.1307C247.645 15.4986 247.808 14.7457 247.808 13.8722C247.808 12.9986 247.645 12.2351 247.318 11.5817C246.991 10.9283 246.469 10.424 245.752 10.0689C245.035 9.70668 244.086 9.52557 242.907 9.52557H238.263V29H235.621ZM245.89 19.1989L251.26 29H248.192L242.907 19.1989H245.89ZM255.705 29H252.935L260.946 7.18182H263.674L271.685 29H268.915L262.395 10.6335H262.225L255.705 29ZM256.728 20.4773H267.892V22.821H256.728V20.4773ZM283.521 29V7.18182H290.893C292.605 7.18182 294.004 7.49077 295.091 8.10866C296.184 8.71946 296.994 9.54688 297.52 10.5909C298.045 11.6349 298.308 12.7997 298.308 14.0852C298.308 15.3707 298.045 16.5391 297.52 17.5902C297.001 18.6413 296.199 19.4794 295.112 20.1044C294.025 20.7223 292.633 21.0312 290.936 21.0312H285.652V18.6875H290.85C292.022 18.6875 292.963 18.4851 293.674 18.0803C294.384 17.6754 294.899 17.1286 295.218 16.4396C295.545 15.7436 295.708 14.9588 295.708 14.0852C295.708 13.2116 295.545 12.4304 295.218 11.7415C294.899 11.0526 294.38 10.5128 293.663 10.1222C292.946 9.72443 291.994 9.52557 290.808 9.52557H286.163V29H283.521ZM316.882 7.18182H319.524V21.6278C319.524 23.1193 319.173 24.451 318.469 25.6229C317.773 26.7876 316.79 27.7074 315.518 28.3821C314.247 29.0497 312.756 29.3835 311.044 29.3835C309.332 29.3835 307.841 29.0497 306.57 28.3821C305.298 27.7074 304.311 26.7876 303.608 25.6229C302.912 24.451 302.564 23.1193 302.564 21.6278V7.18182H305.206V21.4148C305.206 22.4801 305.44 23.4283 305.909 24.2592C306.378 25.0831 307.045 25.733 307.912 26.2088C308.786 26.6776 309.83 26.9119 311.044 26.9119C312.259 26.9119 313.303 26.6776 314.176 26.2088C315.05 25.733 315.717 25.0831 316.179 24.2592C316.648 23.4283 316.882 22.4801 316.882 21.4148V7.18182ZM324.8 29V7.18182H332.428C333.948 7.18182 335.202 7.4446 336.189 7.97017C337.176 8.48864 337.911 9.18821 338.394 10.0689C338.877 10.9425 339.118 11.9119 339.118 12.9773C339.118 13.9148 338.952 14.6889 338.618 15.2997C338.291 15.9105 337.858 16.3935 337.318 16.7486C336.785 17.1037 336.206 17.3665 335.581 17.5369V17.75C336.249 17.7926 336.92 18.027 337.595 18.4531C338.27 18.8793 338.834 19.4901 339.289 20.2855C339.743 21.081 339.971 22.054 339.971 23.2045C339.971 24.2983 339.722 25.282 339.225 26.1555C338.728 27.0291 337.943 27.7216 336.871 28.233C335.798 28.7443 334.403 29 332.684 29H324.8ZM327.442 26.6562H332.684C334.41 26.6562 335.635 26.3224 336.359 25.6548C337.091 24.9801 337.456 24.1634 337.456 23.2045C337.456 22.4659 337.268 21.7841 336.892 21.1591C336.515 20.527 335.979 20.0227 335.283 19.6463C334.587 19.2628 333.763 19.071 332.812 19.071H327.442V26.6562ZM327.442 16.7699H332.343C333.138 16.7699 333.856 16.6136 334.495 16.3011C335.141 15.9886 335.653 15.5483 336.029 14.9801C336.412 14.4119 336.604 13.7443 336.604 12.9773C336.604 12.0185 336.27 11.2053 335.603 10.5376C334.935 9.86293 333.877 9.52557 332.428 9.52557H327.442V16.7699ZM344.312 29V7.18182H346.954V26.6562H357.096V29H344.312ZM363.829 7.18182V29H361.187V7.18182H363.829ZM386.683 14H384.041C383.885 13.2401 383.612 12.5724 383.221 11.9972C382.837 11.4219 382.369 10.9389 381.815 10.5483C381.268 10.1506 380.661 9.85227 379.993 9.65341C379.325 9.45455 378.629 9.35511 377.905 9.35511C376.584 9.35511 375.387 9.68892 374.315 10.3565C373.249 11.0241 372.401 12.0078 371.768 13.3075C371.143 14.6072 370.831 16.2017 370.831 18.0909C370.831 19.9801 371.143 21.5746 371.768 22.8743C372.401 24.174 373.249 25.1577 374.315 25.8253C375.387 26.4929 376.584 26.8267 377.905 26.8267C378.629 26.8267 379.325 26.7273 379.993 26.5284C380.661 26.3295 381.268 26.0348 381.815 25.6442C382.369 25.2464 382.837 24.7599 383.221 24.1847C383.612 23.6023 383.885 22.9347 384.041 22.1818H386.683C386.484 23.2969 386.122 24.2947 385.597 25.1754C385.071 26.0561 384.418 26.8054 383.636 27.4233C382.855 28.0341 381.978 28.4993 381.005 28.8189C380.039 29.1385 379.006 29.2983 377.905 29.2983C376.044 29.2983 374.389 28.8438 372.94 27.9347C371.491 27.0256 370.352 25.733 369.521 24.0568C368.69 22.3807 368.274 20.392 368.274 18.0909C368.274 15.7898 368.69 13.8011 369.521 12.125C370.352 10.4489 371.491 9.15625 372.94 8.24716C374.389 7.33807 376.044 6.88352 377.905 6.88352C379.006 6.88352 380.039 7.04332 381.005 7.36293C381.978 7.68253 382.855 8.15128 383.636 8.76918C384.418 9.37997 385.071 10.1257 385.597 11.0064C386.122 11.88 386.484 12.8778 386.683 14ZM393.595 7.18182V29H390.953V7.18182H393.595ZM405.625 29H398.892V7.18182H405.923C408.04 7.18182 409.851 7.61861 411.357 8.49219C412.862 9.35866 414.016 10.6051 414.819 12.2315C415.621 13.8509 416.023 15.7898 416.023 18.0483C416.023 20.321 415.618 22.2777 414.808 23.9183C413.999 25.5518 412.82 26.8089 411.271 27.6896C409.723 28.5632 407.841 29 405.625 29ZM401.534 26.6562H405.455C407.259 26.6562 408.754 26.3082 409.94 25.6122C411.126 24.9162 412.01 23.9254 412.592 22.6399C413.175 21.3544 413.466 19.8239 413.466 18.0483C413.466 16.2869 413.178 14.7706 412.603 13.4993C412.028 12.2209 411.168 11.2408 410.025 10.5589C408.881 9.87003 407.457 9.52557 405.753 9.52557H401.534V26.6562ZM420.324 29H417.554L425.566 7.18182H428.293L436.304 29H433.534L427.014 10.6335H426.844L420.324 29ZM421.347 20.4773H432.512V22.821H421.347V20.4773ZM446.436 29H439.703V7.18182H446.734C448.85 7.18182 450.661 7.61861 452.167 8.49219C453.673 9.35866 454.827 10.6051 455.629 12.2315C456.432 13.8509 456.833 15.7898 456.833 18.0483C456.833 20.321 456.428 22.2777 455.619 23.9183C454.809 25.5518 453.63 26.8089 452.082 27.6896C450.534 28.5632 448.651 29 446.436 29ZM442.345 26.6562H446.265C448.069 26.6562 449.564 26.3082 450.75 25.6122C451.936 24.9162 452.82 23.9254 453.403 22.6399C453.985 21.3544 454.276 19.8239 454.276 18.0483C454.276 16.2869 453.989 14.7706 453.414 13.4993C452.838 12.2209 451.979 11.2408 450.835 10.5589C449.692 9.87003 448.268 9.52557 446.563 9.52557H442.345V26.6562ZM467.828 7.18182H470.853L476.904 17.3665H477.16L483.211 7.18182H486.237L478.353 20.0085V29H475.711V20.0085L467.828 7.18182ZM513.006 14C512.772 13.2827 512.463 12.6399 512.079 12.0717C511.703 11.4964 511.252 11.0064 510.726 10.6016C510.208 10.1967 509.618 9.88778 508.958 9.67471C508.297 9.46165 507.573 9.35511 506.784 9.35511C505.492 9.35511 504.316 9.68892 503.258 10.3565C502.2 11.0241 501.358 12.0078 500.733 13.3075C500.108 14.6072 499.796 16.2017 499.796 18.0909C499.796 19.9801 500.112 21.5746 500.744 22.8743C501.376 24.174 502.232 25.1577 503.311 25.8253C504.391 26.4929 505.605 26.8267 506.955 26.8267C508.205 26.8267 509.306 26.5604 510.257 26.0277C511.216 25.4879 511.962 24.728 512.495 23.7479C513.034 22.7607 513.304 21.5994 513.304 20.2642L514.114 20.4347H507.551V18.0909H515.861V20.4347C515.861 22.2315 515.478 23.794 514.711 25.1222C513.951 26.4503 512.9 27.4801 511.557 28.2116C510.222 28.9361 508.688 29.2983 506.955 29.2983C505.023 29.2983 503.326 28.8438 501.863 27.9347C500.407 27.0256 499.27 25.733 498.453 24.0568C497.644 22.3807 497.239 20.392 497.239 18.0909C497.239 16.3651 497.47 14.8132 497.931 13.4354C498.4 12.0504 499.061 10.8714 499.913 9.89844C500.765 8.92543 501.774 8.17969 502.939 7.66122C504.103 7.14276 505.385 6.88352 506.784 6.88352C507.935 6.88352 509.007 7.05753 510.002 7.40554C511.003 7.74645 511.895 8.23295 512.676 8.86506C513.464 9.49006 514.121 10.2393 514.647 11.1129C515.172 11.9794 515.534 12.9418 515.733 14H513.006ZM520.607 29H517.837L525.849 7.18182H528.576L536.587 29H533.817L527.298 10.6335H527.127L520.607 29ZM521.63 20.4773H532.795V22.821H521.63V20.4773ZM557.287 7.18182V29H554.73L542.841 11.8693H542.628V29H539.986V7.18182H542.543L554.474 24.3551H554.688V7.18182H557.287ZM563.469 29H560.699L568.71 7.18182H571.437L579.449 29H576.679L570.159 10.6335H569.988L563.469 29ZM564.491 20.4773H575.656V22.821H564.491V20.4773ZM591.285 29V7.18182H604.367V9.52557H593.927V16.8977H603.387V19.2415H593.927V29H591.285ZM611.534 7.18182V29H608.892V7.18182H611.534ZM634.388 14H631.746C631.59 13.2401 631.317 12.5724 630.926 11.9972C630.542 11.4219 630.074 10.9389 629.52 10.5483C628.973 10.1506 628.366 9.85227 627.698 9.65341C627.03 9.45455 626.334 9.35511 625.61 9.35511C624.289 9.35511 623.092 9.68892 622.02 10.3565C620.954 11.0241 620.106 12.0078 619.474 13.3075C618.849 14.6072 618.536 16.2017 618.536 18.0909C618.536 19.9801 618.849 21.5746 619.474 22.8743C620.106 24.174 620.954 25.1577 622.02 25.8253C623.092 26.4929 624.289 26.8267 625.61 26.8267C626.334 26.8267 627.03 26.7273 627.698 26.5284C628.366 26.3295 628.973 26.0348 629.52 25.6442C630.074 25.2464 630.542 24.7599 630.926 24.1847C631.317 23.6023 631.59 22.9347 631.746 22.1818H634.388C634.189 23.2969 633.827 24.2947 633.302 25.1754C632.776 26.0561 632.123 26.8054 631.341 27.4233C630.56 28.0341 629.683 28.4993 628.71 28.8189C627.744 29.1385 626.711 29.2983 625.61 29.2983C623.749 29.2983 622.094 28.8438 620.645 27.9347C619.197 27.0256 618.057 25.733 617.226 24.0568C616.395 22.3807 615.979 20.392 615.979 18.0909C615.979 15.7898 616.395 13.8011 617.226 12.125C618.057 10.4489 619.197 9.15625 620.645 8.24716C622.094 7.33807 623.749 6.88352 625.61 6.88352C626.711 6.88352 627.744 7.04332 628.71 7.36293C629.683 7.68253 630.56 8.15128 631.341 8.76918C632.123 9.37997 632.776 10.1257 633.302 11.0064C633.827 11.88 634.189 12.8778 634.388 14ZM638.658 29V7.18182H641.3V16.8977H652.933V7.18182H655.575V29H652.933V19.2415H641.3V29H638.658ZM661.76 29H658.99L667.001 7.18182H669.728L677.74 29H674.97L668.45 10.6335H668.279L661.76 29ZM662.782 20.4773H673.947V22.821H662.782V20.4773ZM693.07 12.6364C692.942 11.5568 692.424 10.7188 691.515 10.1222C690.605 9.52557 689.49 9.22727 688.169 9.22727C687.203 9.22727 686.358 9.38352 685.634 9.69602C684.917 10.0085 684.355 10.4382 683.951 10.9851C683.553 11.532 683.354 12.1534 683.354 12.8494C683.354 13.4318 683.493 13.9325 683.77 14.3516C684.054 14.7635 684.416 15.108 684.856 15.3849C685.297 15.6548 685.758 15.8786 686.241 16.0561C686.724 16.2266 687.168 16.3651 687.573 16.4716L689.789 17.0682C690.357 17.2173 690.989 17.4233 691.685 17.6861C692.388 17.9489 693.059 18.3075 693.699 18.7621C694.345 19.2095 694.877 19.7848 695.297 20.4879C695.716 21.1911 695.925 22.054 695.925 23.0767C695.925 24.2557 695.616 25.321 694.998 26.2727C694.387 27.2244 693.493 27.9808 692.314 28.5419C691.142 29.103 689.718 29.3835 688.042 29.3835C686.479 29.3835 685.126 29.1314 683.983 28.6271C682.846 28.1229 681.951 27.4197 681.298 26.5178C680.652 25.6158 680.286 24.5682 680.201 23.375H682.928C682.999 24.1989 683.276 24.8807 683.759 25.4205C684.249 25.9531 684.867 26.3509 685.613 26.6136C686.365 26.8693 687.175 26.9972 688.042 26.9972C689.05 26.9972 689.956 26.8338 690.758 26.5071C691.561 26.1733 692.196 25.7116 692.665 25.1222C693.134 24.5256 693.368 23.8295 693.368 23.0341C693.368 22.3097 693.166 21.7202 692.761 21.2656C692.356 20.8111 691.824 20.4418 691.163 20.1577C690.502 19.8736 689.789 19.625 689.022 19.4119L686.337 18.6449C684.632 18.1548 683.283 17.4553 682.289 16.5462C681.294 15.6371 680.797 14.4474 680.797 12.9773C680.797 11.7557 681.127 10.6903 681.788 9.78125C682.456 8.86506 683.35 8.15483 684.473 7.65057C685.602 7.1392 686.863 6.88352 688.255 6.88352C689.661 6.88352 690.911 7.13565 692.005 7.63991C693.098 8.13707 693.965 8.81889 694.604 9.68537C695.25 10.5518 695.591 11.5355 695.627 12.6364H693.07ZM703.252 7.18182L703.039 22.8636H700.567L700.354 7.18182H703.252ZM701.803 29.1705C701.278 29.1705 700.827 28.9822 700.45 28.6058C700.074 28.2294 699.885 27.7784 699.885 27.2528C699.885 26.7273 700.074 26.2763 700.45 25.8999C700.827 25.5234 701.278 25.3352 701.803 25.3352C702.329 25.3352 702.78 25.5234 703.156 25.8999C703.532 26.2763 703.721 26.7273 703.721 27.2528C703.721 27.6009 703.632 27.9205 703.454 28.2116C703.284 28.5028 703.053 28.7372 702.762 28.9148C702.478 29.0852 702.158 29.1705 701.803 29.1705Z" fill="#91959D"/>
<rect x="0.5" y="46.5" width="893" height="119" rx="9.5" fill="#2DCC8A" stroke="#2DCC8A"/>
<g filter="url(#filter0_d_54_2)">
<path d="M209.142 84.3636L220.499 118.71H220.946L232.281 84.3636H240.974L225.591 128H215.832L200.47 84.3636H209.142ZM246.722 128V84.3636H275.103V90.9901H254.627V102.837H273.632V109.463H254.627V121.374H275.273V128H246.722ZM283.167 128V84.3636H299.531C302.883 84.3636 305.696 84.946 307.968 86.1108C310.255 87.2756 311.981 88.9091 313.146 91.0114C314.325 93.0994 314.914 95.5355 314.914 98.3196C314.914 101.118 314.318 103.547 313.125 105.607C311.946 107.652 310.206 109.236 307.904 110.358C305.603 111.466 302.777 112.02 299.424 112.02H287.77V105.457H298.359C300.319 105.457 301.924 105.187 303.174 104.648C304.424 104.094 305.348 103.291 305.944 102.24C306.555 101.175 306.86 99.8679 306.86 98.3196C306.86 96.7713 306.555 95.4503 305.944 94.3565C305.333 93.2486 304.403 92.4105 303.153 91.8423C301.903 91.2599 300.291 90.9688 298.316 90.9688H291.072V128H283.167ZM305.71 108.227L316.512 128H307.691L297.081 108.227H305.71ZM337.074 128V84.3636H353.437C356.789 84.3636 359.602 84.9886 361.875 86.2386C364.162 87.4886 365.887 89.2074 367.052 91.3949C368.231 93.5682 368.821 96.0398 368.821 98.8097C368.821 101.608 368.231 104.094 367.052 106.267C365.873 108.44 364.133 110.152 361.832 111.402C359.531 112.638 356.697 113.256 353.331 113.256H342.485V106.757H352.265C354.225 106.757 355.831 106.416 357.081 105.734C358.331 105.053 359.254 104.115 359.85 102.922C360.461 101.729 360.767 100.358 360.767 98.8097C360.767 97.2614 360.461 95.8977 359.85 94.7188C359.254 93.5398 358.324 92.6236 357.059 91.9702C355.809 91.3026 354.197 90.9688 352.223 90.9688H344.978V128H337.074ZM403.194 84.3636H411.099V112.872C411.099 115.997 410.36 118.746 408.883 121.118C407.42 123.49 405.36 125.344 402.704 126.679C400.048 128 396.944 128.661 393.393 128.661C389.827 128.661 386.717 128 384.06 126.679C381.404 125.344 379.344 123.49 377.881 121.118C376.418 118.746 375.687 115.997 375.687 112.872V84.3636H383.592V112.212C383.592 114.03 383.989 115.649 384.785 117.07C385.594 118.49 386.731 119.605 388.194 120.415C389.657 121.21 391.39 121.608 393.393 121.608C395.396 121.608 397.129 121.21 398.592 120.415C400.069 119.605 401.205 118.49 402.001 117.07C402.796 115.649 403.194 114.03 403.194 112.212V84.3636ZM419.691 128V84.3636H436.395C439.549 84.3636 442.169 84.8608 444.257 85.8551C446.36 86.8352 447.929 88.1776 448.966 89.8821C450.017 91.5866 450.543 93.5185 450.543 95.6776C450.543 97.4531 450.202 98.973 449.52 100.237C448.838 101.487 447.922 102.503 446.772 103.284C445.621 104.065 444.336 104.626 442.915 104.967V105.393C444.463 105.479 445.948 105.955 447.368 106.821C448.803 107.673 449.975 108.881 450.884 110.443C451.793 112.006 452.248 113.895 452.248 116.111C452.248 118.369 451.701 120.401 450.607 122.205C449.513 123.994 447.865 125.408 445.664 126.445C443.462 127.482 440.692 128 437.354 128H419.691ZM427.596 121.395H436.097C438.966 121.395 441.033 120.848 442.297 119.754C443.576 118.646 444.215 117.226 444.215 115.493C444.215 114.2 443.895 113.036 443.256 111.999C442.617 110.947 441.708 110.124 440.529 109.527C439.35 108.916 437.944 108.611 436.31 108.611H427.596V121.395ZM427.596 102.922H435.415C436.779 102.922 438.007 102.673 439.101 102.176C440.195 101.665 441.054 100.947 441.679 100.024C442.319 99.0866 442.638 97.9787 442.638 96.7003C442.638 95.0099 442.042 93.6179 440.848 92.5241C439.669 91.4304 437.915 90.8835 435.586 90.8835H427.596V102.922ZM459.124 128V84.3636H467.029V121.374H486.248V128H459.124ZM501.013 84.3636V128H493.109V84.3636H501.013ZM546.924 99.0866H538.956C538.728 97.7798 538.309 96.6222 537.699 95.6136C537.088 94.5909 536.328 93.7244 535.419 93.0142C534.51 92.304 533.473 91.7713 532.308 91.4162C531.157 91.0469 529.914 90.8622 528.579 90.8622C526.207 90.8622 524.105 91.4588 522.272 92.652C520.44 93.831 519.005 95.5639 517.968 97.8509C516.931 100.124 516.413 102.901 516.413 106.182C516.413 109.52 516.931 112.332 517.968 114.619C519.02 116.892 520.454 118.611 522.272 119.776C524.105 120.926 526.2 121.501 528.558 121.501C529.865 121.501 531.086 121.331 532.223 120.99C533.373 120.635 534.403 120.116 535.312 119.435C536.235 118.753 537.01 117.915 537.635 116.92C538.274 115.926 538.714 114.79 538.956 113.511L546.924 113.554C546.626 115.628 545.98 117.574 544.985 119.392C544.005 121.21 542.72 122.815 541.129 124.207C539.538 125.585 537.677 126.665 535.547 127.446C533.416 128.213 531.051 128.597 528.451 128.597C524.616 128.597 521.193 127.709 518.181 125.933C515.17 124.158 512.798 121.594 511.065 118.241C509.332 114.889 508.466 110.869 508.466 106.182C508.466 101.48 509.339 97.4602 511.086 94.1222C512.833 90.7699 515.213 88.206 518.224 86.4304C521.235 84.6548 524.645 83.767 528.451 83.767C530.88 83.767 533.139 84.108 535.227 84.7898C537.315 85.4716 539.176 86.473 540.809 87.794C542.443 89.1009 543.785 90.706 544.836 92.6094C545.902 94.4986 546.598 96.6577 546.924 99.0866ZM562.068 84.3636V128H554.163V84.3636H562.068ZM585.415 128H570.628V84.3636H585.713C590.046 84.3636 593.767 85.2372 596.878 86.9844C600.003 88.7173 602.404 91.2102 604.08 94.4631C605.756 97.7159 606.594 101.608 606.594 106.139C606.594 110.685 605.749 114.591 604.059 117.858C602.382 121.125 599.961 123.632 596.793 125.379C593.64 127.126 589.847 128 585.415 128ZM578.533 121.161H585.032C588.071 121.161 590.607 120.607 592.638 119.499C594.669 118.376 596.196 116.707 597.219 114.491C598.242 112.261 598.753 109.477 598.753 106.139C598.753 102.801 598.242 100.031 597.219 97.8295C596.196 95.6136 594.684 93.9588 592.681 92.8651C590.692 91.7571 588.221 91.2031 585.266 91.2031H578.533V121.161ZM617.365 128H608.927L624.289 84.3636H634.048L649.431 128H640.994L629.339 93.3125H628.998L617.365 128ZM617.642 110.891H640.653V117.24H617.642V110.891ZM669.966 128H655.179V84.3636H670.264C674.597 84.3636 678.318 85.2372 681.429 86.9844C684.554 88.7173 686.955 91.2102 688.631 94.4631C690.307 97.7159 691.145 101.608 691.145 106.139C691.145 110.685 690.3 114.591 688.609 117.858C686.933 121.125 684.511 123.632 681.344 125.379C678.19 127.126 674.398 128 669.966 128ZM663.084 121.161H669.582C672.622 121.161 675.158 120.607 677.189 119.499C679.22 118.376 680.747 116.707 681.77 114.491C682.793 112.261 683.304 109.477 683.304 106.139C683.304 102.801 682.793 100.031 681.77 97.8295C680.747 95.6136 679.234 93.9588 677.232 92.8651C675.243 91.7571 672.771 91.2031 669.817 91.2031H663.084V121.161Z" fill="white"/>
</g>
<defs>
<filter id="filter0_d_54_2" x="196.47" y="83.767" width="498.675" height="52.8935" filterUnits="userSpaceOnUse" color-interpolation-filters="sRGB">
<feFlood flood-opacity="0" result="BackgroundImageFix"/>
<feColorMatrix in="SourceAlpha" type="matrix" values="0 0 0 0 0 0 0 0 0 0 0 0 0 0 0 0 0 0 127 0" result="hardAlpha"/>
<feOffset dy="4"/>
<feGaussianBlur stdDeviation="2"/>
<feComposite in2="hardAlpha" operator="out"/>
<feColorMatrix type="matrix" values="0 0 0 0 0 0 0 0 0 0 0 0 0 0 0 0 0 0 0.25 0"/>
<feBlend mode="normal" in2="BackgroundImageFix" result="effect1_dropShadow_54_2"/>
<feBlend mode="normal" in="SourceGraphic" in2="effect1_dropShadow_54_2" result="shape"/>
</filter>
</defs>
</svg>
