<svg width="26" height="26" viewBox="0 0 26 26" fill="none" xmlns="http://www.w3.org/2000/svg">
<path d="M14.794 24.9426H10.4364C9.87393 24.9426 9.38723 24.5511 9.26685 24.0017L8.77962 21.7463C8.12964 21.4615 7.51332 21.1054 6.94202 20.6844L4.74289 21.3847C4.20658 21.5558 3.62356 21.33 3.34225 20.8424L1.15869 17.0703C0.880458 16.5825 0.976313 15.9671 1.38973 15.587L3.09564 14.0308C3.01807 13.3258 3.01807 12.6144 3.09564 11.9094L1.38973 10.3568C0.975704 9.97652 0.879811 9.36042 1.15869 8.87233L3.33746 5.09778C3.61877 4.61018 4.20179 4.38445 4.73811 4.55548L6.93723 5.2558C7.22941 5.0393 7.53356 4.83947 7.84825 4.65723C8.15033 4.48687 8.46123 4.33263 8.77962 4.19514L9.26805 1.94214C9.38784 1.39262 9.87402 1.00059 10.4364 1H14.794C15.3564 1.00059 15.8426 1.39262 15.9624 1.94214L16.4556 4.19634C16.7918 4.3442 17.1191 4.51128 17.4361 4.69674C17.7321 4.86766 18.0183 5.05511 18.2932 5.25819L20.4935 4.55787C21.0295 4.38748 21.6118 4.61313 21.893 5.10017L24.0718 8.87472C24.35 9.36254 24.2541 9.97789 23.8407 10.358L22.1348 11.9142C22.2124 12.6192 22.2124 13.3306 22.1348 14.0356L23.8407 15.5918C24.2541 15.9719 24.35 16.5873 24.0718 17.0751L21.893 20.8496C21.6118 21.3367 21.0295 21.5623 20.4935 21.3919L18.2932 20.6916C18.0148 20.8967 17.7255 21.0865 17.4265 21.2602C17.1126 21.4421 16.7889 21.6063 16.4568 21.7523L15.9624 24.0017C15.8421 24.5507 15.3561 24.9421 14.794 24.9426ZM12.6104 8.18278C9.96581 8.18278 7.82191 10.3267 7.82191 12.9713C7.82191 15.6159 9.96581 17.7598 12.6104 17.7598C15.2551 17.7598 17.399 15.6159 17.399 12.9713C17.399 10.3267 15.2551 8.18278 12.6104 8.18278Z" stroke="#7D7D7D" stroke-width="2"/>
</svg>
