<svg width="46" height="46" viewBox="0 0 46 46" fill="none" xmlns="http://www.w3.org/2000/svg">
<path d="M0.5 22.7654C0.502618 33.9022 8.55112 43.3846 19.4826 45.13V29.3079H13.7745V22.7654H19.4893V17.7849C19.2339 15.425 20.035 13.0729 21.6755 11.3668C23.3159 9.66059 25.6257 8.7771 27.9783 8.95592C29.6669 8.98336 31.3514 9.13468 33.0181 9.40869V14.9755H30.1742C29.1952 14.8465 28.2108 15.1718 27.4985 15.8599C26.7863 16.548 26.4231 17.5243 26.5113 18.5139V22.7654H32.7459L31.7492 29.3102H26.5113V45.13C38.3335 43.2501 46.6236 32.3863 45.3758 20.4089C44.1281 8.43154 33.7792 -0.466394 21.8266 0.161257C9.87399 0.788908 0.5019 10.7224 0.5 22.7654Z" fill="#FFFCFF"/>
</svg>
