<svg width="375" height="192" viewBox="0 0 375 192" fill="none" xmlns="http://www.w3.org/2000/svg">
<g clip-path="url(#clip0_1501:78)">
<rect width="375" height="192" fill="white"/>
<g clip-path="url(#clip1_1501:78)">
<path d="M291.79 157.79C325.94 147.27 338.92 112.35 358.52 86.13C364.47 78.17 371.29 70.83 379.43 65.09" stroke="black" stroke-width="3" stroke-miterlimit="10"/>
<path d="M2.79004 8.32999C39.68 14.35 63.08 46.09 88.84 69.93C118.28 97.18 151.56 120.24 187.86 137.39C208.69 147.23 231.01 155.74 253.84 159.39" stroke="black" stroke-width="3" stroke-miterlimit="10"/>
<path d="M278.31 146.51C278.4 146.36 278.37 146.18 278.16 146.36C278.15 146.35 278.15 146.35 278.14 146.34C278.09 146.31 278.06 146.3 278.02 146.3C278.02 146.29 278.01 146.29 278.01 146.28C278.01 146.21 277.99 146.15 277.96 146.1C277.97 145.93 277.98 145.76 277.96 145.59C277.94 145.41 277.77 145.31 277.62 145.33C277.57 145.22 277.48 145.15 277.34 145.1C277.22 144.88 276.98 144.75 276.73 144.76C276.67 144.72 276.62 144.68 276.55 144.66C276.46 144.59 276.34 144.57 276.19 144.57C276.01 144.32 275.67 144.23 275.39 144.34C275.25 144.31 275.1 144.32 274.96 144.38C274.93 144.37 274.91 144.35 274.87 144.34C274.79 144.33 274.74 144.35 274.67 144.35H274.66C274.62 144.32 274.6 144.27 274.56 144.24C274.42 144.14 273.92 144.11 274.29 144.15C273.91 144.06 273.68 144.2 273.53 144.42C273.37 144.38 273.24 144.37 273.12 144.41C272.83 144.12 272.28 144.16 272.05 144.5C271.94 144.53 271.83 144.58 271.74 144.67C271.74 144.67 271.74 144.67 271.74 144.68C271.58 144.7 271.41 144.77 271.28 144.93C271.24 144.94 271.21 144.97 271.17 144.99C271.11 144.97 271.04 144.95 270.96 144.95C270.73 144.96 270.54 145.07 270.39 145.22C270.21 145.3 270.04 145.43 269.88 145.59C269.7 145.63 269.52 145.71 269.36 145.83C269.18 145.91 269.04 146.06 268.95 146.24C268.71 146.6 268.64 147.04 269.01 147.41C269.37 147.73 269.77 147.7 270.07 147.51C270.16 147.49 270.24 147.46 270.32 147.42C270.39 147.45 270.45 147.47 270.51 147.48C270.53 147.5 270.54 147.52 270.57 147.54C270.65 147.61 270.74 147.64 270.82 147.67C271.07 147.87 271.39 147.88 271.64 147.7C271.85 147.78 272.06 147.74 272.25 147.61C272.28 147.64 272.31 147.66 272.35 147.69C272.56 148.06 273.12 148.11 273.42 147.83C273.63 147.95 273.88 147.96 274.1 147.85C274.34 147.95 274.62 147.93 274.84 147.71C274.95 147.8 275.08 147.86 275.26 147.86C275.42 147.86 275.54 147.82 275.64 147.75C275.65 147.76 275.66 147.77 275.67 147.77C276.03 147.86 276.26 147.79 276.41 147.64C276.49 147.64 276.57 147.62 276.65 147.59C276.95 147.64 277.21 147.45 277.34 147.19C277.39 147.16 277.44 147.14 277.47 147.09C277.5 147.05 277.52 147 277.54 146.94C277.56 146.92 277.59 146.91 277.61 146.88C277.62 146.86 277.62 146.84 277.63 146.82C277.7 146.8 277.75 146.77 277.8 146.71C277.82 146.7 277.84 146.71 277.87 146.69C277.87 146.69 277.87 146.69 277.87 146.68H277.88C277.89 146.76 277.9 146.83 277.93 146.87C278.03 146.99 278.18 146.86 278.15 146.73C278.15 146.7 278.15 146.66 278.14 146.62C278.17 146.63 278.22 146.62 278.24 146.58C278.25 146.57 278.26 146.56 278.27 146.54C278.29 146.54 278.3 146.53 278.31 146.51Z" fill="#FE4F55"/>
<path d="M273.26 76.28C271.42 76.2 265.39 87.65 266.41 88.5C267.27 89.21 270.19 88.11 273.22 94C273.47 94.49 274.22 94.58 274.5 94.07C274.68 93.57 277.06 89.11 277.45 88.58C278.4 87.32 280.76 86.68 281.02 86.59C282.1 86.26 276 76.4 273.26 76.28Z" fill="#3EDD9D"/>
<path d="M291.21 158.04C291.17 158.01 291.14 158 291.1 157.98C291.08 157.96 291.06 157.93 291.03 157.9C291.02 157.88 291.01 157.86 291 157.84C291.05 157.64 291.01 157.42 290.82 157.21C290.52 156.87 290.18 156.6 289.81 156.35C289.65 156.17 289.49 155.99 289.31 155.83C289.01 155.55 288.67 155.12 288.29 155.08C288.28 155.06 288.27 155.04 288.26 155.03C288.14 154.94 288.05 154.88 287.97 154.83C287.89 154.7 287.76 154.6 287.59 154.56C287.32 154.48 287.04 154.42 286.76 154.38C286.62 154.35 286.47 154.33 286.32 154.32C286.3 154.32 286.28 154.32 286.26 154.31C285.97 154.28 285.67 154.27 285.37 154.28C284.59 154.12 283.76 154.06 283.09 154.46C283.07 154.48 283.07 154.5 283.05 154.53C282.64 154.59 282.25 154.7 281.86 154.85C281.15 155.03 280.37 155.17 279.89 155.71C279.89 155.72 279.89 155.73 279.88 155.73C277.98 156.49 276.27 157.67 275 159.32C274.46 160.06 274 160.38 274.27 161.11C274.3 161.15 274.33 161.17 274.36 161.2C274.37 161.28 274.38 161.35 274.41 161.43C274.49 161.55 274.58 161.62 274.68 161.68C274.24 162.55 273.89 163.45 273.75 164.42C273.99 163.52 274.48 162.56 275.01 161.77C275.37 161.76 275.69 161.43 275.74 161.28C276.03 160.85 276.17 160.66 276.35 160.44C276.45 160.41 276.56 160.37 276.66 160.32C276.73 160.32 276.79 160.34 276.86 160.32C277.59 160.12 278.28 159.83 278.97 159.53C279.12 159.56 279.28 159.55 279.46 159.5C282.77 159.43 286.07 159.4 289.38 159.46C290.1 159.44 290.05 159.58 290.91 159.65H290.92C291.96 159.7 291.88 158.51 291.21 158.04Z" fill="#3EDD9D"/>
<path d="M298.2 161.59C298.17 161.6 298.15 161.6 298.12 161.61C298.16 161.61 298.19 161.61 298.2 161.59Z" fill="#3EDD9D"/>
<path d="M288.76 154.93C288.23 155.34 284.31 158.34 281.93 158.97C281.63 159.05 277.87 159.76 276.67 160.29C276.42 160.12 272.61 164.39 272.61 164.4C272.57 164.5 271.69 170.39 272.03 170.48C273.8 170.35 284.34 167.12 285.81 166.78C290.54 165.71 297.16 160.55 297.33 159.98C297.37 159.79 289.76 154.15 288.76 154.93Z" fill="#3EDD9D"/>
<path d="M271.43 159.07C271.43 159.07 263.93 150.17 252.77 157.04C249.95 158.78 246.84 162.65 246.24 165.16C246.24 165.17 243.79 176.86 243.79 176.87C243.88 177.13 264.08 173.76 264.08 173.76C264.08 173.76 273.48 169.67 273.49 169.67C273.49 169.67 271.6 159.16 271.43 159.07Z" fill="#3EDD9D"/>
<path d="M260.09 187.64C260.38 188.05 260.69 188.43 260.97 188.84C260.78 188.4 260.38 187.9 260.09 187.64Z" fill="#3EDD9D"/>
<path d="M279.94 87.01C279.55 87.22 278.92 87.41 278.71 87.83C278.7 87.64 277.82 88.7 277.61 88.99C277.47 89.15 277.35 89.32 277.22 89.48C277.21 89.49 277.2 89.5 277.18 89.51C276.37 90.35 275.55 91.19 274.84 92.12C274.63 92.35 274.59 92.71 274.74 92.96C274.68 93.04 274.61 93.11 274.55 93.19C274.22 93.57 273.83 94.14 274.28 94.57C274.45 94.74 274.67 94.79 274.89 94.75C274.67 95.05 274.5 95.38 274.39 95.73C274.32 95.85 274.25 95.97 274.18 96.09C274.22 96.04 274.26 96 274.31 95.95C274.31 95.96 274.3 95.96 274.3 95.97C274.31 95.96 274.32 95.94 274.32 95.93C275.92 94.1 277.17 93.48 278.99 91.8C279.23 91.58 279.47 91.37 279.71 91.16C279.99 90.95 280.28 90.74 280.57 90.53C280.64 90.47 280.57 90.52 280.53 90.56C280.69 90.44 280.83 90.32 280.97 90.18C280.99 90.16 280.99 90.17 280.99 90.16C281.06 90.11 281.12 90.07 281.18 90.01C281.25 89.95 281.28 89.92 281.29 89.91C281.51 89.74 282.06 89.36 282.07 88.74C282.09 87.83 281.28 86.6 279.94 87.01Z" fill="black"/>
<path d="M273.21 93.25H273.22C273.18 93.21 273.17 93.19 273.14 93.16C273.13 93.15 273.12 93.14 273.11 93.13C273.1 93.11 273.08 93.1 273.07 93.09C272.95 92.84 272.72 92.61 272.55 92.43C272.53 92.41 272.51 92.39 272.5 92.37C272.44 92.29 272.38 92.2 272.29 92.09C272.26 92.06 272.23 92.05 272.21 92.03C271.97 91.74 271.72 91.45 271.45 91.19C271.31 91.05 271.13 90.9 270.94 90.83C270.73 90.48 270.38 90.12 270.02 90.09H270.01C269.9 90 269.79 89.91 269.68 89.81C269.61 89.68 269.51 89.57 269.34 89.5C269.31 89.49 269.29 89.5 269.26 89.49C268.63 89.04 267.94 88.69 267.16 88.66C266.89 88.62 266.6 88.62 266.32 88.64C266.24 88.54 266.13 88.47 265.95 88.44C265.53 88.41 265.32 88.71 265.17 89.09C264.77 89.26 264.58 89.79 264.66 90.21C264.69 90.3 264.73 90.36 264.77 90.42C264.78 90.52 264.8 90.6 264.83 90.68C264.85 91.08 265.15 91.35 265.5 91.37C265.67 91.55 265.92 91.65 266.16 91.64C266.24 91.68 266.33 91.7 266.43 91.71C266.61 91.93 266.93 92.01 267.2 91.91C267.3 91.95 267.43 91.95 267.57 91.92C267.68 92.1 267.85 92.23 268.15 92.25C268.27 92.23 268.37 92.19 268.46 92.15C268.51 92.14 268.56 92.13 268.6 92.12C268.62 92.12 268.65 92.12 268.68 92.11C268.74 92.15 268.8 92.18 268.86 92.21C268.86 92.21 268.86 92.21 268.87 92.21C268.87 92.21 268.87 92.21 268.88 92.21C268.99 92.27 269.12 92.3 269.25 92.3C269.35 92.37 269.47 92.4 269.59 92.4C269.67 92.48 269.76 92.56 269.88 92.6C269.99 92.63 270.1 92.63 270.2 92.61C270.33 92.68 270.49 92.71 270.63 92.69C270.79 92.88 270.96 93.06 271.16 93.22C271.35 93.34 271.55 93.34 271.73 93.28C271.76 93.3 271.78 93.32 271.81 93.33C272.01 93.54 272.24 93.78 272.48 93.88C272.6 93.97 272.74 94.03 272.9 94.01C272.9 94.01 272.9 94.01 272.91 94.01C273.32 94.06 273.49 93.6 273.21 93.25Z" fill="black"/>
<path d="M239.46 129.79C243.67 131.79 245.54 136.62 248.03 140.57C253.5 149.23 263.69 154.69 273.93 154.44C284.17 154.19 294.09 148.25 299.13 139.34C300.21 137.44 301.08 135.41 302.35 133.62C303.62 131.84 305.39 130.28 307.53 129.84" stroke="black" stroke-miterlimit="10"/>
<path d="M238.91 127.26C240.59 127.01 242.37 127.6 243.56 128.82" stroke="black" stroke-miterlimit="10"/>
<path d="M302.3 129.65C303.51 128.73 304.95 128.11 306.45 127.85" stroke="black" stroke-miterlimit="10"/>
<path d="M273.96 95.13C276.15 93.48 278.35 91.84 280.54 90.19C281.32 89.6 282.2 88.76 281.94 87.81C281.71 87.01 280.7 86.65 279.89 86.87C279.08 87.09 278.46 87.71 277.9 88.32C276.17 90.23 274.66 92.43 274.02 94.92C272.68 92.36 270.5 90.24 267.89 88.98C267.3 88.69 266.66 88.44 266.01 88.5C265.36 88.56 264.7 89.01 264.6 89.66C264.51 90.27 264.95 90.86 265.48 91.17C266.02 91.48 266.64 91.57 267.25 91.71C269.84 92.3 272.24 93.7 273.96 95.13Z" stroke="black" stroke-miterlimit="10"/>
<path d="M265.75 88.45C267.08 84.98 268.7 81.62 270.59 78.42C271.19 77.4 271.96 76.3 273.13 76.13C274.51 75.93 275.66 77.13 276.5 78.25C278.57 81.01 280.39 83.96 281.66 87.11C282.04 84.5 282.42 81.9 282.8 79.29C282.47 79.29 282.14 79.28 281.81 79.28C281.7 81.79 281.59 84.31 281.48 86.82" stroke="black" stroke-miterlimit="10"/>
<path d="M265.4 89C262.16 77.83 256.66 66.52 246.68 60.53C242.99 58.31 238.6 56.91 234.36 57.69C229.37 58.61 225.34 62.44 222.73 66.79C217.5 75.53 217.11 86.59 220.04 96.35C221.6 101.51 224.14 106.55 228.3 109.99C232.46 113.42 238.44 114.97 243.41 112.89C244.69 112.35 246.32 111.65 247.31 112.62C248.03 113.33 247.89 114.5 247.68 115.49C246.84 119.24 245.36 122.38 243.57 125.78" stroke="black" stroke-miterlimit="10"/>
<path d="M236.49 59.71C242.84 61.05 248.58 65.09 251.98 70.62C255.38 76.15 256.4 83.09 254.74 89.36C253.94 92.38 252.54 95.58 253.67 98.5" stroke="black" stroke-miterlimit="10"/>
<path d="M281.59 89C284.83 77.83 290.33 66.52 300.31 60.53C304 58.31 308.39 56.91 312.63 57.69C317.62 58.61 321.65 62.44 324.26 66.79C329.49 75.53 329.88 86.59 326.95 96.35C325.39 101.51 322.85 106.55 318.69 109.99C314.53 113.42 308.55 114.97 303.58 112.89C302.3 112.35 300.67 111.65 299.68 112.62C298.96 113.33 299.1 114.5 299.31 115.49C300.15 119.24 301.48 122.88 303.27 126.28" stroke="black" stroke-miterlimit="10"/>
<path d="M310.5 59.71C304.15 61.05 298.41 65.09 295.01 70.62C291.61 76.15 290.59 83.09 292.25 89.36C293.05 92.38 294.45 95.58 293.32 98.5" stroke="black" stroke-miterlimit="10"/>
<path d="M292.59 114.78C292.24 113.24 291.38 111.57 289.7 111.23C288.62 111.07 287.59 111.66 286.64 112.11C287.51 111.91 288.47 111.61 289.31 111.65C290.71 111.91 291.62 113.02 292.27 114.36C292.39 114.59 292.6 115.03 292.71 115.13C292.67 115.01 292.62 114.9 292.59 114.78Z" fill="black"/>
<path d="M287.23 128.38C288.473 128.38 289.48 126.925 289.48 125.13C289.48 123.335 288.473 121.88 287.23 121.88C285.987 121.88 284.98 123.335 284.98 125.13C284.98 126.925 285.987 128.38 287.23 128.38Z" fill="black"/>
<path d="M254.61 114.78C254.96 113.24 255.82 111.57 257.5 111.23C258.58 111.07 259.61 111.66 260.56 112.11C259.69 111.91 258.73 111.61 257.89 111.65C256.49 111.91 255.58 113.02 254.93 114.36C254.81 114.59 254.6 115.03 254.49 115.13C254.53 115.01 254.58 114.9 254.61 114.78Z" fill="black"/>
<path d="M259.96 128.38C261.203 128.38 262.21 126.925 262.21 125.13C262.21 123.335 261.203 121.88 259.96 121.88C258.717 121.88 257.71 123.335 257.71 125.13C257.71 126.925 258.717 128.38 259.96 128.38Z" fill="black"/>
<path d="M272.09 135.33C272.77 135.38 275.05 135.1 276.61 135.83C276.86 136.1 276.91 136.5 276.78 136.83C276.59 137.24 276.09 137.53 275.7 137.81C275.2 138.16 274.06 139 273.47 139.34C272.96 139.58 271.74 135.55 272.09 135.33Z" fill="black"/>
<path d="M274.38 135.33C273.7 135.38 271.42 135.1 269.86 135.83C269.61 136.1 269.56 136.5 269.69 136.83C269.88 137.24 270.38 137.53 270.77 137.81C271.27 138.16 272.41 139 273 139.34C273.51 139.58 274.73 135.55 274.38 135.33Z" fill="black"/>
<path d="M279.48 146.79C280.13 146.19 280.21 145.13 280.03 144.64C279.79 144.19 279.5 143.83 279.17 143.5C276.97 141.28 273.66 140.81 273.47 140.78C273.47 140.78 273.47 140.78 273.47 140.77C273.47 140.35 273.5 139.27 273.5 139.27C273.5 139.27 273.43 139.24 273.36 139.21C273.36 139.19 273.36 139.16 273.36 139.16C273.36 139.16 273.33 139.17 273.3 139.18C273.27 139.17 273.24 139.16 273.24 139.16C273.24 139.16 273.24 139.18 273.24 139.21C273.17 139.24 273.1 139.27 273.1 139.27C273.1 139.27 273.13 140.39 273.13 140.82C273.13 140.86 269.34 143.01 268.7 143.56C268.12 144.06 267.46 145.28 267.7 146.28C267.85 146.89 268.15 147.15 268.35 147.31C268.51 147.44 268.84 147.64 268.85 147.65C269.07 147.81 271.1 148.31 271.85 148.37C273.53 148.5 276.45 148.25 276.71 148.13C277.55 147.88 278.41 147.58 278.81 147.31L279.48 146.79ZM276.36 147.04C275.7 147.08 273.78 147.28 272.67 147.26C272 147.26 269.53 146.92 269.45 146.88C270.07 145.07 273.5 144.73 273.57 144.73C276.34 144.61 277.88 146.16 278.16 146.51C278.14 146.51 276.45 147.04 276.36 147.04Z" fill="black"/>
<path d="M273.24 165.53C273.24 165.53 272.54 160.25 271.08 158.5C269.62 156.75 267.55 155.56 265.38 154.75C263.61 154.09 261.65 153.67 259.84 154.2C257.32 154.94 255.74 157.29 254.36 159.47C257.1 159.32 259.84 159.18 262.58 159.03C264.56 158.92 266.63 158.83 268.46 159.58C270.92 160.59 273 168.65 273 171.24L273.24 165.53Z" stroke="black" stroke-miterlimit="10"/>
<path d="M258.21 154.83C255.59 154.36 248.63 159.24 247.71 161.69" stroke="black" stroke-miterlimit="10"/>
<path d="M273.23 165.53C273.23 165.53 273.93 160.25 275.39 158.5C276.85 156.75 278.92 155.56 281.09 154.75C282.86 154.09 284.82 153.67 286.63 154.2C289.15 154.94 290.73 157.29 292.11 159.47C289.37 159.32 286.63 159.18 283.89 159.03C281.91 158.92 279.84 158.83 278.01 159.58C275.55 160.59 273.47 168.65 273.47 171.24L273.23 165.53Z" stroke="black" stroke-miterlimit="10"/>
<path d="M288.26 154.83C290.88 154.36 297.84 159.24 298.76 161.69" stroke="black" stroke-miterlimit="10"/>
<path d="M247.76 161.56C246.19 164.74 245 170.16 245 170.16L243.89 175.23L243.54 177.8" stroke="black" stroke-miterlimit="10"/>
<path d="M-1.18994 70.13C30.4301 69.85 56.4901 90.23 80.0701 108.87C106.37 129.66 133.63 149.96 164.57 163.37C196 176.99 232.28 184.37 265.41 173.68C280.17 168.92 292.83 166.64 304.94 155.35C317.51 143.62 328.87 123.09 335.33 107.37C344.75 84.44 353.13 57.96 373.72 42.34C376.09 40.54 378.61 38.94 381.26 37.58" stroke="#3EDD9D" stroke-width="3" stroke-miterlimit="10"/>
<path d="M0.98999 40.17C28.87 44.02 53.66 58.93 75.53 75.91C98.62 93.83 119.58 114.44 143.96 130.69C168.6 147.12 196.53 158.73 225.42 165.14C252.49 171.14 282.57 174.63 309.52 166.34C322.73 162.27 333.5 154.97 342.87 144.9C351.5 135.62 358.74 124.66 369.79 117.98C372.4 116.4 375.19 115.11 378.12 114.23" stroke="#FDBF31" stroke-width="3" stroke-miterlimit="10"/>
<path d="M318.982 41.1079L323.402 42.1371L323.501 41.7117C323.929 39.8751 324.892 39.1696 326.676 38.6005C328.941 37.8919 330.609 36.6943 331.186 34.2145C332.063 30.448 329.435 27.692 325.16 26.6966C321.258 25.7882 317.59 26.9795 316.513 31.3229L321.286 32.4342C321.653 30.9992 322.956 30.3837 324.19 30.6712C325.415 30.9563 326.199 32.0031 325.912 33.2379C325.617 34.5037 324.443 35.0835 322.953 35.6116C321.056 36.2858 319.91 37.1675 319.081 40.6824L318.982 41.1079ZM319.69 48.4483C321.112 48.7793 322.647 47.8681 323.016 46.3788C323.338 44.9006 322.361 43.415 320.939 43.084C319.445 42.7361 317.943 43.6443 317.621 45.1225C317.252 46.6118 318.196 48.1004 319.69 48.4483Z" fill="black"/>
<path d="M274.037 30.3203H278.575V29.8835C278.575 27.9979 279.353 27.0923 280.962 26.1335C283.007 24.9297 284.36 23.3849 284.36 20.8388C284.36 16.9716 281.175 14.8835 276.786 14.8835C272.78 14.8835 269.477 16.8757 269.413 21.3501H274.314C274.346 19.8693 275.475 18.9744 276.743 18.9744C278 18.9744 279.002 19.8161 279.002 21.0838C279.002 22.3835 277.989 23.2145 276.658 24.0668C274.964 25.1534 274.048 26.272 274.037 29.8835V30.3203ZM276.391 37.3089C277.851 37.3089 279.14 36.0732 279.161 34.5391C279.14 33.0263 277.851 31.8011 276.391 31.8011C274.857 31.8011 273.6 33.0263 273.622 34.5391C273.6 36.0732 274.857 37.3089 276.391 37.3089Z" fill="black"/>
<path d="M233.899 42.1674L238.112 40.481L237.95 40.0755C237.249 38.3249 237.635 37.1952 238.772 35.7073C240.224 33.8295 240.906 31.8927 239.96 29.5288C238.522 25.9385 234.789 25.1836 230.714 26.8146C226.996 28.3031 224.67 31.3799 226.273 35.5577L230.823 33.7366C230.302 32.35 231.018 31.0995 232.195 30.6285C233.362 30.1613 234.605 30.5706 235.076 31.7475C235.559 32.9542 234.928 34.1017 234.008 35.3878C232.839 37.0261 232.404 38.4051 233.737 41.7619L233.899 42.1674ZM238.682 47.7808C240.037 47.2384 240.774 45.6121 240.224 44.18C239.642 42.7834 237.99 42.125 236.635 42.6673C235.211 43.2374 234.499 44.842 235.081 46.2385C235.631 47.6707 237.257 48.3508 238.682 47.7808Z" fill="black"/>
</g>
</g>
<defs>
<clipPath id="clip0_1501:78">
<rect width="375" height="192" fill="white"/>
</clipPath>
<clipPath id="clip1_1501:78">
<rect width="375" height="667" fill="white" transform="translate(2 -21)"/>
</clipPath>
</defs>
</svg>
