<svg width="39" height="39" viewBox="0 0 39 39" fill="none" xmlns="http://www.w3.org/2000/svg">
<rect width="39" height="39" rx="15" fill="#FFB700"/>
<path d="M9.85242 18.4224C9.85242 29.3728 9.85242 31.2773 19.4936 31.2773C29.1347 31.2773 29.1347 29.3728 29.1347 18.4224" stroke="white" stroke-width="2" stroke-linecap="round" stroke-linejoin="round"/>
<path d="M19.4937 10.3881C19.4937 8.91095 18.2947 7.70999 16.8156 7.70999C15.3365 7.70999 14.1375 8.90902 14.1375 10.3881C14.1375 11.8672 15.3365 13.0662 16.8156 13.0662H19.4937M19.4937 10.3881C19.4937 11.4339 19.4937 13.0662 19.4937 13.0662M19.4937 10.3881C19.4937 8.91095 20.6927 7.70999 22.1718 7.70999C23.6509 7.70999 24.8499 8.90902 24.8499 10.3881C24.8499 11.8672 23.5801 13.0662 22.1718 13.0662C20.8327 13.0662 19.4937 13.0662 19.4937 13.0662M19.4937 13.0662V31.2772M19.4937 13.0662C19.4937 13.0662 25.921 13.0662 28.0635 13.0662C30.206 13.0662 31.2772 13.6018 31.2772 15.7443C31.2772 17.8868 30.206 18.4224 28.0635 18.4224C25.921 18.4224 11.9949 18.4224 10.3881 18.4224C8.7812 18.4224 7.70996 17.8868 7.70996 15.7443C7.70996 13.6018 8.65509 13.0662 10.3881 13.0662C12.121 13.0662 19.4937 13.0662 19.4937 13.0662Z" stroke="white" stroke-width="2" stroke-linecap="round" stroke-linejoin="round"/>
</svg>
