<svg width="331" height="175" viewBox="0 0 331 175" fill="none" xmlns="http://www.w3.org/2000/svg">
<rect x="1" y="0.5" width="329" height="174" rx="29.5" fill="#FBC029" fill-opacity="0.85" stroke="#E6A300"/>
<mask id="path-2-inside-1_2702_5" fill="white">
<path fill-rule="evenodd" clip-rule="evenodd" d="M256.94 175C227.636 157.564 208 125.575 208 89C208 50.2144 230.081 16.586 262.358 0H30.5C13.9315 0 0.5 13.4315 0.5 30V145C0.5 161.569 13.9314 175 30.5 175H256.94ZM30.5 0C13.9315 0 0.5 13.4315 0.5 30V145C0.5 157.39 8.01113 168.026 18.7284 172.602C25.825 153.723 83.9039 139 154.5 139C228.058 139 288.027 154.985 290.893 175H300.5C317.069 175 330.5 161.569 330.5 145V30C330.5 13.4315 317.069 0 300.5 0H30.5Z"/>
</mask>
<path fill-rule="evenodd" clip-rule="evenodd" d="M256.94 175C227.636 157.564 208 125.575 208 89C208 50.2144 230.081 16.586 262.358 0H30.5C13.9315 0 0.5 13.4315 0.5 30V145C0.5 161.569 13.9314 175 30.5 175H256.94ZM30.5 0C13.9315 0 0.5 13.4315 0.5 30V145C0.5 157.39 8.01113 168.026 18.7284 172.602C25.825 153.723 83.9039 139 154.5 139C228.058 139 288.027 154.985 290.893 175H300.5C317.069 175 330.5 161.569 330.5 145V30C330.5 13.4315 317.069 0 300.5 0H30.5Z" fill="#FFBD13"/>
<path d="M256.94 175V176H260.577L257.452 174.141L256.94 175ZM262.358 0L262.815 0.889439L262.358 -1V0ZM18.7284 172.602L18.3357 173.522L19.2967 173.932L19.6644 172.954L18.7284 172.602ZM290.893 175L289.903 175.142L290.026 176H290.893V175ZM257.452 174.141C228.437 156.877 209 125.208 209 89H207C207 125.942 226.834 158.25 256.429 175.859L257.452 174.141ZM209 89C209 50.6036 230.858 17.3108 262.815 0.889439L261.901 -0.889439C229.304 15.8611 207 49.8251 207 89H209ZM30.5 1H262.358V-1H30.5V1ZM1.5 30C1.5 13.9837 14.4837 1 30.5 1V-1C13.3792 -1 -0.5 12.8792 -0.5 30H1.5ZM1.5 145V30H-0.5V145H1.5ZM30.5 174C14.4837 174 1.5 161.016 1.5 145H-0.5C-0.5 162.121 13.3792 176 30.5 176V174ZM256.94 174H30.5V176H256.94V174ZM1.5 30C1.5 13.9837 14.4837 1 30.5 1V-1C13.3792 -1 -0.5 12.8792 -0.5 30H1.5ZM1.5 145V30H-0.5V145H1.5ZM19.1211 171.683C8.75906 167.258 1.5 156.976 1.5 145H-0.5C-0.5 157.805 7.26319 168.794 18.3357 173.522L19.1211 171.683ZM19.6644 172.954C21.3069 168.585 25.9935 164.273 33.4806 160.269C40.9279 156.287 50.9733 152.701 63.0438 149.692C87.1783 143.675 119.263 140 154.5 140V138C119.141 138 86.8881 141.686 62.56 147.751C50.3992 150.783 40.1819 154.418 32.5374 158.506C24.9326 162.572 19.6982 167.18 17.7923 172.251L19.6644 172.954ZM154.5 140C191.217 140 224.509 143.99 248.95 150.461C261.176 153.698 271.139 157.543 278.201 161.788C285.309 166.061 289.253 170.602 289.903 175.142L291.883 174.858C291.1 169.39 286.473 164.427 279.232 160.074C271.945 155.693 261.781 151.789 249.462 148.528C224.813 142.002 191.342 138 154.5 138V140ZM300.5 174H290.893V176H300.5V174ZM329.5 145C329.5 161.016 316.516 174 300.5 174V176C317.621 176 331.5 162.121 331.5 145H329.5ZM329.5 30V145H331.5V30H329.5ZM300.5 1C316.516 1 329.5 13.9837 329.5 30H331.5C331.5 12.8792 317.621 -1 300.5 -1V1ZM30.5 1H300.5V-1H30.5V1Z" fill="#E5A300" mask="url(#path-2-inside-1_2702_5)"/>
</svg>
