<svg width="34" height="35" viewBox="0 0 34 35" fill="none" xmlns="http://www.w3.org/2000/svg">
<path d="M17.4175 14.5475V21.0181H26.4025C25.5663 25.13 22.0656 27.4925 17.4175 27.4925C12.0035 27.418 7.65376 23.0079 7.65376 17.5934C7.65376 12.179 12.0035 7.7689 17.4175 7.69438C19.6679 7.69169 21.849 8.47265 23.5863 9.90314L28.4613 5.02814C22.8693 0.112015 14.7025 -0.520297 8.42044 3.47647C2.13835 7.47324 -0.749312 15.1385 1.33423 22.2868C3.41778 29.4351 9.9718 34.3483 17.4175 34.3438C25.7931 34.3438 33.4094 28.2519 33.4094 17.5925C33.3965 16.5662 33.2707 15.5444 33.0344 14.5456L17.4175 14.5475Z" fill="white"/>
</svg>
