<svg width="21" height="24" viewBox="0 0 21 24" fill="none" xmlns="http://www.w3.org/2000/svg">
<path d="M19.3691 24H1.29127C0.578123 24 0 23.4219 0 22.7087V10.257C0.0200034 9.94053 0.154487 9.64218 0.378343 9.41764L9.41726 0.378714C9.65947 0.136242 9.98812 0 10.3308 0C10.6736 0 11.0022 0.136242 11.2444 0.378714L20.2833 9.41764C20.5258 9.65947 20.6615 9.98814 20.6604 10.3306V22.7087C20.6604 23.4219 20.0823 24 19.3691 24ZM10.3302 3.11751L2.58255 10.8652V21.4174H18.0778V10.8652L10.3302 3.11751ZM10.3302 18.8336C10.0616 18.5947 9.75816 18.3455 9.43663 18.0821L9.37594 18.033C7.88194 16.8141 6.01863 15.2968 6.01863 13.4103C6.01883 12.7852 6.27076 12.1866 6.71757 11.7495C7.16437 11.3124 7.76839 11.0737 8.39328 11.0873C9.13215 11.0853 9.83676 11.3986 10.3302 11.9485C10.8237 11.3987 11.5283 11.0854 12.2671 11.0873C12.8913 11.0751 13.4942 11.3146 13.9399 11.7518C14.3856 12.189 14.6367 12.7872 14.6366 13.4115C14.6366 15.3046 12.7617 16.8321 11.256 18.0601L11.1824 18.1208C10.8764 18.3713 10.5872 18.6076 10.3289 18.8362L10.3302 18.8336Z" fill="#7D7D7D"/>
</svg>
