<svg width="375" height="667" viewBox="0 0 375 667" fill="none" xmlns="http://www.w3.org/2000/svg">
<rect width="375" height="667" fill="white"/>
<g clip-path="url(#clip0_2:6)">
<path d="M-0.5 250.6C13 248 26 241 36 232C58 210 61 179 59 149C56 121 51 93 54 65C57 43 66 22 86 9C116 -9 158 2 174 34C186 58 189 89 215 104C233 114 252 114 271 116C295 118 320 113 344 114C362 115 380 118 394 130C395 132 397 133 399 135C401 137 402 140 404 142C412 156 414 172 412 188C410 209 391 223 373 232C353 242 331 246 308 241C252 230 198 210 144 231C120 241 95 259 94 287C94 293 96 299 99 305C102 309 105 312 108 315C111 318 115 319 118 320C141 331 166 331 190 340C198 343 207 346 215 350C229 357 242 365 255 374C279 389 311 398 334 378C346 362 350 343 359 326C375 299 405 282 436.59 283.63" stroke="#FBC029" stroke-width="2" stroke-miterlimit="10"/>
<path d="M-46.1 239.13C-20 253.24 14.45 237.3 29.74 211.88C45.03 186.46 45.61 154.96 43.16 125.39C40.71 95.82 35.69 65.85 41.38 36.73C47.07 7.60999 66.65 -21.28 95.71 -27.23C115.52 -31.28 136.6 -23.77 151.69 -10.32C166.78 3.12999 176.35 21.92 181.72 41.41C184.93 53.06 186.78 65.13 191.21 76.38C195.63 87.63 203.18 98.34 214.28 103.12C232.69 111.05 253.91 100.33 268.68 86.79C283.46 73.25 295.87 56.26 314.05 47.82C334.17 38.48 358.88 41.69 377.59 53.6C396.31 65.51 409.26 85.23 415.66 106.47C421.13 124.62 422 144.76 414.46 162.15C400.42 194.53 362.14 208.75 327.07 212.72C298.78 215.92 270.15 214.7 241.81 217.46C213.47 220.22 184.55 227.44 162.3 245.19C151.1 254.13 141.3 268.75 146.65 282.04C152.56 296.73 171.69 299.21 187.18 302.51C203.86 306.06 219.78 313.15 233.58 323.16C250.72 335.59 264.78 352.52 283.86 361.69C315.34 376.82 354.25 366.99 382.33 346.23C410.41 325.47 429.96 295.45 448.88 266.1" stroke="#3EDD9D" stroke-width="2" stroke-miterlimit="10"/>
<path d="M-27.44 215.56C-10.81 223.99 10.55 218.23 23.95 205.27C37.35 192.31 43.81 173.6 46.13 155.11C48.45 136.62 47.09 117.88 47.25 99.24C47.49 72.24 51.1 44.76 62.79 20.42C74.48 -3.91999 95.12 -24.86 121.06 -32.35C147 -39.84 177.97 -31.6 193.37 -9.42999C213 18.83 204.85 61.71 229.26 85.98C240.94 97.59 257.8 102.22 274.09 104.65C290.38 107.07 307.14 107.79 322.59 113.5C338.04 119.2 352.47 131.29 355.26 147.52C357.54 160.79 351.48 174.54 341.88 183.98C332.28 193.42 319.55 199.06 306.63 202.83C278.04 211.17 247.78 211.21 218 211.05C188.22 210.89 157.99 210.68 129.28 218.55C100.57 226.42 73.02 243.61 59.56 270.18C46.1 296.75 50.52 333.21 74.35 351.08C97.65 368.56 130.21 364.25 158.65 357.95C187.09 351.65 218.29 344.48 244.15 357.89C274.81 373.78 288.38 414.27 320.93 425.81C346 434.69 374.65 422.4 392.63 402.79C410.61 383.18 420.19 357.52 429.37 332.55" stroke="black" stroke-width="2" stroke-miterlimit="10"/>
<path d="M219.207 29C218.626 29 218.055 29.0432 217.491 29.1195C216.904 29.041 216.346 29 215.793 29C211.604 29 207.827 31.0318 205.176 34.2709C205.149 34.2948 205.13 34.3232 205.109 34.3517C204.264 35.398 203.538 36.5695 202.95 37.8372C202.936 37.8651 202.923 37.8924 202.912 37.9225C202.507 38.8084 202.17 39.7392 201.91 40.7087C201.885 40.7634 201.873 40.8231 201.866 40.8851C201.49 42.3508 201.284 43.8984 201.284 45.5C201.284 48.0057 201.781 50.3812 202.663 52.5102C202.671 52.533 202.678 52.5546 202.689 52.5762C203.218 53.8382 203.884 55.0114 204.665 56.0725C204.685 56.0998 204.702 56.1288 204.726 56.1522C205.517 57.2133 206.423 58.1583 207.423 58.964C207.452 58.9953 207.486 59.0186 207.521 59.0431C209.869 60.9047 212.72 62 215.793 62C216.346 62 216.904 61.959 217.491 61.8805C218.055 61.9568 218.626 62 219.207 62C227.207 62 233.716 54.5983 233.716 45.5C233.716 36.4017 227.207 29 219.207 29ZM213.199 30.4873C213.01 30.5851 212.824 30.6876 212.64 30.7939C212.537 30.8537 212.434 30.9112 212.333 30.9737C212.175 31.0705 212.021 31.1729 211.867 31.2759H210.772C211.604 30.8867 212.472 30.58 213.377 30.3894C213.316 30.4196 213.259 30.456 213.199 30.4873ZM207.463 55.1724H205.423C204.921 54.4635 204.476 53.7016 204.089 52.8966H206.244C206.333 53.098 206.425 53.2977 206.521 53.4945C206.563 53.5793 206.606 53.6629 206.649 53.7472C206.766 53.9759 206.887 54.2006 207.012 54.4219C207.059 54.5044 207.104 54.5881 207.152 54.67C207.252 54.8401 207.358 55.0063 207.463 55.1724ZM203.827 38.6724H206.004C205.904 38.9211 205.81 39.1725 205.721 39.4274C205.696 39.498 205.671 39.568 205.647 39.6385C205.565 39.8832 205.489 40.1301 205.417 40.3793H203.195C203.375 39.7927 203.587 39.2237 203.827 38.6724ZM202.422 45.5C202.422 45.1165 202.443 44.7387 202.467 44.3621H204.735C204.735 44.3712 204.735 44.3803 204.734 44.3894C204.713 44.7569 204.698 45.1262 204.698 45.5C204.698 45.6906 204.705 45.8795 204.711 46.069H202.445C202.438 45.8789 202.422 45.6917 202.422 45.5ZM204.776 47.2069C204.797 47.4464 204.825 47.6843 204.856 47.9209C204.858 47.938 204.859 47.9557 204.862 47.9733C204.904 48.2896 204.955 48.6031 205.012 48.9138H202.768C202.657 48.3551 202.57 47.7867 202.513 47.2069H204.776ZM205.128 41.5172C205.114 41.5844 205.101 41.6527 205.087 41.7198C205.072 41.7949 205.056 41.8694 205.041 41.9445C204.972 42.3013 204.911 42.6614 204.862 43.0267C204.86 43.0438 204.859 43.0614 204.856 43.0791C204.85 43.1274 204.846 43.1758 204.839 43.2241H202.581C202.656 42.6449 202.751 42.0737 202.882 41.5172H205.128ZM205.264 50.0517C205.282 50.1211 205.299 50.1917 205.317 50.2605C205.324 50.2856 205.329 50.3117 205.336 50.3368C205.43 50.6833 205.535 51.0241 205.648 51.3609C205.672 51.432 205.697 51.5014 205.721 51.572C205.742 51.6346 205.763 51.6972 205.786 51.7586H203.593C203.378 51.2062 203.192 50.6361 203.034 50.0517H205.264ZM207.152 36.3306C207.104 36.4119 207.058 36.4961 207.012 36.5786C206.886 36.7999 206.765 37.0253 206.649 37.2534C206.606 37.3376 206.562 37.4207 206.521 37.506C206.516 37.5151 206.511 37.5248 206.506 37.5345H204.373C204.804 36.7226 205.3 35.963 205.85 35.2586H207.844C207.774 35.3582 207.704 35.4572 207.636 35.5585C207.469 35.8105 207.307 36.0677 207.152 36.3306ZM208.813 32.4138H210.385C210.243 32.5373 210.102 32.6613 209.965 32.7904C209.851 32.8986 209.74 33.0106 209.628 33.1227C209.516 33.2359 209.404 33.3509 209.295 33.4675C209.19 33.5796 209.084 33.6911 208.982 33.8066C208.891 33.909 208.804 34.0154 208.716 34.1207H206.837C207.448 33.4852 208.108 32.9122 208.813 32.4138ZM206.305 56.3103H208.258C208.322 56.3946 208.386 56.4788 208.452 56.5613C208.624 56.7775 208.801 56.988 208.982 57.1934C209.084 57.3089 209.19 57.4204 209.295 57.5325C209.405 57.6497 209.516 57.7646 209.63 57.8778C209.675 57.9234 209.718 57.9723 209.764 58.0172H208.053C207.428 57.5057 206.843 56.9345 206.305 56.3103ZM213.377 60.6106C212.072 60.3358 210.839 59.8317 209.696 59.1552H211.072C211.145 59.2115 211.22 59.2644 211.293 59.319C211.411 59.4067 211.529 59.4948 211.649 59.5785C211.872 59.7344 212.101 59.884 212.332 60.0263C212.433 60.0883 212.537 60.1463 212.64 60.2061C212.824 60.3124 213.01 60.4149 213.198 60.5127C213.259 60.544 213.316 60.5804 213.377 60.6106ZM219.207 60.8621C218.755 60.8621 218.308 60.8353 217.868 60.7847L217.647 60.754C217.617 60.75 217.586 60.7449 217.556 60.7409C217.359 60.713 217.164 60.6806 216.971 60.643C216.954 60.6396 216.938 60.6362 216.923 60.6328C216.734 60.5958 216.548 60.5543 216.363 60.5082C216.335 60.5013 216.307 60.4934 216.279 60.486C216.107 60.4416 215.935 60.3949 215.765 60.3432C215.713 60.3272 215.662 60.309 215.61 60.2925C215.465 60.2464 215.32 60.1992 215.177 60.1474C215.061 60.1053 214.947 60.0587 214.833 60.0132C214.755 59.9824 214.676 59.9534 214.599 59.921C211.54 58.6266 209.003 56.0816 207.459 52.8283C207.445 52.7987 207.432 52.7674 207.418 52.7378C207.335 52.5609 207.255 52.3822 207.178 52.2013C207.148 52.129 207.119 52.0556 207.09 51.9828C207.032 51.8417 206.975 51.7 206.922 51.5566C206.887 51.4645 206.855 51.3706 206.822 51.2773C206.777 51.151 206.732 51.0241 206.691 50.8961C206.657 50.7914 206.624 50.6856 206.592 50.5803C206.555 50.4602 206.519 50.3396 206.485 50.2184C206.453 50.1075 206.423 49.9948 206.394 49.8827C206.363 49.7638 206.333 49.6438 206.305 49.5237C206.278 49.4088 206.252 49.2939 206.227 49.1778C206.2 49.0566 206.176 48.9348 206.153 48.8125C206.131 48.6959 206.109 48.5792 206.088 48.4615C206.067 48.3357 206.048 48.2094 206.029 48.0825C206.012 47.9676 205.994 47.8532 205.98 47.7372C205.962 47.6006 205.948 47.4624 205.934 47.3247C205.923 47.2171 205.91 47.1102 205.901 47.0021C205.887 46.8439 205.878 46.6846 205.869 46.5247C205.864 46.4348 205.857 46.3461 205.853 46.2562C205.842 46.0058 205.836 45.7538 205.836 45.5C205.836 45.2462 205.842 44.9942 205.853 44.7433C205.857 44.6534 205.864 44.5641 205.869 44.4747C205.878 44.3154 205.887 44.1555 205.901 43.9974C205.91 43.8893 205.923 43.7823 205.934 43.6748C205.948 43.5371 205.963 43.3994 205.98 43.2623C205.994 43.1468 206.012 43.0318 206.029 42.9169C206.048 42.79 206.067 42.6637 206.088 42.538C206.108 42.4202 206.13 42.3036 206.153 42.1869C206.176 42.0646 206.201 41.9428 206.227 41.8216C206.252 41.7056 206.278 41.5906 206.305 41.4757C206.333 41.3557 206.363 41.2356 206.394 41.1167C206.423 41.004 206.453 40.8919 206.484 40.7804C206.518 40.6592 206.554 40.5386 206.591 40.4186C206.624 40.3127 206.656 40.2075 206.69 40.1028C206.732 39.9748 206.777 39.8479 206.822 39.721C206.855 39.6277 206.887 39.5344 206.922 39.4422C206.976 39.2988 207.032 39.1572 207.09 39.0161C207.119 38.9432 207.148 38.8698 207.178 38.7976C207.255 38.6167 207.335 38.438 207.418 38.2611C207.432 38.2309 207.445 38.2002 207.459 38.1706C209.003 34.9172 211.54 32.3728 214.599 31.0779C214.676 31.0454 214.755 31.0164 214.833 30.9857C214.947 30.9402 215.061 30.8935 215.177 30.8514C215.32 30.7996 215.465 30.753 215.61 30.7063C215.662 30.6898 215.713 30.6716 215.765 30.6557C215.935 30.6039 216.107 30.5567 216.279 30.5129C216.306 30.5066 216.334 30.4981 216.362 30.4913C216.547 30.4452 216.734 30.4042 216.922 30.3667C216.938 30.3632 216.954 30.3598 216.97 30.3564C217.164 30.3189 217.359 30.2864 217.556 30.2586C217.586 30.254 217.617 30.2494 217.647 30.2455L217.867 30.2147C218.308 30.1647 218.755 30.1379 219.207 30.1379C226.58 30.1379 232.578 37.0292 232.578 45.5C232.578 53.9708 226.58 60.8621 219.207 60.8621Z" fill="black"/>
<path d="M209.061 45.5C209.061 45.1421 209.075 44.7825 209.103 44.4309C209.127 44.118 208.894 43.8437 208.58 43.8187C208.266 43.796 207.993 44.0281 207.968 44.341C207.938 44.7217 207.923 45.112 207.923 45.5V45.512C207.923 45.826 208.178 46.0747 208.492 46.0747C208.806 46.0747 209.061 45.8141 209.061 45.5Z" fill="black"/>
<path d="M228.956 42.2523C229.02 42.5106 229.252 42.6825 229.507 42.6825C229.553 42.6825 229.6 42.6768 229.646 42.6654C229.951 42.5886 230.136 42.2796 230.059 41.9747C229.964 41.5946 229.852 41.2157 229.725 40.8481C229.624 40.5511 229.3 40.3912 229.003 40.4942C228.706 40.5961 228.547 40.9198 228.649 41.2168C228.764 41.5542 228.867 41.903 228.956 42.2523Z" fill="black"/>
<path d="M226.616 53.4763C226.388 53.7562 226.148 54.0242 225.901 54.274C225.679 54.497 225.681 54.8572 225.904 55.0785C226.015 55.1883 226.16 55.2435 226.305 55.2435C226.451 55.2435 226.598 55.1872 226.709 55.0751C226.982 54.7992 227.248 54.5027 227.499 54.1943C227.698 53.9503 227.66 53.5918 227.417 53.3938C227.173 53.1952 226.815 53.2328 226.616 53.4763Z" fill="black"/>
<path d="M209.453 48.7254C209.377 48.4205 209.067 48.2339 208.763 48.3107C208.458 48.3863 208.273 48.6953 208.348 49.0003C208.443 49.3798 208.554 49.7593 208.68 50.1279C208.761 50.3646 208.981 50.5137 209.218 50.5137C209.279 50.5137 209.341 50.5035 209.402 50.483C209.699 50.3817 209.858 50.0585 209.757 49.761C209.642 49.423 209.54 49.0742 209.453 48.7254Z" fill="black"/>
<path d="M224.816 34.3762C224.483 34.1594 224.136 33.9597 223.785 33.7827C223.504 33.6405 223.162 33.7549 223.021 34.0342C222.879 34.3147 222.992 34.6572 223.272 34.7983C223.587 34.9571 223.897 35.1357 224.194 35.3298C224.29 35.3923 224.398 35.4219 224.505 35.4219C224.691 35.4219 224.873 35.3309 224.982 35.1636C225.153 34.9008 225.079 34.548 224.816 34.3762Z" fill="black"/>
<path d="M223.334 56.1698C223.018 56.332 222.691 56.4771 222.364 56.6005C222.069 56.7109 221.921 57.0392 222.032 57.3334C222.118 57.5615 222.334 57.702 222.564 57.702C222.631 57.702 222.699 57.6901 222.765 57.6651C223.133 57.5262 223.5 57.3641 223.854 57.182C224.134 57.0386 224.245 56.6955 224.101 56.4162C223.957 56.1368 223.614 56.0259 223.334 56.1698Z" fill="black"/>
<path d="M228.157 37.6921C227.935 37.3649 227.698 37.0469 227.449 36.7459C227.25 36.5035 226.891 36.4683 226.648 36.6685C226.406 36.8682 226.371 37.2267 226.571 37.4696C226.796 37.7433 227.013 38.0329 227.214 38.3299C227.324 38.4926 227.503 38.5797 227.686 38.5797C227.795 38.5797 227.906 38.5478 228.004 38.4818C228.265 38.3054 228.333 37.9521 228.157 37.6921Z" fill="black"/>
<path d="M229.922 44.9128C229.608 44.9128 229.353 45.1859 229.353 45.5C229.353 45.8488 229.34 46.201 229.313 46.5458C229.289 46.8593 229.523 47.1329 229.836 47.1568C229.851 47.158 229.866 47.1585 229.881 47.1585C230.175 47.1585 230.425 46.9321 230.447 46.6334C230.476 46.259 230.491 45.8778 230.491 45.4994V45.4625C230.491 45.149 230.237 44.9128 229.922 44.9128Z" fill="black"/>
<path d="M229.392 49.3587C229.094 49.2586 228.772 49.419 228.671 49.7166C228.556 50.0574 228.426 50.3959 228.284 50.7231C228.158 51.011 228.29 51.3467 228.578 51.4719C228.652 51.5043 228.73 51.5191 228.805 51.5191C229.025 51.5191 229.234 51.3911 229.327 51.1771C229.482 50.8204 229.625 50.4506 229.75 50.079C229.851 49.7815 229.69 49.4589 229.392 49.3587Z" fill="black"/>
<path d="M220.373 32.7523C219.987 32.7074 219.595 32.6846 219.207 32.6846H219.183C218.869 32.6846 218.626 32.9395 218.626 33.2536C218.626 33.5676 218.893 33.8225 219.207 33.8225C219.551 33.8225 219.899 33.8424 220.242 33.8823C220.264 33.8851 220.286 33.8863 220.308 33.8863C220.593 33.8863 220.839 33.6729 220.873 33.3827C220.909 33.0704 220.685 32.7882 220.373 32.7523Z" fill="black"/>
<path d="M211.186 52.6508C211.01 52.3896 210.656 52.3213 210.396 52.4971C210.136 52.673 210.067 53.0263 210.243 53.2869C210.464 53.614 210.701 53.9326 210.948 54.2342C211.06 54.3713 211.224 54.4424 211.388 54.4424C211.515 54.4424 211.643 54.4003 211.749 54.3133C211.992 54.1136 212.027 53.7557 211.828 53.5122C211.603 53.2391 211.387 52.9489 211.186 52.6508Z" fill="black"/>
<path d="M209.846 39.5059C209.557 39.3808 209.223 39.5111 209.096 39.7995C208.94 40.1574 208.797 40.5267 208.671 40.8965C208.571 41.1941 208.73 41.5172 209.028 41.6185C209.088 41.639 209.15 41.6487 209.21 41.6487C209.447 41.6487 209.669 41.499 209.749 41.2623C209.864 40.9227 209.995 40.5841 210.139 40.2553C210.266 39.9674 210.134 39.6317 209.846 39.5059Z" fill="black"/>
<path d="M219.207 57.1775C218.853 57.1775 218.497 57.1564 218.15 57.1149C217.84 57.0819 217.555 57.3003 217.517 57.6127C217.48 57.9245 217.703 58.2078 218.015 58.2454C218.407 58.2921 218.809 58.316 219.207 58.316H219.256C219.57 58.316 219.801 58.0611 219.801 57.747C219.801 57.4329 219.521 57.1775 219.207 57.1775Z" fill="black"/>
<path d="M211.723 35.9067C211.449 36.1826 211.182 36.4779 210.931 36.7857C210.732 37.0292 210.769 37.3877 211.012 37.5863C211.118 37.6727 211.245 37.7148 211.372 37.7148C211.537 37.7148 211.7 37.6437 211.813 37.506C212.041 37.2267 212.282 36.9587 212.53 36.7095C212.751 36.4864 212.75 36.1263 212.528 35.9044C212.305 35.6831 211.945 35.6848 211.723 35.9067Z" fill="black"/>
<path d="M215.673 33.3253C215.304 33.4635 214.937 33.6251 214.583 33.806C214.303 33.9483 214.191 34.2914 214.334 34.5713C214.434 34.7687 214.634 34.882 214.842 34.882C214.929 34.882 215.017 34.862 215.1 34.8199C215.416 34.6589 215.743 34.5144 216.071 34.3915C216.365 34.2811 216.515 33.9534 216.405 33.6593C216.295 33.364 215.967 33.2149 215.673 33.3253Z" fill="black"/>
<path d="M215.121 56.1914C214.808 56.0327 214.498 55.8529 214.2 55.6577C213.937 55.4859 213.585 55.5599 213.412 55.8222C213.24 56.085 213.314 56.4378 213.576 56.6096C213.909 56.8275 214.256 57.0284 214.606 57.2059C214.688 57.248 214.776 57.2673 214.863 57.2673C215.071 57.2673 215.27 57.1536 215.371 56.9561C215.513 56.6762 215.401 56.3337 215.121 56.1914Z" fill="black"/>
<g clip-path="url(#clip1_2:6)">
<path d="M99.3882 221.688C99.4035 222.113 99.4501 222.53 99.5207 222.94C99.4786 223.371 99.4633 223.781 99.4778 224.185C99.5877 227.249 101.173 229.959 103.612 231.814C103.631 231.833 103.652 231.846 103.673 231.861C104.461 232.452 105.337 232.952 106.28 233.348C106.3 233.358 106.321 233.367 106.343 233.374C107.002 233.647 107.692 233.869 108.408 234.034C108.448 234.051 108.492 234.058 108.538 234.062C109.62 234.298 110.757 234.408 111.929 234.366C113.762 234.3 115.487 233.875 117.021 233.173C117.038 233.167 117.053 233.161 117.069 233.153C117.978 232.732 118.819 232.215 119.575 231.615C119.594 231.6 119.615 231.587 119.631 231.569C120.387 230.962 121.054 230.274 121.617 229.522C121.64 229.5 121.656 229.475 121.673 229.448C122.973 227.682 123.699 225.567 123.619 223.319C123.604 222.915 123.56 222.507 123.487 222.08C123.528 221.666 123.544 221.247 123.529 220.822C123.319 214.969 117.734 210.402 111.078 210.641C104.422 210.88 99.1783 215.835 99.3882 221.688ZM100.634 226.044C100.71 226.179 100.79 226.313 100.873 226.444C100.919 226.518 100.964 226.592 101.013 226.665C101.087 226.778 101.166 226.888 101.246 226.997L101.274 227.799C100.968 227.2 100.721 226.573 100.558 225.916C100.581 225.96 100.609 226.001 100.634 226.044ZM118.843 229.592L118.896 231.084C118.391 231.47 117.845 231.816 117.266 232.12L117.21 230.544C117.355 230.473 117.499 230.401 117.64 230.325C117.701 230.293 117.761 230.259 117.821 230.225C117.986 230.134 118.147 230.039 118.306 229.942C118.365 229.905 118.425 229.87 118.483 229.833C118.605 229.755 118.724 229.674 118.843 229.592ZM106.868 232.685L106.811 231.092C106.995 231.159 107.181 231.221 107.37 231.28C107.423 231.296 107.474 231.312 107.527 231.328C107.708 231.382 107.89 231.431 108.075 231.477L108.133 233.103C107.699 232.986 107.277 232.846 106.868 232.685ZM111.899 233.533C111.619 233.543 111.342 233.538 111.066 233.531L111.006 231.871C111.013 231.872 111.019 231.871 111.026 231.871C111.296 231.877 111.566 231.878 111.839 231.869C111.979 231.864 112.117 231.854 112.255 231.844L112.315 233.502C112.176 233.512 112.039 233.528 111.899 233.533ZM113.086 231.767C113.261 231.745 113.434 231.718 113.606 231.69C113.619 231.688 113.632 231.686 113.645 231.684C113.875 231.645 114.103 231.599 114.329 231.549L114.387 233.191C113.982 233.287 113.568 233.366 113.145 233.422L113.086 231.767ZM108.915 231.658C108.964 231.667 109.014 231.675 109.064 231.683C109.119 231.692 109.174 231.702 109.229 231.711C109.492 231.752 109.757 231.788 110.026 231.814C110.038 231.815 110.051 231.815 110.064 231.816C110.1 231.82 110.135 231.822 110.171 231.825L110.23 233.477C109.804 233.437 109.384 233.383 108.974 233.302L108.915 231.658ZM115.154 231.335C115.205 231.32 115.256 231.306 115.306 231.291C115.324 231.286 115.343 231.281 115.361 231.275C115.612 231.197 115.859 231.111 116.102 231.02C116.153 231.001 116.204 230.981 116.255 230.961C116.3 230.944 116.345 230.927 116.389 230.909L116.447 232.513C116.048 232.685 115.636 232.835 115.213 232.967L115.154 231.335ZM105.067 230.314C105.128 230.347 105.191 230.378 105.252 230.41C105.418 230.496 105.586 230.579 105.756 230.658C105.818 230.687 105.88 230.717 105.944 230.745C105.95 230.748 105.958 230.752 105.965 230.755L106.021 232.315C105.416 232.021 104.847 231.678 104.317 231.294L104.265 229.836C104.34 229.885 104.414 229.933 104.49 229.98C104.678 230.096 104.871 230.208 105.067 230.314ZM102.158 229.202L102.117 228.052C102.211 228.152 102.306 228.252 102.404 228.349C102.486 228.43 102.571 228.508 102.656 228.587C102.741 228.666 102.828 228.745 102.917 228.822C103.001 228.896 103.086 228.97 103.173 229.042C103.25 229.106 103.33 229.166 103.41 229.228L103.459 230.603C102.978 230.172 102.541 229.705 102.158 229.202ZM119.706 230.409L119.654 228.981C119.714 228.932 119.774 228.883 119.833 228.832C119.986 228.701 120.136 228.566 120.281 228.428C120.363 228.35 120.442 228.27 120.521 228.19C120.604 228.107 120.685 228.022 120.765 227.936C120.797 227.902 120.832 227.869 120.863 227.834L120.908 229.086C120.551 229.557 120.148 229.999 119.706 230.409ZM122.666 225.123C122.499 226.085 122.163 227 121.698 227.854L121.662 226.848C121.701 226.793 121.738 226.737 121.776 226.681C121.837 226.593 121.898 226.504 121.956 226.414C122.064 226.247 122.168 226.076 122.266 225.903C122.308 225.827 122.348 225.75 122.389 225.673C122.462 225.536 122.532 225.397 122.599 225.257C122.62 225.211 122.645 225.168 122.666 225.123ZM122.697 220.852C122.709 221.183 122.701 221.51 122.675 221.833L122.659 221.995C122.656 222.018 122.654 222.04 122.651 222.062C122.636 222.207 122.618 222.351 122.595 222.493C122.593 222.505 122.591 222.517 122.589 222.529C122.567 222.668 122.541 222.805 122.513 222.942C122.508 222.962 122.503 222.983 122.498 223.003C122.471 223.131 122.441 223.258 122.407 223.383C122.397 223.421 122.385 223.46 122.375 223.498C122.345 223.605 122.314 223.712 122.28 223.818C122.252 223.904 122.221 223.989 122.191 224.074C122.17 224.132 122.151 224.19 122.129 224.247C121.263 226.519 119.467 228.442 117.128 229.657C117.107 229.668 117.084 229.678 117.063 229.689C116.936 229.754 116.807 229.817 116.677 229.878C116.625 229.903 116.572 229.925 116.519 229.949C116.417 229.995 116.315 230.04 116.212 230.083C116.145 230.111 116.077 230.137 116.01 230.164C115.919 230.2 115.827 230.236 115.735 230.269C115.659 230.297 115.582 230.324 115.506 230.35C115.419 230.38 115.332 230.41 115.244 230.438C115.164 230.464 115.082 230.489 115.001 230.513C114.915 230.539 114.828 230.564 114.741 230.588C114.657 230.611 114.574 230.633 114.49 230.654C114.402 230.676 114.313 230.697 114.225 230.717C114.14 230.737 114.055 230.756 113.969 230.774C113.878 230.793 113.786 230.81 113.694 230.827C113.61 230.843 113.527 230.859 113.442 230.872C113.343 230.889 113.242 230.903 113.142 230.917C113.064 230.928 112.986 230.94 112.907 230.949C112.791 230.963 112.675 230.974 112.558 230.985C112.493 230.991 112.428 230.999 112.362 231.004C112.179 231.018 111.995 231.029 111.81 231.036C111.624 231.043 111.439 231.045 111.256 231.044C111.19 231.043 111.124 231.04 111.059 231.039C110.942 231.036 110.825 231.034 110.709 231.028C110.629 231.024 110.551 231.018 110.472 231.012C110.371 231.006 110.27 230.999 110.169 230.99C110.084 230.982 109.999 230.972 109.915 230.963C109.822 230.952 109.729 230.942 109.636 230.929C109.549 230.918 109.464 230.905 109.378 230.891C109.288 230.877 109.198 230.863 109.108 230.847C109.023 230.832 108.938 230.816 108.853 230.799C108.765 230.781 108.676 230.763 108.588 230.743C108.505 230.725 108.422 230.706 108.34 230.686C108.25 230.664 108.161 230.641 108.073 230.617C107.994 230.596 107.916 230.575 107.839 230.553C107.744 230.526 107.65 230.496 107.556 230.467C107.487 230.445 107.418 230.424 107.35 230.401C107.243 230.365 107.138 230.328 107.033 230.289C106.979 230.27 106.925 230.251 106.871 230.23C106.737 230.179 106.604 230.125 106.472 230.069C106.45 230.059 106.427 230.051 106.405 230.041C103.985 228.998 102.057 227.208 101.029 225.004C101.003 224.949 100.98 224.892 100.956 224.836C100.919 224.753 100.882 224.671 100.848 224.587C100.807 224.484 100.769 224.379 100.731 224.274C100.717 224.237 100.703 224.2 100.69 224.162C100.647 224.039 100.608 223.915 100.572 223.79C100.567 223.77 100.56 223.75 100.554 223.73C100.515 223.596 100.48 223.46 100.448 223.324C100.445 223.312 100.442 223.3 100.439 223.288C100.407 223.148 100.378 223.006 100.352 222.863C100.348 222.841 100.344 222.818 100.34 222.796L100.312 222.636C100.264 222.315 100.233 221.989 100.221 221.658C100.027 216.265 104.911 211.696 111.108 211.474C117.305 211.251 122.503 215.458 122.697 220.852Z" fill="black"/>
<path d="M111.725 228.677C111.463 228.687 111.2 228.686 110.942 228.675C110.712 228.665 110.518 228.843 110.508 229.073C110.499 229.304 110.676 229.497 110.906 229.507C111.185 229.519 111.471 229.52 111.755 229.51L111.764 229.509C111.993 229.501 112.169 229.308 112.16 229.078C112.152 228.849 111.955 228.669 111.725 228.677Z" fill="black"/>
<path d="M108.827 214.208C109.014 214.154 109.134 213.98 109.127 213.794C109.126 213.76 109.121 213.726 109.111 213.692C109.047 213.472 108.816 213.345 108.595 213.408C108.319 213.488 108.045 213.58 107.78 213.682C107.565 213.764 107.457 214.005 107.54 214.22C107.622 214.435 107.863 214.542 108.078 214.46C108.321 214.367 108.574 214.282 108.827 214.208Z" fill="black"/>
<path d="M117.099 215.625C117.31 215.785 117.512 215.954 117.702 216.128C117.871 216.284 118.134 216.273 118.29 216.104C118.367 216.02 118.404 215.912 118.4 215.807C118.396 215.7 118.351 215.594 118.266 215.516C118.057 215.323 117.834 215.136 117.601 214.961C117.418 214.822 117.156 214.859 117.018 215.042C116.879 215.225 116.916 215.487 117.099 215.625Z" fill="black"/>
<path d="M114.074 228.306C113.853 228.369 113.725 228.601 113.789 228.821C113.852 229.042 114.083 229.17 114.304 229.107C114.579 229.028 114.854 228.936 115.121 228.834C115.292 228.769 115.395 228.604 115.389 228.43C115.387 228.386 115.378 228.341 115.361 228.297C115.279 228.082 115.039 227.974 114.824 228.056C114.58 228.149 114.327 228.233 114.074 228.306Z" fill="black"/>
<path d="M103.174 217.444C103.024 217.692 102.887 217.952 102.767 218.213C102.67 218.423 102.763 218.669 102.971 218.766C103.18 218.862 103.427 218.771 103.523 218.562C103.631 218.327 103.754 218.096 103.888 217.873C103.931 217.802 103.95 217.722 103.947 217.644C103.942 217.508 103.871 217.377 103.746 217.301C103.549 217.183 103.293 217.246 103.174 217.444Z" fill="black"/>
<path d="M119.156 217.956C119.283 218.183 119.397 218.418 119.496 218.654C119.585 218.867 119.829 218.967 120.041 218.878C120.206 218.809 120.303 218.647 120.297 218.478C120.295 218.43 120.285 218.381 120.265 218.333C120.153 218.067 120.025 217.803 119.883 217.549C119.77 217.348 119.517 217.276 119.316 217.388C119.115 217.501 119.043 217.755 119.156 217.956Z" fill="black"/>
<path d="M105.512 214.913C105.278 215.083 105.052 215.265 104.838 215.455C104.666 215.607 104.65 215.871 104.803 216.043C104.955 216.215 105.218 216.231 105.391 216.078C105.585 215.906 105.791 215.741 106.003 215.585C106.119 215.501 106.178 215.367 106.174 215.234C106.171 215.154 106.145 215.073 106.094 215.003C105.958 214.817 105.698 214.777 105.512 214.913Z" fill="black"/>
<path d="M110.748 213.432C110.756 213.661 110.963 213.841 111.192 213.832C111.448 213.823 111.706 213.824 111.959 213.834C112.188 213.844 112.383 213.665 112.392 213.435C112.392 213.425 112.392 213.414 112.392 213.403C112.384 213.188 112.212 213.011 111.993 213.002C111.718 212.991 111.439 212.99 111.162 213L111.135 213.001C110.906 213.009 110.74 213.201 110.748 213.432Z" fill="black"/>
<path d="M114.014 213.703C113.949 213.923 114.075 214.155 114.295 214.221C114.547 214.296 114.798 214.382 115.041 214.478C115.255 214.562 115.497 214.457 115.581 214.242C115.603 214.188 115.612 214.131 115.61 214.075C115.604 213.915 115.505 213.765 115.346 213.702C115.081 213.598 114.807 213.504 114.532 213.422C114.311 213.356 114.08 213.482 114.014 213.703Z" fill="black"/>
<path d="M102.103 220.737C102.08 221.02 102.074 221.307 102.084 221.591L102.084 221.609C102.093 221.838 102.285 222.009 102.515 222.001C102.745 221.993 102.924 221.791 102.916 221.561C102.907 221.309 102.913 221.054 102.933 220.803C102.934 220.786 102.934 220.77 102.934 220.754C102.926 220.546 102.764 220.371 102.551 220.354C102.321 220.336 102.121 220.507 102.103 220.737Z" fill="black"/>
<path d="M116.9 226.935C116.714 227.07 116.673 227.331 116.809 227.516C116.944 227.702 117.204 227.744 117.39 227.608C117.624 227.438 117.851 227.256 118.065 227.068C118.162 226.982 118.21 226.86 118.206 226.74C118.202 226.647 118.168 226.555 118.102 226.479C117.949 226.307 117.687 226.29 117.514 226.443C117.32 226.614 117.113 226.78 116.9 226.935Z" fill="black"/>
<path d="M107.319 228.26C107.235 228.475 107.34 228.716 107.554 228.801C107.82 228.906 108.094 229.001 108.368 229.083C108.588 229.149 108.82 229.024 108.886 228.803C108.9 228.759 108.905 228.713 108.904 228.669C108.897 228.495 108.782 228.337 108.607 228.285C108.355 228.21 108.104 228.123 107.86 228.026C107.646 227.941 107.404 228.046 107.319 228.26Z" fill="black"/>
<path d="M120.001 220.948C120.011 221.207 120.005 221.468 119.983 221.723C119.967 221.951 120.135 222.154 120.364 222.173C120.593 222.192 120.795 222.022 120.814 221.792C120.838 221.504 120.845 221.209 120.834 220.918L120.833 220.882C120.825 220.653 120.632 220.491 120.402 220.499C120.173 220.507 119.993 220.719 120.001 220.948Z" fill="black"/>
<path d="M104.637 226.982C104.846 227.175 105.069 227.362 105.301 227.538C105.484 227.677 105.746 227.641 105.885 227.457C105.945 227.378 105.972 227.283 105.969 227.191C105.965 227.07 105.909 226.953 105.805 226.874C105.594 226.714 105.392 226.545 105.203 226.37C105.034 226.214 104.771 226.224 104.614 226.393C104.458 226.562 104.469 226.825 104.637 226.982Z" fill="black"/>
<path d="M102.645 224.16C102.756 224.426 102.884 224.69 103.025 224.944C103.137 225.145 103.391 225.218 103.592 225.106C103.734 225.028 103.811 224.879 103.806 224.727C103.803 224.663 103.787 224.599 103.754 224.54C103.627 224.313 103.513 224.077 103.415 223.84C103.326 223.628 103.083 223.527 102.87 223.615C102.657 223.703 102.557 223.948 102.645 224.16Z" fill="black"/>
<path d="M119.387 223.963C119.279 224.196 119.156 224.428 119.021 224.651C118.902 224.848 118.966 225.104 119.162 225.223C119.359 225.342 119.615 225.279 119.734 225.082C119.884 224.833 120.022 224.574 120.143 224.314C120.171 224.252 120.183 224.187 120.181 224.124C120.176 223.972 120.087 223.829 119.94 223.76C119.732 223.664 119.484 223.755 119.387 223.963Z" fill="black"/>
</g>
<path d="M41.568 59.2471C41.6018 58.6491 41.419 58.1333 41.0197 57.6997C40.6268 57.2665 39.9425 56.8557 38.9667 56.4675C37.6061 55.9661 36.6263 55.3592 36.0275 54.6469C35.4356 53.9284 35.1692 53.0459 35.2284 51.9993C35.2886 50.9333 35.6468 50.0766 36.3029 49.4293C36.9655 48.7823 37.8432 48.4248 38.9361 48.3566L39.0568 46.2213L40.5095 46.3041L40.3883 48.4492C41.4719 48.661 42.2942 49.1676 42.8554 49.9691C43.423 50.7709 43.6692 51.8381 43.5939 53.1707L41.7999 53.0684C41.8517 52.1519 41.6751 51.4115 41.27 50.8471C40.865 50.2828 40.292 49.9795 39.551 49.9372C38.7775 49.8931 38.1746 50.0609 37.7423 50.4406C37.3104 50.8138 37.0742 51.3579 37.0338 52.0729C36.9963 52.7359 37.1809 53.2779 37.5875 53.6989C38.0009 54.1137 38.6925 54.5118 39.6621 54.8932C40.6387 55.2684 41.3922 55.6667 41.9226 56.0882C42.4599 56.5036 42.8441 56.9755 43.0751 57.5038C43.3126 58.0325 43.4118 58.6414 43.3729 59.3305C43.3108 60.429 42.9293 61.2941 42.2285 61.9259C41.5341 62.558 40.5887 62.9019 39.3922 62.9576L39.2869 64.8199L37.8439 64.7377L37.9492 62.8753C36.7464 62.6959 35.8216 62.2128 35.1749 61.426C34.535 60.633 34.2514 59.593 34.3241 58.306L36.1279 58.4088C36.0768 59.3123 36.2748 60.0214 36.7217 60.536C37.1687 61.0505 37.8277 61.3326 38.6987 61.3823C39.5502 61.4308 40.2313 61.2642 40.7419 60.8825C41.2526 60.5008 41.528 59.9557 41.568 59.2471Z" fill="#3EDD9D"/>
</g>
<g clip-path="url(#clip2_2:6)">
<path d="M112.166 147.248C112.461 146.225 112.765 145.211 113.061 144.189C113.453 142.847 115.035 142.008 116.394 142.359C117.752 142.719 118.703 144.149 118.584 145.546C118.464 146.944 117.337 148.166 115.978 148.493C114.619 148.821 113.101 148.254 112.166 147.248Z" fill="black"/>
<path d="M92.4328 151.201C92.1771 151.201 92.0812 151.576 92.0572 151.832C91.9693 151.952 91.9213 152.144 91.9053 152.263C91.8973 152.319 91.8814 152.367 91.8734 152.423C91.8654 152.439 91.8574 152.455 91.8494 152.463C91.8014 152.431 91.7535 152.415 91.7055 152.423C91.6176 152.032 91.4178 151.704 91.1301 152.144C91.0741 152.223 91.0262 152.303 90.9702 152.391C90.9463 152.423 90.9223 152.455 90.8903 152.495C90.5706 153.006 90.2429 153.525 89.9232 154.036C89.7474 154.316 89.8433 155.035 90.0671 155.251C90.0591 155.274 90.0511 155.298 90.0431 155.33C89.9712 155.522 89.9952 156.441 90.3229 156.457C90.3948 156.728 90.5546 156.88 90.7944 156.664C92.1611 155.498 92.8404 153.741 92.8164 151.96C92.8164 151.744 92.7525 151.201 92.4328 151.201Z" fill="black"/>
<path d="M139.292 121.561C139.004 121.29 138.82 121.066 138.428 120.97C138.117 120.89 137.813 120.834 137.493 120.803C136.886 120.747 136.278 120.723 135.671 120.731C134.416 120.747 133.169 120.834 131.931 120.994C129.453 121.314 127.047 122.009 124.698 122.847C124.442 122.935 124.266 123.398 124.202 123.614C124.082 124.013 124.058 124.485 124.114 124.9C124.186 125.435 124.458 126.282 125.137 126.066C127.367 125.363 129.701 124.996 132.027 124.78C133.169 124.676 134.32 124.628 135.471 124.644C136.079 124.652 136.686 124.668 137.293 124.684C137.565 124.692 137.829 124.7 138.101 124.676C138.548 124.652 138.748 124.556 139.108 124.301C139.795 123.822 139.923 122.152 139.292 121.561Z" fill="black"/>
<path d="M157.546 96.7616L145.038 123.023L142.305 123.255C142.305 123.255 153.829 99.6928 153.678 99.5331C153.662 99.5251 148.81 98.2312 148.81 98.2312C148.81 98.2312 142.193 118.862 140.49 123.79C140.171 123.486 123.267 125.347 119.175 126.625C117.936 127.008 106.835 130.195 101.976 132.895C96.1972 136.106 99.3222 137.24 99.3541 137.224C99.458 137.16 109.289 133.494 122.316 133.494C122.572 133.494 153.989 133.957 159.568 131.489C160.847 130.922 162.413 127.711 162.765 126.801C164.651 121.953 161.318 117.991 161.318 117.991L168.615 102.041" fill="#2DCC8A"/>
<path d="M154.533 86.0191C152.735 84.9009 143.791 93.5029 142.696 94.2617C141.777 94.9006 120.813 109.517 115.882 111.026C115.762 111.066 104.757 123.143 104.741 123.175C102.823 126.881 93.4558 138.294 101.528 132.08C111.902 124.085 139.971 119.277 139.971 119.277C139.971 119.277 147.124 95.9549 147.26 95.6115C147.276 95.5955 154.541 97.3846 154.565 97.3846C154.637 97.4645 156.243 87.0814 154.533 86.0191Z" fill="#2DCC8A"/>
<path d="M115.283 134.117L137.693 133.302C138.692 133.246 139.691 133.206 140.69 133.19L153.989 132.711C153.989 132.711 158.681 132.456 161.326 129.684C162.078 128.893 163.324 126.721 163.556 123.638C163.684 121.905 163.524 119.676 163.524 119.676C163.524 119.676 163.372 117.991 163.14 117.911C162.965 117.847 160.295 120.667 159.288 121.473C156.707 123.534 142.185 124.684 142.185 124.684C142.185 124.684 130.94 124.588 118.711 126.481C114.731 127.096 108.849 128.973 106.707 130.123C99.3621 134.053 85.4875 140.89 106.931 135.419C111.159 134.341 115.283 134.117 115.283 134.117Z" stroke="black" stroke-width="4" stroke-miterlimit="10"/>
<path d="M138.42 120.172C138.42 120.172 139.316 120.036 139.459 119.9C139.723 119.66 146.884 96.6258 146.884 96.6258C146.884 96.6258 147.1 95.7792 148.147 95.7792C149.618 95.7792 154.333 97.2408 154.333 97.2408C154.333 97.2408 154.773 97.3926 155.044 97.0651C155.076 97.0252 155.516 96.0588 155.5 95.891" stroke="#2DCC8A" stroke-width="4" stroke-miterlimit="10"/>
<path d="M140.93 119.82L138.756 120.116C138.756 120.116 119.639 123.087 109.648 127.408C101.8 130.802 96.3251 137.408 95.8375 137.208C93.9593 136.433 104.301 118.966 117.489 110.475C126.408 104.741 136.151 99.581 143.016 93.6227C148.243 89.0861 154.557 84.3578 154.9 84.5974C156.243 85.5319 155.492 98.4229 155.492 98.4229" stroke="black" stroke-width="4" stroke-miterlimit="10"/>
<path d="M139.332 124.852L148.011 96.9134L155.332 98.6545" stroke="black" stroke-width="5" stroke-miterlimit="10"/>
<path d="M143.032 124.389L157.09 95.2441L170.318 101.474L161.862 119.541" stroke="black" stroke-width="5" stroke-miterlimit="10"/>
<path d="M159.242 112.335C158.967 112.216 158.693 112.213 158.421 112.326C158.15 112.435 157.839 112.686 157.489 113.077C157.019 113.629 156.565 113.984 156.127 114.142C155.688 114.296 155.228 114.269 154.747 114.06C154.257 113.848 153.917 113.532 153.726 113.113C153.537 112.69 153.52 112.217 153.677 111.692L152.695 111.267L152.985 110.6L153.971 111.027C154.257 110.555 154.636 110.256 155.109 110.131C155.584 110.003 156.127 110.071 156.739 110.336L156.382 111.161C155.961 110.978 155.583 110.934 155.248 111.026C154.913 111.119 154.672 111.336 154.525 111.676C154.37 112.032 154.345 112.343 154.449 112.612C154.549 112.879 154.764 113.084 155.093 113.226C155.397 113.358 155.684 113.365 155.951 113.246C156.217 113.124 156.523 112.868 156.87 112.479C157.214 112.085 157.531 111.8 157.82 111.624C158.108 111.443 158.396 111.345 158.683 111.327C158.973 111.307 159.275 111.365 159.592 111.503C160.097 111.721 160.437 112.049 160.613 112.487C160.79 112.922 160.788 113.425 160.608 113.996L161.464 114.367L161.176 115.03L160.32 114.659C160.029 115.193 159.642 115.544 159.162 115.711C158.679 115.875 158.142 115.829 157.551 115.573L157.91 114.744C158.325 114.924 158.692 114.953 159.011 114.832C159.329 114.711 159.575 114.45 159.749 114.05C159.918 113.659 159.958 113.31 159.867 113.005C159.776 112.699 159.567 112.476 159.242 112.335Z" fill="white"/>
<path d="M163.524 120.267C169.646 113.039 177.183 107.009 185.575 102.608C186.846 101.945 188.572 102.329 189.435 103.479C196.053 112.256 197.22 124.812 192.336 134.668C187.453 144.516 180.497 150.436 169.5 150.5C166.591 150.516 163.16 146.907 163 144" stroke="black" stroke-width="4" stroke-miterlimit="10"/>
<path d="M184.624 103.143C182.985 104.701 181.675 106.346 180.252 108.167C178.997 109.82 178.03 111.354 177.007 113.119C174.05 118.414 170.685 124.141 168.751 129.78C166.705 135.531 161.75 140.019 155.86 141.505" stroke="black" stroke-width="4" stroke-miterlimit="10"/>
<path d="M97 166.373C111.04 175.654 123.958 173.835 124.603 173.891C126.538 174.059 147.802 171.462 156.993 152.555C158.777 146.72 157.648 139.992 157.648 140" stroke="black" stroke-width="4" stroke-miterlimit="10"/>
<path d="M102.359 136.952L101.688 138.789C99.1863 144.716 94.7825 149.819 89.2839 153.174C89.2998 156.185 90.7145 159.164 93.0322 161.089C95.35 163.014 98.5389 163.853 101.512 163.325" stroke="black" stroke-width="4" stroke-miterlimit="10"/>
<path d="M171.277 177.726L166.977 169.883H163.564V177.726H158.905V155.842H169.151C173.714 155.842 176.504 158.829 176.504 162.894C176.504 166.768 174.074 168.828 171.708 169.388L176.631 177.718H171.277V177.726ZM168.455 159.851H163.564V165.889H168.455C170.326 165.889 171.74 164.707 171.74 162.87C171.732 161.033 170.326 159.851 168.455 159.851Z" fill="black"/>
<path d="M190.378 155.482C197.012 155.482 201.831 160.202 201.831 166.8C201.831 173.397 197.004 178.117 190.378 178.117C183.777 178.117 178.957 173.397 178.957 166.8C178.957 160.21 183.785 155.482 190.378 155.482ZM190.378 159.619C186.342 159.619 183.745 162.702 183.745 166.808C183.745 170.873 186.334 173.996 190.378 173.996C194.414 173.996 197.044 170.881 197.044 166.808C197.044 162.702 194.422 159.619 190.378 159.619Z" fill="black"/>
<path d="M205.124 177.726V155.842H216.649C220.821 155.842 222.955 158.501 222.955 161.416C222.955 164.172 221.244 166.009 219.182 166.432C221.516 166.792 223.386 169.06 223.386 171.816C223.386 175.098 221.188 177.718 217.016 177.718H205.124V177.726ZM209.783 164.635H215.626C217.2 164.635 218.183 163.621 218.183 162.207C218.183 160.865 217.2 159.811 215.626 159.811H209.783V164.635ZM209.783 173.756H215.794C217.568 173.756 218.615 172.742 218.615 171.169C218.615 169.787 217.632 168.613 215.794 168.613H209.783V173.756Z" fill="black"/>
<path d="M226.887 182.087V155.85H231.546V182.095H226.887V182.087Z" fill="#2DCC8A"/>
<path d="M250.976 177.726L240.538 163.03V177.726H235.878V155.842H240.674L250.816 170.011V155.85H255.475V177.734H250.976V177.726Z" fill="black"/>
<path d="M192.736 202.102V186.352L186.566 202.102H184.528L178.358 186.352V202.102H173.698V180.218H180.228L185.543 193.868L190.858 180.218H197.419V202.102H192.736Z" fill="black"/>
<path d="M212.141 179.859C218.775 179.859 223.594 184.579 223.594 191.176C223.594 197.773 218.767 202.494 212.141 202.494C205.54 202.494 200.72 197.773 200.72 191.176C200.72 184.587 205.54 179.859 212.141 179.859ZM212.141 183.996C208.105 183.996 205.508 187.079 205.508 191.184C205.508 195.249 208.097 198.372 212.141 198.372C216.177 198.372 218.807 195.257 218.807 191.184C218.807 187.079 216.177 183.996 212.141 183.996Z" fill="black"/>
<path d="M241.976 202.102L231.538 187.406V202.102H226.879V180.218H231.538L241.816 194.387V180.218H246.476V202.102H241.976Z" fill="#2DCC8A"/>
<path d="M250.808 202.102V180.218H266.305V184.219H255.475V188.98H266.081V192.981H255.475V198.069H266.305V202.102H250.808Z" fill="black"/>
<path d="M276.055 202.102V193.149L267.616 180.226H272.93L278.381 189.02L283.768 180.226H289.083L280.715 193.149V202.102H276.055Z" fill="black"/>
</g>
<defs>
<clipPath id="clip0_2:6">
<rect width="375" height="667" rx="30" fill="white"/>
</clipPath>
<clipPath id="clip1_2:6">
<rect width="24.1565" height="24.1565" fill="white" transform="translate(99.8661 235.007) rotate(-92.0546)"/>
</clipPath>
<clipPath id="clip2_2:6">
<rect width="207" height="123" fill="white" transform="translate(85 83)"/>
</clipPath>
</defs>
</svg>
