<svg width="40" height="39" viewBox="0 0 40 39" fill="none" xmlns="http://www.w3.org/2000/svg">
<rect x="0.5" width="39" height="39" rx="15" fill="#2DCC8A"/>
<path d="M20.5 6.14287C13.4028 6.14287 7.64282 11.9029 7.64282 19C7.64282 26.0972 13.4028 31.8572 20.5 31.8572C27.5971 31.8572 33.3571 26.0972 33.3571 19C33.3571 11.9029 27.5971 6.14287 20.5 6.14287ZM20.5 29.2857C14.83 29.2857 10.2143 24.67 10.2143 19C10.2143 13.33 14.83 8.7143 20.5 8.7143C26.17 8.7143 30.7857 13.33 30.7857 19C30.7857 24.67 26.17 29.2857 20.5 29.2857ZM21.6443 17.8429C19.3557 17.0843 18.25 16.6086 18.25 15.4C18.25 14.0886 19.6771 13.6129 20.5771 13.6129C21.4348 13.6129 22.0157 13.9429 22.3981 14.3263C22.8509 14.7803 23.5311 15.119 24.1214 14.8686C24.6456 14.6464 24.9129 14.0502 24.605 13.5714C24.196 12.9354 23.4908 12.1774 22.3431 11.7876C21.9413 11.6511 21.6314 11.2973 21.6314 10.8729C21.6314 10.3908 21.2406 10 20.7585 10H20.2776C19.7827 10 19.3814 10.4013 19.3814 10.8963C19.3814 11.3185 19.0814 11.6751 18.6839 11.8174C16.0348 12.7659 16.0128 15.2949 16.0128 15.4257C16.0128 18.3443 18.9057 19.1672 20.32 19.6814C22.3514 20.4014 23.2514 21.0572 23.2514 22.2914C23.2514 23.7443 21.9014 24.3614 20.7057 24.3614C19.3637 24.3614 18.5714 23.5707 18.1252 22.8428C17.7698 22.263 17.0658 21.898 16.4352 22.1525C15.8956 22.3703 15.5958 22.9676 15.844 23.4939C16.5845 25.0638 17.7811 25.7845 18.6726 26.1253C19.0727 26.2783 19.3685 26.643 19.3685 27.0713C19.3685 27.5842 19.7843 28 20.2972 28H20.7529C21.231 28 21.6185 27.6125 21.6185 27.1344C21.6185 26.7133 21.9231 26.3601 22.3271 26.2414C23.4999 25.8971 25.5014 24.9341 25.5014 22.2657C25.5143 20.4786 24.73 18.91 21.6443 17.8429Z" fill="white"/>
</svg>
