<svg width="331" height="73" viewBox="0 0 331 73" fill="none" xmlns="http://www.w3.org/2000/svg">
<rect x="0.5" width="330" height="55" rx="27.5" fill="#3EDD9D"/>
<g filter="url(#filter0_d_2506_224)">
<path d="M101.833 37H104.686V30.3523H108.564C112.95 30.3523 115.119 27.7024 115.119 24.2124C115.119 20.7315 112.968 18.0909 108.573 18.0909H101.833V37ZM104.686 27.9332V20.5376H108.269C111.094 20.5376 112.248 22.0703 112.248 24.2124C112.248 26.3544 111.094 27.9332 108.306 27.9332H104.686ZM118.056 37L119.791 31.9957H127.178L128.904 37H131.933L125.128 18.0909H121.832L115.027 37H118.056ZM120.622 29.5952L123.411 21.5256H123.558L126.347 29.5952H120.622ZM134.663 37H137.516V29.8445H141.394C141.459 29.8445 141.514 29.8445 141.579 29.8445L145.42 37H148.67L144.478 29.3459C146.795 28.4872 147.95 26.5575 147.95 24.0185C147.95 20.5376 145.789 18.0909 141.403 18.0909H134.663V37ZM137.516 27.3885V20.5376H141.099C143.915 20.5376 145.078 21.8764 145.078 24.0185C145.078 26.1513 143.915 27.3885 141.136 27.3885H137.516ZM150.489 20.5469H156.379V37H159.223V20.5469H165.123V18.0909H150.489V20.5469ZM171.21 18.0909H168.357V37H171.21V18.0909ZM191.07 24.2401C190.423 20.196 187.257 17.8324 183.259 17.8324C178.365 17.8324 174.755 21.4979 174.755 27.5455C174.755 33.593 178.347 37.2585 183.259 37.2585C187.414 37.2585 190.451 34.6548 191.07 30.9155L188.189 30.9062C187.7 33.3253 185.669 34.6548 183.277 34.6548C180.036 34.6548 177.59 32.1712 177.59 27.5455C177.59 22.9567 180.027 20.4361 183.286 20.4361C185.696 20.4361 187.718 21.7933 188.189 24.2401H191.07ZM197.337 18.0909H194.484V37H197.337V18.0909ZM201.491 37H204.344V30.3523H208.222C212.608 30.3523 214.778 27.7024 214.778 24.2124C214.778 20.7315 212.626 18.0909 208.232 18.0909H201.491V37ZM204.344 27.9332V20.5376H207.927C210.752 20.5376 211.906 22.0703 211.906 24.2124C211.906 26.3544 210.752 27.9332 207.964 27.9332H204.344ZM217.714 37L219.45 31.9957H226.836L228.562 37H231.591L224.786 18.0909H221.49L214.685 37H217.714ZM220.281 29.5952L223.069 21.5256H223.217L226.005 29.5952H220.281Z" fill="white"/>
</g>
<path d="M124.077 63C123.91 62.0483 123.114 61.1023 121.813 61.1023C120.362 61.1023 119.35 62.2869 119.35 64.0909C119.35 65.8949 120.362 67.0795 121.813 67.0795C123.114 67.0795 123.91 66.125 124.077 65.1818H123.714C123.563 65.9744 122.862 66.7386 121.813 66.7386C120.665 66.7386 119.7 65.8153 119.7 64.0909C119.7 62.3835 120.665 61.4432 121.813 61.4432C122.862 61.4432 123.563 62.2159 123.714 63H124.077ZM130.07 64.0909C130.07 62.2926 129.059 61.1023 127.61 61.1023C126.156 61.1023 125.147 62.2926 125.147 64.0909C125.147 65.8864 126.156 67.0795 127.61 67.0795C129.059 67.0795 130.07 65.8892 130.07 64.0909ZM129.724 64.0909C129.724 65.7074 128.843 66.7386 127.61 66.7386C126.366 66.7386 125.496 65.7017 125.496 64.0909C125.496 62.4659 126.377 61.4432 127.61 61.4432C128.843 61.4432 129.721 62.4744 129.724 64.0909ZM135.904 61.1818H135.552V66.3608H135.518L131.808 61.1818H131.458V67H131.813V61.8267H131.847L135.558 67H135.904V61.1818ZM140.719 62.6364H141.069C141.021 61.7443 140.302 61.0938 139.262 61.0938C138.228 61.0938 137.447 61.7386 137.447 62.6364C137.447 63.3466 137.935 63.8153 138.847 64.0938L139.526 64.2983C140.359 64.5511 140.799 64.875 140.799 65.4858C140.799 66.2472 140.148 66.7614 139.211 66.7614C138.342 66.7614 137.722 66.3125 137.665 65.5909H137.302C137.364 66.4801 138.086 67.0938 139.211 67.0938C140.393 67.0938 141.148 66.4119 141.148 65.4886C141.148 64.6477 140.495 64.2301 139.626 63.9688L138.989 63.7812C138.288 63.571 137.796 63.2273 137.796 62.625C137.796 61.929 138.404 61.4233 139.254 61.4233C140.089 61.4233 140.66 61.9148 140.719 62.6364ZM142.907 61.1818H142.552V67H142.907V61.1818ZM148.668 63H149.031C148.866 62.071 148.065 61.1023 146.75 61.1023C145.29 61.1023 144.295 62.2841 144.295 64.0909C144.295 65.892 145.281 67.0795 146.781 67.0795C148.114 67.0795 149.071 66.142 149.071 64.6023V64.2727H146.872V64.6023H148.724C148.716 65.9375 147.906 66.7386 146.781 66.7386C145.503 66.7386 144.645 65.7017 144.645 64.0909C144.645 62.4659 145.514 61.4432 146.75 61.4432C147.827 61.4432 148.491 62.2159 148.668 63ZM154.453 61.1818V65.0142C154.453 66.017 153.714 66.7528 152.661 66.7528C151.607 66.7528 150.868 66.017 150.868 65.0142V61.1818H150.513V65.0341C150.51 66.2159 151.411 67.0938 152.661 67.0938C153.913 67.0938 154.808 66.2188 154.808 65.0341V61.1818H154.453ZM156.489 67H159.796V66.6705H156.844V64.2528H159.555V63.9233H156.844V61.5114H159.728V61.1818H156.489V67ZM163.45 67H163.805V64.2528H166.428V63.9233H163.805V61.5114H166.697V61.1818H163.45V67ZM168.493 61.1818H168.138V67H168.493V61.1818ZM174.609 63C174.441 62.0483 173.646 61.1023 172.344 61.1023C170.893 61.1023 169.881 62.2869 169.881 64.0909C169.881 65.8949 170.893 67.0795 172.344 67.0795C173.646 67.0795 174.441 66.125 174.609 65.1818H174.245C174.094 65.9744 173.393 66.7386 172.344 66.7386C171.197 66.7386 170.231 65.8153 170.231 64.0909C170.231 62.3835 171.197 61.4432 172.344 61.4432C173.393 61.4432 174.094 62.2159 174.245 63H174.609ZM175.974 67H176.329V64.2528H179.835V67H180.19V61.1818H179.835V63.9233H176.329V61.1818H175.974V67ZM181.648 67L182.312 65.1392H184.841L185.506 67H185.881L183.781 61.1818H183.372L181.273 67H181.648ZM182.429 64.8097L183.562 61.6392H183.591L184.724 64.8097H182.429ZM190.102 62.6364H190.452C190.403 61.7443 189.685 61.0938 188.645 61.0938C187.611 61.0938 186.83 61.7386 186.83 62.6364C186.83 63.3466 187.318 63.8153 188.23 64.0938L188.909 64.2983C189.741 64.5511 190.182 64.875 190.182 65.4858C190.182 66.2472 189.531 66.7614 188.594 66.7614C187.724 66.7614 187.105 66.3125 187.048 65.5909H186.685C186.747 66.4801 187.469 67.0938 188.594 67.0938C189.776 67.0938 190.531 66.4119 190.531 65.4886C190.531 64.6477 189.878 64.2301 189.009 63.9688L188.372 63.7812C187.67 63.571 187.179 63.2273 187.179 62.625C187.179 61.929 187.787 61.4233 188.636 61.4233C189.472 61.4233 190.043 61.9148 190.102 62.6364ZM193.96 67L194.625 65.1392H197.153L197.818 67H198.193L196.094 61.1818H195.685L193.585 67H193.96ZM194.741 64.8097L195.875 61.6392H195.903L197.037 64.8097H194.741ZM203.633 64.0909C203.633 62.2926 202.621 61.1023 201.173 61.1023C199.718 61.1023 198.71 62.2926 198.71 64.0909C198.71 65.8864 199.718 67.0795 201.173 67.0795C201.638 67.0795 202.059 66.9574 202.417 66.7301L203.031 67.5455H203.44L202.678 66.5341C203.275 66.017 203.633 65.1619 203.633 64.0909ZM201.246 65.1818L202.21 66.4517C201.908 66.6392 201.556 66.7386 201.173 66.7386C199.928 66.7386 199.059 65.7017 199.059 64.0909C199.059 62.4659 199.94 61.4432 201.173 61.4432C202.406 61.4432 203.283 62.4744 203.286 64.0909C203.286 65.0483 202.977 65.8011 202.468 66.2557L201.656 65.1818H201.246ZM208.961 61.1818V65.0142C208.961 66.017 208.222 66.7528 207.168 66.7528C206.114 66.7528 205.376 66.017 205.376 65.0142V61.1818H205.021V65.0341C205.018 66.2159 205.918 67.0938 207.168 67.0938C208.421 67.0938 209.316 66.2188 209.316 65.0341V61.1818H208.961ZM211.352 61.1818H210.997V67H211.352V61.1818Z" fill="black"/>
<defs>
<filter id="filter0_d_2506_224" x="97.8333" y="17.8324" width="137.758" height="27.4261" filterUnits="userSpaceOnUse" color-interpolation-filters="sRGB">
<feFlood flood-opacity="0" result="BackgroundImageFix"/>
<feColorMatrix in="SourceAlpha" type="matrix" values="0 0 0 0 0 0 0 0 0 0 0 0 0 0 0 0 0 0 127 0" result="hardAlpha"/>
<feOffset dy="4"/>
<feGaussianBlur stdDeviation="2"/>
<feComposite in2="hardAlpha" operator="out"/>
<feColorMatrix type="matrix" values="0 0 0 0 0 0 0 0 0 0 0 0 0 0 0 0 0 0 0.15 0"/>
<feBlend mode="normal" in2="BackgroundImageFix" result="effect1_dropShadow_2506_224"/>
<feBlend mode="normal" in="SourceGraphic" in2="effect1_dropShadow_2506_224" result="shape"/>
</filter>
</defs>
</svg>
