<svg width="212" height="85" viewBox="0 0 212 85" fill="none" xmlns="http://www.w3.org/2000/svg">
<path d="M1.28 83.59C24.35 66.34 54.43 67.16 81.8 68.59C98.01 69.43 114.61 70.58 130.48 66.38C143.97 62.81 155.98 55.04 165.49 44.9C177.26 32.36 184.79 16.67 192.47 1.46997" stroke="#34D292" stroke-width="3" stroke-miterlimit="10"/>
<path d="M1.58002 51.88C17.24 47.56 34.69 53.37 50.09 56.62C66.55 60.09 82.95 63.84 99.47 66.99C115.8 70.11 132.26 72.34 148.77 74.25C162.95 75.89 180.07 76.09 191.78 66.53C202.66 57.65 206.51 43.87 210.39 30.98" stroke="#FFC236" stroke-width="3" stroke-miterlimit="10"/>
</svg>
