<svg width="331" height="55" viewBox="0 0 331 55" fill="none" xmlns="http://www.w3.org/2000/svg">
<rect x="0.5" width="330" height="55" rx="27.5" fill="#3EDD9D"/>
<path d="M106.064 34.5V21.4091H111.228C112.217 21.4091 113.061 21.5859 113.76 21.9396C114.463 22.2891 114.998 22.7855 115.364 23.429C115.735 24.0682 115.92 24.8203 115.92 25.6854C115.92 26.5547 115.733 27.3026 115.358 27.929C114.983 28.5511 114.439 29.0284 113.728 29.3608C113.02 29.6932 112.164 29.8594 111.158 29.8594H107.7V27.6349H110.711C111.239 27.6349 111.678 27.5625 112.027 27.4176C112.377 27.2727 112.637 27.0554 112.807 26.7656C112.982 26.4759 113.069 26.1158 113.069 25.6854C113.069 25.2507 112.982 24.8842 112.807 24.5859C112.637 24.2876 112.375 24.0618 112.021 23.9084C111.672 23.7507 111.23 23.6719 110.698 23.6719H108.831V34.5H106.064ZM113.133 28.5426L116.387 34.5H113.331L110.148 28.5426H113.133ZM122.141 34.6918C121.131 34.6918 120.262 34.4872 119.533 34.0781C118.809 33.6648 118.251 33.081 117.858 32.3267C117.466 31.5682 117.27 30.6712 117.27 29.6357C117.27 28.6257 117.466 27.7393 117.858 26.9766C118.251 26.2138 118.802 25.6193 119.514 25.1932C120.23 24.767 121.069 24.554 122.032 24.554C122.68 24.554 123.283 24.6584 123.841 24.8672C124.404 25.0717 124.894 25.3807 125.312 25.794C125.733 26.2074 126.062 26.7273 126.296 27.3537C126.53 27.9759 126.648 28.7045 126.648 29.5398V30.2876H118.357V28.6001H124.084C124.084 28.2081 123.999 27.8608 123.829 27.5582C123.658 27.2557 123.422 27.0192 123.119 26.8487C122.821 26.674 122.474 26.5866 122.077 26.5866C121.664 26.5866 121.297 26.6825 120.978 26.8743C120.662 27.0618 120.415 27.3153 120.236 27.6349C120.057 27.9503 119.966 28.3018 119.961 28.6896V30.294C119.961 30.7798 120.051 31.1996 120.23 31.5533C120.413 31.907 120.671 32.1797 121.003 32.3714C121.336 32.5632 121.73 32.6591 122.186 32.6591C122.488 32.6591 122.765 32.6165 123.017 32.5312C123.268 32.446 123.483 32.3182 123.662 32.1477C123.841 31.9773 123.978 31.7685 124.072 31.5213L126.59 31.6875C126.462 32.2926 126.2 32.821 125.804 33.2727C125.412 33.7202 124.905 34.0696 124.282 34.321C123.665 34.5682 122.951 34.6918 122.141 34.6918ZM133.647 24.6818V26.7273H127.734V24.6818H133.647ZM129.077 22.3295H131.8V31.483C131.8 31.7344 131.838 31.9304 131.915 32.071C131.991 32.2074 132.098 32.3033 132.234 32.3587C132.375 32.4141 132.537 32.4418 132.72 32.4418C132.848 32.4418 132.976 32.4311 133.104 32.4098C133.231 32.3842 133.329 32.3651 133.398 32.3523L133.826 34.3786C133.689 34.4212 133.498 34.4702 133.251 34.5256C133.003 34.5852 132.703 34.6214 132.349 34.6342C131.693 34.6598 131.118 34.5724 130.623 34.3722C130.133 34.1719 129.752 33.8608 129.479 33.4389C129.206 33.017 129.072 32.4844 129.077 31.8409V22.3295ZM135.421 34.5V24.6818H138.144V34.5H135.421ZM136.789 23.4162C136.384 23.4162 136.036 23.282 135.747 23.0135C135.461 22.7408 135.318 22.4148 135.318 22.0355C135.318 21.6605 135.461 21.3388 135.747 21.0703C136.036 20.7976 136.384 20.6612 136.789 20.6612C137.193 20.6612 137.539 20.7976 137.824 21.0703C138.114 21.3388 138.259 21.6605 138.259 22.0355C138.259 22.4148 138.114 22.7408 137.824 23.0135C137.539 23.282 137.193 23.4162 136.789 23.4162ZM140.325 34.5V24.6818H142.965V26.3949H143.067C143.246 25.7855 143.547 25.3253 143.968 25.0142C144.39 24.6989 144.876 24.5412 145.426 24.5412C145.562 24.5412 145.709 24.5497 145.867 24.5668C146.025 24.5838 146.163 24.6072 146.282 24.6371V27.0533C146.154 27.0149 145.978 26.9808 145.752 26.951C145.526 26.9212 145.319 26.9062 145.132 26.9062C144.731 26.9062 144.373 26.9936 144.058 27.1683C143.747 27.3388 143.5 27.5774 143.316 27.8842C143.137 28.1911 143.048 28.5447 143.048 28.9453V34.5H140.325ZM150.209 34.6854C149.582 34.6854 149.024 34.5767 148.534 34.3594C148.044 34.1378 147.656 33.8118 147.371 33.3814C147.089 32.9467 146.949 32.4055 146.949 31.7578C146.949 31.2124 147.049 30.7543 147.249 30.3835C147.449 30.0128 147.722 29.7145 148.067 29.4886C148.412 29.2628 148.805 29.0923 149.243 28.9773C149.687 28.8622 150.151 28.7812 150.637 28.7344C151.208 28.6747 151.668 28.6193 152.018 28.5682C152.367 28.5128 152.621 28.4318 152.778 28.3253C152.936 28.2187 153.015 28.0611 153.015 27.8523V27.8139C153.015 27.4091 152.887 27.0959 152.631 26.8743C152.38 26.6527 152.022 26.5419 151.557 26.5419C151.067 26.5419 150.677 26.6506 150.388 26.8679C150.098 27.081 149.906 27.3494 149.812 27.6733L147.294 27.4688C147.422 26.8722 147.673 26.3565 148.048 25.9219C148.423 25.483 148.907 25.1463 149.499 24.9119C150.096 24.6733 150.786 24.554 151.57 24.554C152.116 24.554 152.638 24.6179 153.136 24.7457C153.639 24.8736 154.084 25.0717 154.472 25.3402C154.864 25.6087 155.173 25.9538 155.399 26.3757C155.625 26.7933 155.738 27.294 155.738 27.8778V34.5H153.155V33.1385H153.079C152.921 33.4453 152.71 33.7159 152.446 33.9503C152.182 34.1804 151.864 34.3615 151.493 34.4936C151.123 34.6214 150.694 34.6854 150.209 34.6854ZM150.988 32.8061C151.389 32.8061 151.743 32.7273 152.05 32.5696C152.356 32.4077 152.597 32.1903 152.772 31.9176C152.947 31.6449 153.034 31.3359 153.034 30.9908V29.9489C152.949 30.0043 152.831 30.0554 152.682 30.1023C152.537 30.1449 152.373 30.1854 152.19 30.2237C152.007 30.2578 151.824 30.2898 151.64 30.3196C151.457 30.3452 151.291 30.3686 151.142 30.3899C150.822 30.4368 150.543 30.5114 150.305 30.6136C150.066 30.7159 149.881 30.8544 149.748 31.0291C149.616 31.1996 149.55 31.4126 149.55 31.6683C149.55 32.0391 149.684 32.3224 149.953 32.5185C150.226 32.7102 150.571 32.8061 150.988 32.8061ZM157.85 34.5V24.6818H160.49V26.3949H160.593C160.771 25.7855 161.072 25.3253 161.494 25.0142C161.916 24.6989 162.401 24.5412 162.951 24.5412C163.088 24.5412 163.235 24.5497 163.392 24.5668C163.55 24.5838 163.688 24.6072 163.808 24.6371V27.0533C163.68 27.0149 163.503 26.9808 163.277 26.951C163.051 26.9212 162.845 26.9062 162.657 26.9062C162.257 26.9062 161.899 26.9936 161.583 27.1683C161.272 27.3388 161.025 27.5774 160.842 27.8842C160.663 28.1911 160.573 28.5447 160.573 28.9453V34.5H157.85ZM169.433 34.5V21.4091H178.1V23.6911H172.2V26.8104H177.525V29.0923H172.2V34.5H169.433ZM179.911 34.5V24.6818H182.634V34.5H179.911ZM181.279 23.4162C180.874 23.4162 180.527 23.282 180.237 23.0135C179.951 22.7408 179.809 22.4148 179.809 22.0355C179.809 21.6605 179.951 21.3388 180.237 21.0703C180.527 20.7976 180.874 20.6612 181.279 20.6612C181.684 20.6612 182.029 20.7976 182.314 21.0703C182.604 21.3388 182.749 21.6605 182.749 22.0355C182.749 22.4148 182.604 22.7408 182.314 23.0135C182.029 23.282 181.684 23.4162 181.279 23.4162ZM189.251 34.6918C188.246 34.6918 187.381 34.4787 186.656 34.0526C185.936 33.6222 185.382 33.0256 184.994 32.2628C184.611 31.5 184.419 30.6222 184.419 29.6293C184.419 28.6236 184.613 27.7415 185.001 26.983C185.393 26.2202 185.949 25.6257 186.669 25.1996C187.389 24.7692 188.246 24.554 189.238 24.554C190.095 24.554 190.845 24.7095 191.488 25.0206C192.132 25.3317 192.641 25.7685 193.016 26.331C193.391 26.8935 193.598 27.554 193.636 28.3125H191.067C190.994 27.8224 190.802 27.4283 190.491 27.13C190.184 26.8274 189.782 26.6761 189.283 26.6761C188.861 26.6761 188.493 26.7912 188.177 27.0213C187.866 27.2472 187.623 27.5774 187.449 28.0121C187.274 28.4467 187.187 28.973 187.187 29.5909C187.187 30.2173 187.272 30.75 187.442 31.1889C187.617 31.6278 187.862 31.9624 188.177 32.1925C188.493 32.4226 188.861 32.5376 189.283 32.5376C189.594 32.5376 189.873 32.4737 190.121 32.3459C190.372 32.218 190.579 32.0327 190.741 31.7898C190.907 31.5426 191.015 31.2464 191.067 30.9013H193.636C193.594 31.6513 193.389 32.3118 193.023 32.8828C192.66 33.4496 192.16 33.8928 191.52 34.2124C190.881 34.532 190.125 34.6918 189.251 34.6918ZM198.103 28.8239V34.5H195.38V21.4091H198.026V26.4141H198.141C198.363 25.8345 198.721 25.3807 199.215 25.0526C199.709 24.7202 200.329 24.554 201.075 24.554C201.757 24.554 202.351 24.7031 202.858 25.0014C203.37 25.2955 203.766 25.7195 204.047 26.2734C204.333 26.8232 204.473 27.4815 204.469 28.2486V34.5H201.746V28.7344C201.75 28.1293 201.597 27.6584 201.286 27.3217C200.979 26.9851 200.549 26.8168 199.995 26.8168C199.624 26.8168 199.296 26.8956 199.01 27.0533C198.729 27.2109 198.507 27.4411 198.346 27.7436C198.188 28.0419 198.107 28.402 198.103 28.8239ZM209.412 34.6854C208.785 34.6854 208.227 34.5767 207.737 34.3594C207.247 34.1378 206.859 33.8118 206.574 33.3814C206.292 32.9467 206.152 32.4055 206.152 31.7578C206.152 31.2124 206.252 30.7543 206.452 30.3835C206.653 30.0128 206.925 29.7145 207.27 29.4886C207.616 29.2628 208.008 29.0923 208.447 28.9773C208.89 28.8622 209.354 28.7812 209.84 28.7344C210.411 28.6747 210.871 28.6193 211.221 28.5682C211.57 28.5128 211.824 28.4318 211.981 28.3253C212.139 28.2187 212.218 28.0611 212.218 27.8523V27.8139C212.218 27.4091 212.09 27.0959 211.834 26.8743C211.583 26.6527 211.225 26.5419 210.76 26.5419C210.27 26.5419 209.881 26.6506 209.591 26.8679C209.301 27.081 209.109 27.3494 209.015 27.6733L206.497 27.4688C206.625 26.8722 206.876 26.3565 207.251 25.9219C207.626 25.483 208.11 25.1463 208.702 24.9119C209.299 24.6733 209.989 24.554 210.773 24.554C211.319 24.554 211.841 24.6179 212.339 24.7457C212.842 24.8736 213.287 25.0717 213.675 25.3402C214.067 25.6087 214.376 25.9538 214.602 26.3757C214.828 26.7933 214.941 27.294 214.941 27.8778V34.5H212.358V33.1385H212.282C212.124 33.4453 211.913 33.7159 211.649 33.9503C211.385 34.1804 211.067 34.3615 210.697 34.4936C210.326 34.6214 209.898 34.6854 209.412 34.6854ZM210.192 32.8061C210.592 32.8061 210.946 32.7273 211.253 32.5696C211.559 32.4077 211.8 32.1903 211.975 31.9176C212.15 31.6449 212.237 31.3359 212.237 30.9908V29.9489C212.152 30.0043 212.035 30.0554 211.885 30.1023C211.741 30.1449 211.577 30.1854 211.393 30.2237C211.21 30.2578 211.027 30.2898 210.844 30.3196C210.66 30.3452 210.494 30.3686 210.345 30.3899C210.025 30.4368 209.746 30.5114 209.508 30.6136C209.269 30.7159 209.084 30.8544 208.952 31.0291C208.819 31.1996 208.753 31.4126 208.753 31.6683C208.753 32.0391 208.888 32.3224 209.156 32.5185C209.429 32.7102 209.774 32.8061 210.192 32.8061ZM225.222 27.4815L222.73 27.6349C222.687 27.4219 222.595 27.2301 222.455 27.0597C222.314 26.8849 222.129 26.7464 221.899 26.6442C221.673 26.5376 221.402 26.4844 221.087 26.4844C220.665 26.4844 220.309 26.5739 220.019 26.7528C219.73 26.9276 219.585 27.1619 219.585 27.456C219.585 27.6903 219.678 27.8885 219.866 28.0504C220.053 28.2124 220.375 28.3423 220.831 28.4403L222.608 28.7983C223.563 28.9943 224.274 29.3097 224.743 29.7443C225.212 30.179 225.446 30.75 225.446 31.4574C225.446 32.1009 225.257 32.6655 224.877 33.1513C224.502 33.6371 223.987 34.0163 223.33 34.2891C222.678 34.5575 221.926 34.6918 221.074 34.6918C219.774 34.6918 218.739 34.4212 217.968 33.88C217.2 33.3345 216.751 32.593 216.619 31.6555L219.297 31.5149C219.378 31.9112 219.574 32.2138 219.885 32.4226C220.196 32.6271 220.595 32.7294 221.08 32.7294C221.558 32.7294 221.941 32.6378 222.231 32.4545C222.525 32.267 222.674 32.0263 222.678 31.7322C222.674 31.4851 222.57 31.2827 222.365 31.125C222.161 30.9631 221.845 30.8395 221.419 30.7543L219.719 30.4155C218.76 30.2237 218.046 29.8913 217.578 29.4183C217.113 28.9453 216.881 28.3423 216.881 27.6094C216.881 26.9787 217.051 26.4354 217.392 25.9794C217.737 25.5234 218.221 25.1719 218.843 24.9247C219.47 24.6776 220.203 24.554 221.042 24.554C222.282 24.554 223.258 24.8161 223.97 25.3402C224.686 25.8643 225.103 26.5781 225.222 27.4815Z" fill="white"/>
</svg>
