<svg width="51" height="50" viewBox="0 0 51 50" fill="none" xmlns="http://www.w3.org/2000/svg">
<circle cx="25.5" cy="25" r="25" fill="#FFB700"/>
<path d="M26.003 13.7507C26.003 11.6793 27.6823 10 29.7537 10C31.8252 10 33.5045 11.6793 33.5045 13.7507C33.5045 14.7114 33.1433 15.5877 32.5494 16.2512H36.6301C38.386 16.2512 39.264 16.2512 39.8947 16.6727C40.1677 16.8551 40.4021 17.0895 40.5846 17.3625C41.006 17.9932 41.006 18.8712 41.006 20.6271C41.006 20.8842 41.006 21.1226 41.0046 21.344C41.0007 21.998 40.4636 22.5025 39.8097 22.5025L12.1963 22.5025C11.5423 22.5025 11.0052 21.998 11.0013 21.344C11 21.1225 11 20.8842 11 20.6271C11 18.8712 11 17.9932 11.4214 17.3625C11.6038 17.0895 11.8383 16.8551 12.1113 16.6727C12.742 16.2512 13.6199 16.2512 15.3759 16.2512H19.4565C18.8626 15.5877 18.5015 14.7114 18.5015 13.7507C18.5015 11.6793 20.1808 10 22.2522 10C24.3237 10 26.003 11.6793 26.003 13.7507Z" fill="white"/>
<path d="M38.5035 26.2563C38.5052 25.5656 37.9451 25.003 37.2543 25.003H28.5035C27.813 25.003 27.2532 25.5627 27.2532 26.2532V38.753C27.2532 39.4443 27.8151 40.0053 28.5064 40C32.6495 39.9678 35.0759 39.763 36.497 38.461C38.3051 36.8042 38.4855 33.371 38.5035 26.2563Z" fill="white"/>
<path d="M24.7527 26.2532C24.7527 25.5627 24.193 25.003 23.5025 25.003H14.7517C14.0609 25.003 13.5007 25.5656 13.5025 26.2563C13.5205 33.371 13.7009 36.8042 15.509 38.461C16.93 39.763 19.3564 39.9678 23.4996 40C24.1908 40.0053 24.7527 39.4443 24.7527 38.753V26.2532Z" fill="white"/>
<path d="M26.0001 13.4091C26.0001 11.5288 24.4738 10 22.591 10C20.7082 10 19.1819 11.5263 19.1819 13.4091C19.1819 15.2919 20.7082 16.8182 22.591 16.8182H26.0001M26.0001 13.4091C26.0001 14.7404 26.0001 16.8182 26.0001 16.8182M26.0001 13.4091C26.0001 11.5288 27.5264 10 29.4091 10C31.2919 10 32.8182 11.5263 32.8182 13.4091C32.8182 15.2919 31.2019 16.8182 29.4091 16.8182C27.7046 16.8182 26.0001 16.8182 26.0001 16.8182M26.0001 16.8182V39.9999M26.0001 16.8182C26.0001 16.8182 34.1817 16.8182 36.909 16.8182C39.6362 16.8182 40.9999 17.5 40.9999 20.2272C40.9999 22.9545 39.6362 23.6363 36.909 23.6363C34.1817 23.6363 16.4545 23.6363 14.4091 23.6363C12.3636 23.6363 11 22.9545 11 20.2272C11 17.5 12.2031 16.8182 14.4091 16.8182C16.6151 16.8182 26.0001 16.8182 26.0001 16.8182Z" stroke="#FFB700" stroke-width="2" stroke-linecap="round" stroke-linejoin="round"/>
</svg>
