<svg width="30" height="24" viewBox="0 0 30 24" fill="none" xmlns="http://www.w3.org/2000/svg">
<path fill-rule="evenodd" clip-rule="evenodd" d="M0 6C0 2.68629 2.68629 0 6 0H24C27.3137 0 30 2.68629 30 6V6.75C30 7.16421 29.6642 7.5 29.25 7.5L0.75 7.5C0.335787 7.5 0 7.16421 0 6.75V6ZM0.749999 10.5C0.335786 10.5 0 10.8358 0 11.25V18C0 21.3137 2.68629 24 6 24H24C27.3137 24 30 21.3137 30 18V11.25C30 10.8358 29.6642 10.5 29.25 10.5L0.749999 10.5ZM16.5 16.5C16.5 15.6716 17.1716 15 18 15H22.5C23.3284 15 24 15.6716 24 16.5C24 17.3284 23.3284 18 22.5 18H18C17.1716 18 16.5 17.3284 16.5 16.5Z" fill="#705BDE"/>
</svg>
