<svg width="24" height="24" viewBox="0 0 24 24" fill="none" xmlns="http://www.w3.org/2000/svg">
<path d="M13.794 23.9426H9.43645C8.87393 23.9426 8.38723 23.5511 8.26685 23.0017L7.77962 20.7463C7.12964 20.4615 6.51332 20.1054 5.94202 19.6844L3.74289 20.3847C3.20658 20.5558 2.62356 20.33 2.34225 19.8424L0.158686 16.0703C-0.119542 15.5825 -0.0236868 14.9671 0.389732 14.587L2.09564 13.0308C2.01807 12.3258 2.01807 11.6144 2.09564 10.9094L0.389732 9.35677C-0.0242957 8.97652 -0.120189 8.36042 0.158686 7.87233L2.33746 4.09778C2.61877 3.61018 3.20179 3.38445 3.73811 3.55548L5.93723 4.2558C6.22941 4.0393 6.53357 3.83947 6.84825 3.65723C7.15033 3.48687 7.46123 3.33263 7.77962 3.19514L8.26805 0.942142C8.38784 0.392621 8.87402 0.000591853 9.43645 0H13.794C14.3564 0.000591853 14.8426 0.392621 14.9624 0.942142L15.4556 3.19634C15.7918 3.3442 16.1191 3.51128 16.4361 3.69674C16.7321 3.86766 17.0183 4.05511 17.2932 4.25819L19.4935 3.55787C20.0295 3.38748 20.6118 3.61313 20.893 4.10017L23.0718 7.87472C23.35 8.36254 23.2541 8.97789 22.8407 9.35797L21.1348 10.9142C21.2124 11.6192 21.2124 12.3306 21.1348 13.0356L22.8407 14.5918C23.2541 14.9719 23.35 15.5873 23.0718 16.0751L20.893 19.8496C20.6118 20.3367 20.0295 20.5623 19.4935 20.3919L17.2932 19.6916C17.0148 19.8967 16.7255 20.0865 16.4265 20.2602C16.1126 20.4421 15.7889 20.6063 15.4568 20.7523L14.9624 23.0017C14.8421 23.5507 14.3561 23.9421 13.794 23.9426ZM11.6104 7.18278C8.96581 7.18278 6.82191 9.32668 6.82191 11.9713C6.82191 14.6159 8.96581 16.7598 11.6104 16.7598C14.2551 16.7598 16.399 14.6159 16.399 11.9713C16.399 9.32668 14.2551 7.18278 11.6104 7.18278Z" fill="#705BDE"/>
</svg>
