<svg width="21" height="24" viewBox="0 0 21 24" fill="none" xmlns="http://www.w3.org/2000/svg">
<path d="M19.3691 24H1.29127C0.578123 24 0 23.4219 0 22.7087V10.257C0.0200034 9.94053 0.154487 9.64218 0.378343 9.41764L9.41726 0.378714C9.65947 0.136242 9.98812 0 10.3308 0C10.6736 0 11.0022 0.136242 11.2444 0.378714L20.2833 9.41764C20.5258 9.65947 20.6615 9.98814 20.6604 10.3306V22.7087C20.6604 23.4219 20.0823 24 19.3691 24ZM9.52702 18.157C9.8111 18.3894 10.0861 18.6167 10.3302 18.8349C10.5885 18.6063 10.8777 18.37 11.185 18.1195L11.2586 18.0588C12.7642 16.8308 14.6392 15.3033 14.6392 13.4103C14.639 12.7857 14.3874 12.1875 13.9411 11.7504C13.4949 11.3134 12.8916 11.0744 12.2671 11.0873C11.5282 11.0853 10.8236 11.3986 10.3302 11.9485C9.83686 11.3984 9.13218 11.0851 8.39328 11.0873C7.76905 11.0751 7.16618 11.3146 6.72047 11.7518C6.27475 12.189 6.02368 12.7872 6.0238 13.4115C6.0238 15.2981 7.88323 16.8153 9.38111 18.0343H9.37982H9.38627L9.40952 18.0537H9.41597L9.4263 18.0782L9.49345 18.1337L9.51024 18.1467H9.51798L9.52702 18.157Z" fill="#705BDE"/>
</svg>
