<svg width="34" height="34" viewBox="0 0 34 34" fill="none" xmlns="http://www.w3.org/2000/svg">
<g filter="url(#filter0_d_2506_215)">
<path d="M18.794 24.9426H14.4364C13.8739 24.9426 13.3872 24.5511 13.2669 24.0017L12.7796 21.7463C12.1296 21.4615 11.5133 21.1054 10.942 20.6844L8.74289 21.3847C8.20658 21.5558 7.62356 21.33 7.34225 20.8424L5.15869 17.0703C4.88046 16.5825 4.97631 15.9671 5.38973 15.587L7.09564 14.0308C7.01807 13.3258 7.01807 12.6144 7.09564 11.9094L5.38973 10.3568C4.9757 9.97652 4.87981 9.36042 5.15869 8.87233L7.33746 5.09778C7.61877 4.61018 8.20179 4.38445 8.73811 4.55548L10.9372 5.2558C11.2294 5.0393 11.5336 4.83947 11.8483 4.65723C12.1503 4.48687 12.4612 4.33263 12.7796 4.19514L13.268 1.94214C13.3878 1.39262 13.874 1.00059 14.4364 1H18.794C19.3564 1.00059 19.8426 1.39262 19.9624 1.94214L20.4556 4.19634C20.7918 4.3442 21.1191 4.51128 21.4361 4.69674C21.7321 4.86766 22.0183 5.05511 22.2932 5.25819L24.4935 4.55787C25.0295 4.38748 25.6118 4.61313 25.893 5.10017L28.0718 8.87472C28.35 9.36254 28.2541 9.97789 27.8407 10.358L26.1348 11.9142C26.2124 12.6192 26.2124 13.3306 26.1348 14.0356L27.8407 15.5918C28.2541 15.9719 28.35 16.5873 28.0718 17.0751L25.893 20.8496C25.6118 21.3367 25.0295 21.5623 24.4935 21.3919L22.2932 20.6916C22.0148 20.8967 21.7255 21.0865 21.4265 21.2602C21.1126 21.4421 20.7889 21.6063 20.4568 21.7523L19.9624 24.0017C19.8421 24.5507 19.3561 24.9421 18.794 24.9426ZM16.6104 8.18278C13.9658 8.18278 11.8219 10.3267 11.8219 12.9713C11.8219 15.6159 13.9658 17.7598 16.6104 17.7598C19.2551 17.7598 21.399 15.6159 21.399 12.9713C21.399 10.3267 19.2551 8.18278 16.6104 8.18278Z" stroke="#7D7D7D" stroke-width="2" shape-rendering="crispEdges"/>
</g>
<defs>
<filter id="filter0_d_2506_215" x="0" y="0" width="33.23" height="33.9426" filterUnits="userSpaceOnUse" color-interpolation-filters="sRGB">
<feFlood flood-opacity="0" result="BackgroundImageFix"/>
<feColorMatrix in="SourceAlpha" type="matrix" values="0 0 0 0 0 0 0 0 0 0 0 0 0 0 0 0 0 0 127 0" result="hardAlpha"/>
<feOffset dy="4"/>
<feGaussianBlur stdDeviation="2"/>
<feComposite in2="hardAlpha" operator="out"/>
<feColorMatrix type="matrix" values="0 0 0 0 0 0 0 0 0 0 0 0 0 0 0 0 0 0 0.25 0"/>
<feBlend mode="normal" in2="BackgroundImageFix" result="effect1_dropShadow_2506_215"/>
<feBlend mode="normal" in="SourceGraphic" in2="effect1_dropShadow_2506_215" result="shape"/>
</filter>
</defs>
</svg>
