<svg width="375" height="203" viewBox="0 0 375 203" fill="none" xmlns="http://www.w3.org/2000/svg">
<g clip-path="url(#clip0_1501:4)">
<rect width="375" height="203" fill="white"/>
<g clip-path="url(#clip1_1501:4)">
<path d="M210.3 168.99C209.63 168.67 209.19 168.01 208.66 167.5C208.49 167.33 208.31 167.17 208.13 167.02C208.12 167.01 208.03 166.93 207.94 166.86C207.93 166.85 207.93 166.85 207.92 166.85C207.07 166.25 206.19 165.74 205.25 165.3C205.15 165.26 205.04 165.22 204.94 165.18C204.69 165.09 204.43 165 204.17 164.91C203.65 164.75 203.13 164.61 202.59 164.51C202.36 164.46 201.54 164.43 202.34 164.45C202.1 164.44 201.86 164.4 201.62 164.38C201.08 164.34 200.54 164.34 200 164.36C199.64 164.38 199.31 164.31 199.01 164.18C197.04 164.95 194.88 165.59 192.56 166C192.06 166.55 191.32 166.85 190.68 167.25C190.51 167.4 190.35 167.56 190.2 167.73C190.07 167.93 189.95 168.14 189.84 168.35C189.78 168.54 189.72 168.72 189.68 168.91C189.67 169.12 189.65 169.33 189.66 169.54C189.73 170.93 188.55 172.1 187.24 172.28C186.61 172.37 186.03 172.25 185.46 171.95C184.93 171.67 184.27 170.9 184.18 170.28C184.11 169.82 183.99 169.37 183.83 168.93C183.67 168.6 183.48 168.28 183.27 167.97C183.08 167.76 182.89 167.56 182.68 167.38C182.46 167.22 182.24 167.07 182 166.94C181.54 166.69 181.21 166.32 180.99 165.89C178.55 165.41 176.01 164.63 173.39 163.45C173.3 163.49 173.21 163.53 173.12 163.56C172.64 163.71 172.11 163.74 171.62 163.84C171.15 163.94 170.68 164.06 170.21 164.2C169.79 164.33 169.38 164.5 168.97 164.64C168.96 164.65 168.94 164.65 168.93 164.66C168.83 164.7 168.74 164.75 168.64 164.8C168.43 164.9 168.23 165 168.03 165.11C167.58 165.35 167.13 165.62 166.7 165.9C166.51 166.03 166.32 166.16 166.14 166.29C166.08 166.33 166.02 166.38 165.97 166.42C165.96 166.42 165.96 166.43 165.96 166.43C165.22 167.05 164.53 167.71 163.89 168.44C163.56 168.82 163.14 169.04 162.68 169.15C170.13 171.97 178.19 173.52 186.63 173.52C195.09 173.52 203.19 171.95 210.66 169.12C210.53 169.09 210.42 169.04 210.3 168.99Z" fill="#FBC029" stroke="#FBC029" stroke-width="3" stroke-miterlimit="10"/>
<path d="M186.62 38.07C149.21 38.07 118.89 68.39 118.89 105.8C118.89 133.57 135.6 157.42 159.51 167.87C158.9 166.82 159.17 165.45 159.96 164.53C161.44 162.81 163.29 161.34 165.29 160.28C165.73 160.05 166.18 159.84 166.64 159.64C166.29 159.4 165.93 159.17 165.58 158.92C157.22 152.87 151.74 140.4 150.94 139.51C150.3 138.79 149.68 138.06 149.48 137.09C149.25 135.99 149.87 134.83 150.76 133.94C152.78 131.92 155.97 125.56 155.57 125.4C155.11 125.22 150.45 126.97 141.48 122.18C134.21 118.29 131.7 113.2 130.45 110.37C118.03 82.35 140.14 47.03 167.99 69.5C173.29 73.78 178.68 87.59 179.24 86.85C185.14 79.13 185.14 74.52 192.95 84.94C192.97 84.89 195.58 84.68 195.85 84C196.69 81.87 197.98 79.98 199.13 78C202.23 72.66 224.55 48.61 241.15 73.63C241.5 74.16 246.88 85.57 245.17 99.34C244.33 106.08 238.15 117.82 234.23 120.65C233.48 121.19 229.97 127.35 216.4 124.47C216.64 125.66 219.98 132.34 220.42 132.66C222.35 134.08 224.31 138.4 223.04 139.56C220.41 141.98 215.05 151.64 211.66 155.84C211.22 156.39 209.52 158.09 206.81 159.99C207.18 160.12 207.55 160.27 207.92 160.43C209 160.9 210.01 161.49 210.95 162.19C212.19 163.13 213.87 164.35 214.29 165.92C214.45 166.52 214.39 167.14 214.15 167.68C237.83 157.13 254.34 133.4 254.34 105.8C254.35 68.4 224.03 38.07 186.62 38.07Z" fill="#FBC029" stroke="#FBC029" stroke-width="3" stroke-miterlimit="10"/>
<path d="M186.8 84.28C184.96 84.2 178.93 95.65 179.95 96.5C180.81 97.21 183.73 96.11 186.76 102C187.01 102.49 187.76 102.58 188.04 102.07C188.22 101.57 190.6 97.11 190.99 96.58C191.94 95.32 194.3 94.68 194.56 94.59C195.64 94.26 189.54 84.4 186.8 84.28Z" fill="#3EDD9D"/>
<path d="M204.75 166.04C204.71 166.01 204.68 166 204.64 165.98C204.62 165.96 204.6 165.93 204.57 165.9C204.56 165.88 204.55 165.86 204.54 165.84C204.59 165.64 204.55 165.42 204.36 165.21C204.06 164.87 203.72 164.6 203.35 164.35C203.19 164.17 203.03 163.99 202.85 163.83C202.55 163.55 202.21 163.12 201.83 163.08C201.82 163.06 201.81 163.04 201.8 163.03C201.68 162.94 201.59 162.88 201.51 162.83C201.43 162.7 201.3 162.6 201.13 162.56C200.86 162.48 200.58 162.42 200.3 162.38C200.16 162.35 200.01 162.33 199.86 162.32C199.84 162.32 199.82 162.32 199.8 162.31C199.51 162.28 199.21 162.27 198.91 162.28C198.13 162.12 197.3 162.06 196.63 162.46C196.61 162.48 196.61 162.5 196.59 162.53C196.18 162.59 195.79 162.7 195.4 162.85C194.69 163.03 193.91 163.17 193.43 163.71C193.43 163.72 193.43 163.73 193.42 163.73C191.52 164.49 189.81 165.67 188.54 167.32C188 168.06 187.54 168.38 187.81 169.11C187.84 169.15 187.87 169.17 187.9 169.2C187.91 169.28 187.92 169.35 187.95 169.43C188.03 169.55 188.12 169.62 188.22 169.68C187.78 170.55 187.43 171.45 187.29 172.42C187.53 171.52 188.02 170.56 188.55 169.77C188.91 169.76 189.23 169.43 189.28 169.28C189.57 168.85 189.71 168.66 189.89 168.44C189.99 168.41 190.1 168.37 190.2 168.32C190.27 168.32 190.33 168.34 190.4 168.32C191.13 168.12 191.82 167.83 192.51 167.53C192.66 167.56 192.82 167.55 193 167.5C196.31 167.43 199.61 167.4 202.92 167.46C203.64 167.44 203.59 167.58 204.45 167.65H204.46C205.49 167.7 205.42 166.51 204.75 166.04Z" fill="#3EDD9D"/>
<path d="M211.74 169.59C211.71 169.6 211.69 169.6 211.66 169.61C211.7 169.61 211.73 169.61 211.74 169.59Z" fill="#3EDD9D"/>
<path d="M202.3 162.93C201.77 163.34 197.85 166.34 195.47 166.97C195.17 167.05 191.41 167.76 190.21 168.29C189.96 168.12 186.9 171.68 186.9 171.69C186.86 171.79 186.88 174.39 187.23 174.48C189 174.35 197.88 173.37 199.36 173.03C204.09 171.96 212.21 170.05 212.38 169.48C212.41 169.29 203.29 162.15 202.3 162.93Z" fill="#3EDD9D"/>
<path d="M184.97 167.07C184.97 167.07 177.47 158.17 166.31 165.04C163.43 166.81 161.42 169.65 161.35 169.72C160.71 169.5 174.95 173.07 177.48 173.52C183.15 174.51 187.22 174.49 187.23 174.49C187.22 174.48 185.14 167.16 184.97 167.07Z" fill="#3EDD9D"/>
<path d="M173.62 195.64C173.91 196.05 174.22 196.43 174.5 196.84C174.32 196.4 173.92 195.9 173.62 195.64Z" fill="#3EDD9D"/>
<path d="M193.48 95.01C193.09 95.22 192.46 95.41 192.25 95.83C192.24 95.64 191.36 96.7 191.15 96.99C191.01 97.15 190.89 97.32 190.76 97.48C190.75 97.49 190.74 97.5 190.72 97.51C189.91 98.35 189.09 99.19 188.38 100.12C188.17 100.35 188.13 100.71 188.28 100.96C188.22 101.04 188.15 101.11 188.09 101.19C187.76 101.57 187.37 102.14 187.82 102.57C187.99 102.74 188.21 102.79 188.43 102.75C188.21 103.05 188.04 103.38 187.93 103.73C187.86 103.85 187.79 103.97 187.72 104.09C187.76 104.04 187.8 104 187.85 103.95C187.85 103.96 187.84 103.96 187.84 103.97C187.85 103.96 187.86 103.94 187.86 103.93C189.46 102.1 190.71 101.48 192.53 99.8C192.77 99.58 193.01 99.37 193.25 99.16C193.53 98.95 193.82 98.74 194.11 98.53C194.18 98.47 194.11 98.52 194.07 98.56C194.23 98.44 194.37 98.32 194.51 98.18C194.53 98.16 194.53 98.17 194.53 98.16C194.6 98.11 194.66 98.07 194.72 98.01C194.79 97.95 194.82 97.92 194.83 97.91C195.05 97.74 195.6 97.36 195.61 96.74C195.63 95.83 194.82 94.6 193.48 95.01Z" fill="black"/>
<path d="M186.75 101.25H186.76C186.72 101.21 186.71 101.19 186.68 101.16C186.67 101.15 186.66 101.14 186.65 101.13C186.64 101.11 186.62 101.1 186.61 101.09C186.49 100.84 186.26 100.61 186.09 100.43C186.07 100.41 186.05 100.39 186.04 100.37C185.98 100.29 185.92 100.2 185.83 100.09C185.8 100.06 185.77 100.05 185.75 100.03C185.51 99.74 185.26 99.45 184.99 99.19C184.85 99.05 184.67 98.9 184.48 98.83C184.27 98.48 183.92 98.12 183.56 98.09H183.55C183.44 98 183.33 97.91 183.22 97.81C183.15 97.68 183.05 97.57 182.88 97.5C182.85 97.49 182.83 97.5 182.8 97.49C182.17 97.04 181.48 96.69 180.7 96.66C180.43 96.62 180.14 96.62 179.86 96.64C179.78 96.54 179.67 96.47 179.49 96.44C179.07 96.41 178.86 96.71 178.71 97.09C178.31 97.26 178.12 97.79 178.2 98.21C178.23 98.3 178.27 98.36 178.31 98.42C178.32 98.52 178.34 98.6 178.37 98.68C178.39 99.08 178.69 99.35 179.04 99.37C179.21 99.55 179.46 99.65 179.7 99.64C179.78 99.68 179.87 99.7 179.97 99.71C180.15 99.93 180.47 100.01 180.74 99.91C180.84 99.95 180.97 99.95 181.11 99.92C181.22 100.1 181.39 100.23 181.69 100.25C181.81 100.23 181.91 100.19 182 100.15C182.05 100.14 182.1 100.13 182.14 100.12C182.16 100.12 182.19 100.12 182.22 100.11C182.28 100.15 182.34 100.18 182.4 100.21C182.4 100.21 182.4 100.21 182.41 100.21C182.41 100.21 182.41 100.21 182.42 100.21C182.53 100.27 182.66 100.3 182.79 100.3C182.89 100.37 183.01 100.4 183.13 100.4C183.21 100.48 183.3 100.56 183.42 100.6C183.53 100.63 183.64 100.63 183.74 100.61C183.87 100.68 184.03 100.71 184.17 100.69C184.33 100.88 184.5 101.06 184.7 101.22C184.89 101.34 185.09 101.34 185.27 101.28C185.3 101.3 185.32 101.32 185.35 101.33C185.55 101.54 185.78 101.78 186.02 101.88C186.14 101.97 186.28 102.03 186.44 102.01C186.44 102.01 186.44 102.01 186.45 102.01C186.86 102.06 187.03 101.6 186.75 101.25Z" fill="black"/>
<path d="M153 137.79C157.21 139.79 159.08 144.62 161.57 148.57C167.04 157.23 177.23 162.69 187.47 162.44C197.71 162.19 207.63 156.25 212.67 147.34C213.75 145.44 214.62 143.41 215.89 141.62C217.16 139.84 218.93 138.28 221.07 137.84" stroke="black" stroke-miterlimit="10"/>
<path d="M152.45 135.26C154.13 135.01 155.91 135.6 157.1 136.82" stroke="black" stroke-miterlimit="10"/>
<path d="M215.83 137.65C217.04 136.73 218.48 136.11 219.98 135.85" stroke="black" stroke-miterlimit="10"/>
<path d="M187.5 103.13C189.69 101.48 191.89 99.84 194.08 98.19C194.86 97.6 195.74 96.76 195.48 95.81C195.25 95.01 194.24 94.65 193.43 94.87C192.62 95.09 192 95.71 191.44 96.32C189.71 98.23 188.2 100.43 187.56 102.92C186.22 100.36 184.04 98.24 181.43 96.98C180.84 96.69 180.2 96.44 179.55 96.5C178.9 96.56 178.24 97.01 178.14 97.66C178.05 98.27 178.49 98.86 179.02 99.17C179.55 99.48 180.18 99.57 180.79 99.71C183.38 100.3 185.78 101.7 187.5 103.13Z" stroke="black" stroke-miterlimit="10"/>
<path d="M179.28 96.45C180.61 92.98 182.23 89.62 184.12 86.42C184.72 85.4 185.49 84.3 186.66 84.13C188.04 83.93 189.19 85.13 190.03 86.25C192.1 89.01 193.92 91.96 195.19 95.11C195.57 92.5 195.95 89.9 196.33 87.29C196 87.29 195.67 87.28 195.34 87.28C195.23 89.79 195.12 92.31 195.01 94.82" stroke="black" stroke-miterlimit="10"/>
<path d="M178.94 97C175.7 85.83 170.2 74.52 160.22 68.53C156.53 66.31 152.14 64.91 147.9 65.69C142.91 66.61 138.88 70.44 136.27 74.79C131.04 83.53 130.65 94.59 133.58 104.35C135.14 109.51 137.68 114.55 141.84 117.99C146 121.42 151.98 122.97 156.95 120.89C158.23 120.35 159.86 119.65 160.85 120.62C161.57 121.33 161.43 122.5 161.22 123.49C160.38 127.24 158.9 130.38 157.1 133.78" stroke="black" stroke-miterlimit="10"/>
<path d="M150.03 67.71C156.38 69.05 162.12 73.09 165.52 78.62C168.92 84.15 169.94 91.09 168.28 97.36C167.48 100.38 166.08 103.58 167.21 106.5" stroke="black" stroke-miterlimit="10"/>
<path d="M195.13 97C198.37 85.83 203.87 74.52 213.85 68.53C217.54 66.31 221.93 64.91 226.17 65.69C231.16 66.61 235.19 70.44 237.8 74.79C243.03 83.53 243.42 94.59 240.49 104.35C238.93 109.51 236.39 114.55 232.23 117.99C228.07 121.42 222.09 122.97 217.12 120.89C215.84 120.35 214.21 119.65 213.22 120.62C212.5 121.33 212.64 122.5 212.85 123.49C213.69 127.24 215.02 130.88 216.81 134.28" stroke="black" stroke-miterlimit="10"/>
<path d="M224.04 67.71C217.69 69.05 211.95 73.09 208.55 78.62C205.15 84.15 204.13 91.09 205.79 97.36C206.59 100.38 207.99 103.58 206.86 106.5" stroke="black" stroke-miterlimit="10"/>
<path d="M206.13 122.78C205.78 121.24 204.92 119.57 203.24 119.23C202.16 119.07 201.13 119.66 200.18 120.11C201.05 119.91 202.01 119.61 202.85 119.65C204.25 119.91 205.16 121.02 205.81 122.36C205.93 122.59 206.14 123.03 206.25 123.13C206.2 123.01 206.16 122.9 206.13 122.78Z" fill="black"/>
<path d="M200.77 136.38C202.013 136.38 203.02 134.925 203.02 133.13C203.02 131.335 202.013 129.88 200.77 129.88C199.527 129.88 198.52 131.335 198.52 133.13C198.52 134.925 199.527 136.38 200.77 136.38Z" fill="black"/>
<path d="M168.15 122.78C168.5 121.24 169.36 119.57 171.04 119.23C172.12 119.07 173.15 119.66 174.1 120.11C173.23 119.91 172.27 119.61 171.43 119.65C170.03 119.91 169.12 121.02 168.47 122.36C168.35 122.59 168.14 123.03 168.03 123.13C168.07 123.01 168.12 122.9 168.15 122.78Z" fill="black"/>
<path d="M173.5 136.38C174.743 136.38 175.75 134.925 175.75 133.13C175.75 131.335 174.743 129.88 173.5 129.88C172.257 129.88 171.25 131.335 171.25 133.13C171.25 134.925 172.257 136.38 173.5 136.38Z" fill="black"/>
<path d="M185.63 143.33C186.31 143.38 188.59 143.1 190.15 143.83C190.4 144.1 190.45 144.5 190.32 144.83C190.13 145.24 189.63 145.53 189.24 145.81C188.74 146.16 187.6 147 187.01 147.34C186.5 147.58 185.28 143.55 185.63 143.33Z" fill="black"/>
<path d="M186.76 147.18C186.77 147.18 187.03 147.28 187.03 147.28C187.03 147.28 187 148.35 187 148.78C186.99 148.95 186.76 148.94 186.76 148.77C186.76 148.62 186.76 147.18 186.76 147.18Z" fill="black"/>
<path d="M187.92 143.33C187.24 143.38 184.96 143.1 183.4 143.83C183.15 144.1 183.1 144.5 183.23 144.83C183.42 145.24 183.92 145.53 184.31 145.81C184.81 146.16 185.95 147 186.54 147.34C187.05 147.58 188.26 143.55 187.92 143.33Z" fill="black"/>
<path d="M186.89 147.18C186.88 147.18 186.62 147.28 186.62 147.28C186.62 147.28 186.65 148.35 186.65 148.78C186.66 148.95 186.89 148.94 186.89 148.77C186.89 148.62 186.9 147.18 186.89 147.18Z" fill="black"/>
<path d="M186.77 173.53C186.77 173.53 186.07 168.25 184.61 166.5C183.15 164.75 181.08 163.56 178.91 162.75C177.14 162.09 175.18 161.67 173.37 162.2C170.85 162.94 169.27 165.29 167.89 167.47C170.63 167.32 173.37 167.18 176.11 167.03C178.09 166.92 180.16 166.83 181.99 167.58C184.45 168.59 186.76 170.9 186.76 173.49L186.77 173.53Z" stroke="black" stroke-miterlimit="10"/>
<path d="M171.75 162.83C169.13 162.36 162.17 167.24 161.25 169.69" stroke="black" stroke-miterlimit="10"/>
<path d="M186.77 173.53C186.77 173.53 187.47 168.25 188.93 166.5C190.39 164.75 192.46 163.56 194.63 162.75C196.4 162.09 198.36 161.67 200.17 162.2C202.69 162.94 204.27 165.29 205.65 167.47C202.91 167.32 200.17 167.18 197.43 167.03C195.45 166.92 193.38 166.83 191.55 167.58C189.09 168.59 186.78 170.9 186.78 173.49L186.77 173.53Z" stroke="black" stroke-miterlimit="10"/>
<path d="M201.8 162.83C204.42 162.36 211.38 167.24 212.3 169.69" stroke="black" stroke-miterlimit="10"/>
<path d="M186.62 38.07C149.21 38.07 118.89 68.39 118.89 105.8C118.89 143.21 149.21 173.53 186.62 173.53C224.03 173.53 254.35 143.21 254.35 105.8C254.35 68.4 224.03 38.07 186.62 38.07Z" stroke="#FBC029" stroke-width="3" stroke-miterlimit="10"/>
<path d="M2.11011 158.99C28.7301 144.23 57.9901 152.04 84.4801 162.74C101.62 169.66 118.54 176.87 136.63 181.02C152.64 184.69 169.23 186.12 185.62 184.75C217.16 182.1 246.74 167.96 264.43 141.02C280.89 115.95 285.27 82.34 267.64 56.7C251.24 32.83 219.8 22.84 191.56 22.07C161.08 21.24 131.36 31.15 112.37 55.7C94.1801 79.23 89.0901 111.62 103.04 138.44C116.57 164.46 143.91 181.54 172.13 187.31C204.92 194.01 239.25 185.62 265.93 165.62C280.58 154.64 293.09 141.11 306.78 129.01C319.87 117.44 334.42 107.57 350.27 100.17C358.51 96.32 367.05 93.12 375.77 90.57" stroke="black" stroke-width="3" stroke-miterlimit="10"/>
<path d="M-0.780029 134.34C33.77 122.75 69.51 139.13 100.14 154.26C133.79 170.88 168.2 188.36 206.91 181.67C237.51 176.38 266.34 157.89 282.53 131.19C297.17 107.06 301.55 74.32 287.25 49.01C269.92 18.32 229.86 10.72 197.61 8.65999C165.34 6.59999 131.44 12.39 105.33 32.61C79.76 52.4 66.44 84.22 75.23 116C83.83 147.1 109.88 170.75 140.06 180.56C173.68 191.48 210.48 185.89 242.69 172.89C276.79 159.13 307.35 132.88 344.96 129.22C353.77 128.36 362.69 128.77 371.4 130.35" stroke="#3EDD9D" stroke-width="3" stroke-miterlimit="10"/>
</g>
</g>
<defs>
<clipPath id="clip0_1501:4">
<rect width="375" height="203" fill="white"/>
</clipPath>
<clipPath id="clip1_1501:4">
<rect width="375" height="667" fill="white"/>
</clipPath>
</defs>
</svg>
