<svg width="27" height="26" viewBox="0 0 27 26" fill="none" xmlns="http://www.w3.org/2000/svg">
<path fill-rule="evenodd" clip-rule="evenodd" d="M11.6203 2.2618C12.32 0.579397 14.7033 0.579404 15.4031 2.2618L17.7631 7.93599C17.8053 8.03731 17.9005 8.10654 18.0099 8.11531L24.1357 8.60641C25.952 8.75202 26.6885 11.0187 25.3046 12.2041L20.6375 16.202C20.5541 16.2734 20.5177 16.3854 20.5432 16.4922L21.9691 22.4699C22.3919 24.2423 20.4637 25.6431 18.9087 24.6933L13.6642 21.49C13.5706 21.4328 13.4528 21.4328 13.3591 21.49L8.11463 24.6933C6.55963 25.6431 4.63151 24.2422 5.05428 22.4699L6.48019 16.4922C6.50565 16.3854 6.46925 16.2734 6.38591 16.202L1.71873 12.2041C0.334902 11.0187 1.07139 8.75202 2.88768 8.60641L9.01344 8.11531C9.12282 8.10654 9.21811 8.03731 9.26025 7.93599L11.6203 2.2618ZM13.7819 2.9361C13.6819 2.69575 13.3414 2.69575 13.2415 2.93609L10.8815 8.61028C10.5865 9.31954 9.91945 9.80414 9.15375 9.86553L3.02799 10.3566C2.76852 10.3774 2.66331 10.7012 2.861 10.8706L7.52818 14.8685C8.11157 15.3682 8.36634 16.1524 8.18811 16.8996L6.7622 22.8773C6.70181 23.1305 6.97726 23.3306 7.1994 23.1949L12.4439 19.9916C13.0994 19.5912 13.9239 19.5912 14.5795 19.9916L19.824 23.1949C20.0461 23.3306 20.3216 23.1305 20.2612 22.8773L18.8353 16.8996C18.657 16.1524 18.9118 15.3682 19.4952 14.8685L24.1624 10.8706C24.3601 10.7012 24.2548 10.3774 23.9954 10.3566L17.8696 9.86553C17.1039 9.80414 16.4369 9.31954 16.1419 8.61028L13.7819 2.9361Z" fill="#7D7D7D" stroke="#7D7D7D" stroke-width="0.5"/>
</svg>
