<svg width="45" height="44" viewBox="0 0 45 44" fill="none" xmlns="http://www.w3.org/2000/svg">
<path d="M5.38889 0C2.71696 0 0.5 2.21696 0.5 4.88889V39.1111C0.5 41.783 2.71696 44 5.38889 44H39.6111C42.283 44 44.5 41.783 44.5 39.1111V4.88889C44.5 2.21696 42.283 0 39.6111 0H5.38889ZM5.38889 4.88889H39.6111V39.1111H5.38889V4.88889ZM27.3889 9.77778V14.6667H34.7222V9.77778H27.3889ZM13.7869 9.78255C12.6624 9.73611 11.6328 10.2939 10.9557 11.191C8.5944 14.3101 13.0652 17.9594 14.1163 18.9397C14.7445 19.5263 15.5258 20.2239 15.9878 20.6345C16.2201 20.8423 16.5625 20.8423 16.7947 20.6345C17.2591 20.2214 18.0332 19.5239 18.6615 18.9397C19.7126 17.9594 24.1834 14.3101 21.822 11.191C21.1425 10.2939 20.1153 9.73611 18.9909 9.78255C17.3164 9.851 16.3889 11.0525 16.3889 11.0525C16.3889 11.0525 15.4613 9.851 13.7869 9.78255ZM22.5 19.5556V24.4444H34.7222V19.5556H22.5ZM10.2778 29.3333V34.2222H34.7222V29.3333H10.2778Z" fill="#3EDD9D"/>
</svg>
