<svg width="30" height="24" viewBox="0 0 30 24" fill="none" xmlns="http://www.w3.org/2000/svg">
<path fill-rule="evenodd" clip-rule="evenodd" d="M0 6C0 2.68629 2.68629 0 6 0H24C27.3137 0 30 2.68629 30 6V18C30 21.3137 27.3137 24 24 24H6C2.68629 24 0 21.3137 0 18V6ZM6 3C4.34315 3 3 4.34315 3 6V7.5H27V6C27 4.34315 25.6569 3 24 3H6ZM3 18V10.5H27V18C27 19.6569 25.6569 21 24 21H6C4.34315 21 3 19.6569 3 18ZM18 15C17.1716 15 16.5 15.6716 16.5 16.5C16.5 17.3284 17.1716 18 18 18H22.5C23.3284 18 24 17.3284 24 16.5C24 15.6716 23.3284 15 22.5 15H18Z" fill="#7D7D7D"/>
</svg>
