<svg width="982" height="695" viewBox="0 0 982 695" fill="none" xmlns="http://www.w3.org/2000/svg">
<path d="M250.506 288.463H248.841L248.928 270.429H250.419L250.506 288.463ZM249.673 262.847C250.046 262.847 250.361 262.98 250.618 263.245C250.883 263.502 251.016 263.816 251.016 264.189C251.016 264.554 250.883 264.869 250.618 265.134C250.353 265.399 250.038 265.532 249.673 265.532C249.309 265.532 248.994 265.399 248.729 265.134C248.464 264.869 248.331 264.554 248.331 264.189C248.331 263.941 248.389 263.717 248.505 263.518C248.629 263.311 248.791 263.149 248.99 263.033C249.197 262.909 249.425 262.847 249.673 262.847ZM258.01 282V256.545H272.179V257.987H259.564V268.539H271.421V269.981H259.564V280.558H272.477V282H258.01ZM279.602 256.545V282H278.086V256.545H279.602ZM302.273 282.398C300.74 282.398 299.402 281.975 298.258 281.13C297.115 280.285 296.228 279.121 295.598 277.637C294.977 276.146 294.666 274.435 294.666 272.504C294.666 270.59 294.981 268.892 295.611 267.408C296.249 265.917 297.14 264.749 298.283 263.903C299.426 263.05 300.761 262.623 302.285 262.623C303.379 262.623 304.328 262.835 305.131 263.257C305.943 263.671 306.623 264.222 307.17 264.91C307.725 265.598 308.147 266.352 308.438 267.172H308.587V256.545H310.091V282H308.624V277.836H308.438C308.131 278.657 307.704 279.415 307.157 280.111C306.61 280.799 305.931 281.354 305.119 281.776C304.307 282.191 303.358 282.398 302.273 282.398ZM302.409 280.993C303.702 280.993 304.808 280.625 305.728 279.887C306.656 279.141 307.364 278.13 307.853 276.854C308.35 275.57 308.599 274.116 308.599 272.492C308.599 270.868 308.35 269.422 307.853 268.154C307.364 266.878 306.656 265.875 305.728 265.146C304.808 264.409 303.702 264.04 302.409 264.04C301.1 264.04 299.978 264.413 299.041 265.159C298.113 265.896 297.401 266.903 296.903 268.179C296.415 269.455 296.17 270.893 296.17 272.492C296.17 274.091 296.415 275.533 296.903 276.817C297.401 278.101 298.113 279.121 299.041 279.875C299.978 280.62 301.1 280.993 302.409 280.993ZM316.989 282V262.909H318.493V282H316.989ZM317.747 259.528C317.415 259.528 317.125 259.412 316.877 259.18C316.636 258.948 316.516 258.667 316.516 258.335C316.516 258.004 316.636 257.722 316.877 257.49C317.117 257.258 317.407 257.142 317.747 257.142C318.078 257.142 318.364 257.258 318.604 257.49C318.853 257.722 318.977 258.004 318.977 258.335C318.977 258.667 318.857 258.948 318.617 259.18C318.377 259.412 318.087 259.528 317.747 259.528ZM326.36 269.621V282H324.844V262.909H326.323V265.929H326.472C326.919 264.943 327.636 264.152 328.622 263.555C329.608 262.959 330.781 262.661 332.14 262.661C333.424 262.661 334.551 262.934 335.52 263.481C336.498 264.028 337.26 264.807 337.807 265.817C338.362 266.82 338.64 268.017 338.64 269.409V282H337.124V269.472C337.124 267.848 336.639 266.542 335.669 265.556C334.708 264.562 333.436 264.065 331.854 264.065C330.793 264.065 329.848 264.297 329.02 264.761C328.191 265.225 327.541 265.875 327.069 266.712C326.596 267.541 326.36 268.51 326.36 269.621ZM352.386 282.398C350.663 282.398 349.163 281.971 347.887 281.118C346.611 280.264 345.625 279.096 344.929 277.613C344.233 276.129 343.885 274.439 343.885 272.542C343.885 270.636 344.233 268.937 344.929 267.446C345.633 265.954 346.599 264.778 347.825 263.916C349.051 263.054 350.452 262.623 352.026 262.623C353.095 262.623 354.106 262.839 355.059 263.27C356.02 263.692 356.865 264.305 357.594 265.109C358.332 265.913 358.907 266.882 359.322 268.017C359.744 269.153 359.956 270.429 359.956 271.846V272.79H344.842V271.411H358.439C358.439 270.027 358.158 268.78 357.594 267.669C357.031 266.559 356.264 265.677 355.295 265.022C354.325 264.367 353.236 264.04 352.026 264.04C350.758 264.04 349.627 264.396 348.633 265.109C347.647 265.813 346.864 266.766 346.284 267.968C345.712 269.169 345.414 270.511 345.389 271.995V272.616C345.389 274.207 345.666 275.636 346.222 276.904C346.785 278.164 347.589 279.162 348.633 279.9C349.677 280.629 350.928 280.993 352.386 280.993C353.43 280.993 354.321 280.819 355.059 280.471C355.804 280.115 356.413 279.684 356.886 279.179C357.358 278.673 357.714 278.184 357.955 277.712L359.334 278.271C359.044 278.909 358.593 279.547 357.979 280.185C357.375 280.815 356.604 281.341 355.668 281.764C354.74 282.186 353.646 282.398 352.386 282.398ZM365.176 282V262.909H366.655V265.892H366.792C367.206 264.914 367.906 264.131 368.892 263.543C369.878 262.946 371.001 262.648 372.26 262.648C372.393 262.648 372.525 262.648 372.658 262.648C372.791 262.648 372.915 262.652 373.031 262.661V264.189C372.931 264.181 372.811 264.169 372.67 264.152C372.538 264.127 372.372 264.115 372.173 264.115C371.113 264.115 370.168 264.343 369.339 264.798C368.519 265.254 367.873 265.884 367.401 266.688C366.928 267.483 366.692 268.394 366.692 269.422V282H365.176ZM383.62 282.398C382.046 282.398 380.646 281.975 379.419 281.13C378.193 280.277 377.228 279.104 376.523 277.613C375.819 276.121 375.467 274.422 375.467 272.517C375.467 270.603 375.819 268.904 376.523 267.421C377.228 265.929 378.193 264.757 379.419 263.903C380.646 263.05 382.046 262.623 383.62 262.623C385.195 262.623 386.595 263.05 387.821 263.903C389.048 264.757 390.013 265.929 390.717 267.421C391.422 268.912 391.774 270.611 391.774 272.517C391.774 274.422 391.422 276.121 390.717 277.613C390.013 279.104 389.048 280.277 387.821 281.13C386.595 281.975 385.195 282.398 383.62 282.398ZM383.62 280.993C384.954 280.993 386.119 280.616 387.113 279.862C388.116 279.108 388.89 278.089 389.437 276.805C389.992 275.52 390.27 274.091 390.27 272.517C390.27 270.942 389.992 269.517 389.437 268.241C388.882 266.957 388.107 265.938 387.113 265.184C386.119 264.421 384.954 264.04 383.62 264.04C382.286 264.04 381.122 264.421 380.128 265.184C379.134 265.938 378.359 266.957 377.804 268.241C377.248 269.517 376.971 270.942 376.971 272.517C376.971 274.091 377.244 275.52 377.791 276.805C378.346 278.089 379.121 279.108 380.115 279.862C381.118 280.616 382.286 280.993 383.62 280.993ZM418.972 267.023L417.567 267.396C417.343 266.7 417.024 266.099 416.61 265.594C416.196 265.088 415.674 264.699 415.044 264.425C414.422 264.144 413.677 264.003 412.807 264.003C411.406 264.003 410.259 264.351 409.364 265.047C408.477 265.743 408.034 266.65 408.034 267.769C408.034 268.68 408.336 269.434 408.941 270.031C409.546 270.619 410.47 271.067 411.713 271.373L414.646 272.107C416.154 272.479 417.289 273.084 418.052 273.921C418.814 274.75 419.195 275.781 419.195 277.016C419.195 278.068 418.909 279 418.338 279.812C417.766 280.625 416.975 281.258 415.964 281.714C414.961 282.17 413.793 282.398 412.459 282.398C410.677 282.398 409.215 281.983 408.071 281.155C406.928 280.318 406.195 279.121 405.871 277.563L407.326 277.19C407.599 278.433 408.167 279.382 409.028 280.036C409.898 280.683 411.038 281.006 412.446 281.006C414.004 281.006 415.259 280.637 416.212 279.9C417.173 279.162 417.654 278.217 417.654 277.066C417.654 276.187 417.372 275.446 416.809 274.841C416.245 274.236 415.392 273.793 414.248 273.511L411.203 272.765C409.646 272.384 408.477 271.775 407.698 270.938C406.92 270.093 406.53 269.053 406.53 267.819C406.53 266.791 406.799 265.888 407.338 265.109C407.877 264.33 408.618 263.721 409.563 263.282C410.507 262.843 411.589 262.623 412.807 262.623C414.422 262.623 415.74 263.004 416.759 263.767C417.778 264.529 418.516 265.614 418.972 267.023ZM424.518 282V262.909H426.022V282H424.518ZM424.543 260.187L427.874 254.694H429.676L425.935 260.187H424.543ZM443.733 269.621V282H442.217V256.545H443.733V265.929H443.882C444.33 264.935 445.042 264.144 446.02 263.555C447.006 262.959 448.187 262.661 449.562 262.661C450.847 262.661 451.978 262.934 452.955 263.481C453.933 264.019 454.695 264.794 455.242 265.805C455.798 266.808 456.075 268.009 456.075 269.409V282H454.571V269.472C454.571 267.839 454.086 266.53 453.117 265.544C452.148 264.558 450.867 264.065 449.276 264.065C448.208 264.065 447.255 264.297 446.418 264.761C445.581 265.225 444.922 265.875 444.442 266.712C443.969 267.541 443.733 268.51 443.733 269.621ZM467.407 282.41C466.305 282.41 465.294 282.191 464.375 281.751C463.463 281.312 462.73 280.67 462.175 279.825C461.628 278.98 461.354 277.952 461.354 276.743C461.354 275.947 461.495 275.247 461.777 274.642C462.059 274.037 462.494 273.515 463.082 273.076C463.67 272.637 464.424 272.276 465.344 271.995C466.264 271.705 467.362 271.481 468.638 271.324C469.607 271.208 470.473 271.096 471.235 270.988C471.998 270.872 472.594 270.694 473.025 270.453C473.464 270.213 473.684 269.849 473.684 269.36V268.564C473.684 267.172 473.245 266.066 472.366 265.246C471.488 264.425 470.278 264.015 468.737 264.015C467.37 264.015 466.218 264.318 465.282 264.923C464.354 265.519 463.703 266.29 463.331 267.234L461.901 266.7C462.266 265.788 462.792 265.03 463.48 264.425C464.176 263.821 464.971 263.369 465.866 263.071C466.769 262.772 467.714 262.623 468.7 262.623C469.553 262.623 470.365 262.743 471.136 262.984C471.915 263.224 472.607 263.589 473.212 264.077C473.825 264.566 474.309 265.192 474.666 265.954C475.022 266.708 475.2 267.611 475.2 268.664V282H473.684V278.557H473.572C473.241 279.27 472.785 279.92 472.205 280.509C471.633 281.089 470.941 281.553 470.129 281.901C469.325 282.24 468.418 282.41 467.407 282.41ZM467.556 281.006C468.75 281.006 469.806 280.716 470.726 280.136C471.654 279.547 472.379 278.744 472.901 277.724C473.423 276.705 473.684 275.549 473.684 274.257V271.448C473.493 271.614 473.216 271.763 472.851 271.895C472.495 272.02 472.089 272.131 471.633 272.231C471.186 272.322 470.713 272.405 470.216 272.479C469.727 272.546 469.251 272.608 468.787 272.666C467.395 272.832 466.26 273.088 465.381 273.436C464.511 273.776 463.873 274.224 463.467 274.779C463.07 275.334 462.871 276.005 462.871 276.792C462.871 278.093 463.318 279.121 464.213 279.875C465.108 280.629 466.222 281.006 467.556 281.006ZM488.717 282.398C487.093 282.398 485.663 281.971 484.429 281.118C483.194 280.256 482.229 279.079 481.533 277.588C480.845 276.096 480.501 274.406 480.501 272.517C480.501 270.627 480.849 268.937 481.545 267.446C482.241 265.954 483.207 264.778 484.441 263.916C485.676 263.054 487.097 262.623 488.704 262.623C489.914 262.623 491.016 262.872 492.01 263.369C493.013 263.866 493.842 264.558 494.496 265.445C495.159 266.331 495.582 267.359 495.764 268.527H494.223C493.974 267.234 493.353 266.165 492.358 265.32C491.372 264.467 490.158 264.04 488.717 264.04C487.424 264.04 486.272 264.405 485.261 265.134C484.251 265.855 483.455 266.853 482.875 268.129C482.295 269.397 482.005 270.851 482.005 272.492C482.005 274.108 482.287 275.558 482.85 276.842C483.414 278.118 484.201 279.129 485.212 279.875C486.223 280.62 487.391 280.993 488.717 280.993C489.653 280.993 490.506 280.807 491.277 280.434C492.056 280.061 492.706 279.531 493.228 278.843C493.75 278.155 494.094 277.352 494.26 276.432H495.801C495.619 277.608 495.205 278.644 494.558 279.539C493.912 280.434 493.088 281.134 492.085 281.64C491.082 282.145 489.96 282.398 488.717 282.398ZM508.417 282.398C506.693 282.398 505.193 281.971 503.917 281.118C502.641 280.264 501.655 279.096 500.959 277.613C500.263 276.129 499.915 274.439 499.915 272.542C499.915 270.636 500.263 268.937 500.959 267.446C501.664 265.954 502.629 264.778 503.855 263.916C505.082 263.054 506.482 262.623 508.056 262.623C509.125 262.623 510.136 262.839 511.089 263.27C512.05 263.692 512.895 264.305 513.624 265.109C514.362 265.913 514.938 266.882 515.352 268.017C515.775 269.153 515.986 270.429 515.986 271.846V272.79H500.872V271.411H514.47C514.47 270.027 514.188 268.78 513.624 267.669C513.061 266.559 512.294 265.677 511.325 265.022C510.356 264.367 509.266 264.04 508.056 264.04C506.788 264.04 505.657 264.396 504.663 265.109C503.677 265.813 502.894 266.766 502.314 267.968C501.742 269.169 501.444 270.511 501.419 271.995V272.616C501.419 274.207 501.697 275.636 502.252 276.904C502.815 278.164 503.619 279.162 504.663 279.9C505.707 280.629 506.958 280.993 508.417 280.993C509.461 280.993 510.351 280.819 511.089 280.471C511.835 280.115 512.444 279.684 512.916 279.179C513.388 278.673 513.745 278.184 513.985 277.712L515.364 278.271C515.074 278.909 514.623 279.547 514.01 280.185C513.405 280.815 512.634 281.341 511.698 281.764C510.77 282.186 509.676 282.398 508.417 282.398ZM532.566 256.545V282H531.05V256.545H532.566ZM543.901 282.41C542.799 282.41 541.788 282.191 540.869 281.751C539.957 281.312 539.224 280.67 538.669 279.825C538.122 278.98 537.848 277.952 537.848 276.743C537.848 275.947 537.989 275.247 538.271 274.642C538.553 274.037 538.988 273.515 539.576 273.076C540.164 272.637 540.918 272.276 541.838 271.995C542.758 271.705 543.856 271.481 545.132 271.324C546.101 271.208 546.967 271.096 547.729 270.988C548.492 270.872 549.088 270.694 549.519 270.453C549.958 270.213 550.178 269.849 550.178 269.36V268.564C550.178 267.172 549.739 266.066 548.861 265.246C547.982 264.425 546.772 264.015 545.231 264.015C543.864 264.015 542.712 264.318 541.776 264.923C540.848 265.519 540.198 266.29 539.825 267.234L538.395 266.7C538.76 265.788 539.286 265.03 539.974 264.425C540.67 263.821 541.465 263.369 542.36 263.071C543.263 262.772 544.208 262.623 545.194 262.623C546.047 262.623 546.859 262.743 547.63 262.984C548.409 263.224 549.101 263.589 549.706 264.077C550.319 264.566 550.804 265.192 551.16 265.954C551.516 266.708 551.694 267.611 551.694 268.664V282H550.178V278.557H550.066C549.735 279.27 549.279 279.92 548.699 280.509C548.127 281.089 547.435 281.553 546.623 281.901C545.82 282.24 544.912 282.41 543.901 282.41ZM544.051 281.006C545.244 281.006 546.3 280.716 547.22 280.136C548.148 279.547 548.873 278.744 549.395 277.724C549.917 276.705 550.178 275.549 550.178 274.257V271.448C549.987 271.614 549.71 271.763 549.345 271.895C548.989 272.02 548.583 272.131 548.127 272.231C547.68 272.322 547.207 272.405 546.71 272.479C546.221 272.546 545.745 272.608 545.281 272.666C543.889 272.832 542.754 273.088 541.875 273.436C541.005 273.776 540.367 274.224 539.961 274.779C539.564 275.334 539.365 276.005 539.365 276.792C539.365 278.093 539.812 279.121 540.707 279.875C541.602 280.629 542.716 281.006 544.051 281.006ZM575.104 262.909V264.264H566.64V262.909H575.104ZM569.424 282V259.939C569.424 258.977 569.644 258.157 570.083 257.478C570.522 256.798 571.098 256.28 571.811 255.924C572.532 255.568 573.306 255.39 574.135 255.39C574.574 255.39 574.947 255.427 575.253 255.501C575.568 255.568 575.842 255.646 576.074 255.738L575.626 257.08C575.436 257.014 575.229 256.956 575.005 256.906C574.789 256.856 574.533 256.831 574.234 256.831C573.273 256.831 572.482 257.125 571.86 257.714C571.239 258.302 570.928 259.122 570.928 260.175L570.916 282H569.424ZM586.483 282.398C584.76 282.398 583.26 281.971 581.984 281.118C580.708 280.264 579.722 279.096 579.026 277.613C578.33 276.129 577.982 274.439 577.982 272.542C577.982 270.636 578.33 268.937 579.026 267.446C579.73 265.954 580.695 264.778 581.922 263.916C583.148 263.054 584.548 262.623 586.123 262.623C587.191 262.623 588.202 262.839 589.155 263.27C590.116 263.692 590.962 264.305 591.691 265.109C592.428 265.913 593.004 266.882 593.418 268.017C593.841 269.153 594.052 270.429 594.052 271.846V272.79H578.939V271.411H592.536C592.536 270.027 592.254 268.78 591.691 267.669C591.127 266.559 590.361 265.677 589.391 265.022C588.422 264.367 587.332 264.04 586.123 264.04C584.855 264.04 583.724 264.396 582.729 265.109C581.743 265.813 580.96 266.766 580.38 267.968C579.809 269.169 579.51 270.511 579.486 271.995V272.616C579.486 274.207 579.763 275.636 580.318 276.904C580.882 278.164 581.685 279.162 582.729 279.9C583.774 280.629 585.025 280.993 586.483 280.993C587.527 280.993 588.418 280.819 589.155 280.471C589.901 280.115 590.51 279.684 590.982 279.179C591.455 278.673 591.811 278.184 592.051 277.712L593.431 278.271C593.141 278.909 592.689 279.547 592.076 280.185C591.471 280.815 590.701 281.341 589.764 281.764C588.836 282.186 587.743 282.398 586.483 282.398ZM600.789 256.545V282H599.272V256.545H600.789ZM607.14 282V262.909H608.644V282H607.14ZM607.898 259.528C607.567 259.528 607.277 259.412 607.028 259.18C606.788 258.948 606.668 258.667 606.668 258.335C606.668 258.004 606.788 257.722 607.028 257.49C607.268 257.258 607.558 257.142 607.898 257.142C608.23 257.142 608.515 257.258 608.756 257.49C609.004 257.722 609.129 258.004 609.129 258.335C609.129 258.667 609.008 258.948 608.768 259.18C608.528 259.412 608.238 259.528 607.898 259.528ZM622.154 282.398C620.53 282.398 619.101 281.971 617.866 281.118C616.632 280.256 615.666 279.079 614.97 277.588C614.283 276.096 613.939 274.406 613.939 272.517C613.939 270.627 614.287 268.937 614.983 267.446C615.679 265.954 616.644 264.778 617.879 263.916C619.113 263.054 620.534 262.623 622.142 262.623C623.352 262.623 624.454 262.872 625.448 263.369C626.45 263.866 627.279 264.558 627.934 265.445C628.597 266.331 629.019 267.359 629.201 268.527H627.66C627.412 267.234 626.79 266.165 625.796 265.32C624.81 264.467 623.596 264.04 622.154 264.04C620.862 264.04 619.71 264.405 618.699 265.134C617.688 265.855 616.893 266.853 616.313 268.129C615.733 269.397 615.443 270.851 615.443 272.492C615.443 274.108 615.724 275.558 616.288 276.842C616.851 278.118 617.638 279.129 618.649 279.875C619.66 280.62 620.828 280.993 622.154 280.993C623.091 280.993 623.944 280.807 624.715 280.434C625.493 280.061 626.144 279.531 626.666 278.843C627.188 278.155 627.532 277.352 627.698 276.432H629.239C629.056 277.608 628.642 278.644 627.996 279.539C627.35 280.434 626.525 281.134 625.522 281.64C624.52 282.145 623.397 282.398 622.154 282.398ZM634.484 282V262.909H635.988V282H634.484ZM635.242 259.528C634.91 259.528 634.62 259.412 634.372 259.18C634.132 258.948 634.011 258.667 634.011 258.335C634.011 258.004 634.132 257.722 634.372 257.49C634.612 257.258 634.902 257.142 635.242 257.142C635.573 257.142 635.859 257.258 636.1 257.49C636.348 257.722 636.472 258.004 636.472 258.335C636.472 258.667 636.352 258.948 636.112 259.18C635.872 259.412 635.582 259.528 635.242 259.528ZM648.889 282.398C647.356 282.398 646.018 281.975 644.874 281.13C643.731 280.285 642.844 279.121 642.215 277.637C641.593 276.146 641.282 274.435 641.282 272.504C641.282 270.59 641.597 268.892 642.227 267.408C642.865 265.917 643.756 264.749 644.899 263.903C646.043 263.05 647.377 262.623 648.901 262.623C649.995 262.623 650.944 262.835 651.748 263.257C652.56 263.671 653.239 264.222 653.786 264.91C654.341 265.598 654.764 266.352 655.054 267.172H655.203V256.545H656.707V282H655.24V277.836H655.054C654.747 278.657 654.32 279.415 653.774 280.111C653.227 280.799 652.547 281.354 651.735 281.776C650.923 282.191 649.974 282.398 648.889 282.398ZM649.026 280.993C650.318 280.993 651.424 280.625 652.344 279.887C653.272 279.141 653.981 278.13 654.47 276.854C654.967 275.57 655.215 274.116 655.215 272.492C655.215 270.868 654.967 269.422 654.47 268.154C653.981 266.878 653.272 265.875 652.344 265.146C651.424 264.409 650.318 264.04 649.026 264.04C647.716 264.04 646.594 264.413 645.657 265.159C644.729 265.896 644.017 266.903 643.52 268.179C643.031 269.455 642.786 270.893 642.786 272.492C642.786 274.091 643.031 275.533 643.52 276.817C644.017 278.101 644.729 279.121 645.657 279.875C646.594 280.62 647.716 280.993 649.026 280.993ZM668.589 282.41C667.487 282.41 666.476 282.191 665.556 281.751C664.645 281.312 663.911 280.67 663.356 279.825C662.809 278.98 662.536 277.952 662.536 276.743C662.536 275.947 662.677 275.247 662.959 274.642C663.24 274.037 663.675 273.515 664.264 273.076C664.852 272.637 665.606 272.276 666.526 271.995C667.445 271.705 668.543 271.481 669.819 271.324C670.789 271.208 671.655 271.096 672.417 270.988C673.179 270.872 673.776 270.694 674.207 270.453C674.646 270.213 674.866 269.849 674.866 269.36V268.564C674.866 267.172 674.426 266.066 673.548 265.246C672.67 264.425 671.46 264.015 669.919 264.015C668.552 264.015 667.4 264.318 666.464 264.923C665.535 265.519 664.885 266.29 664.512 267.234L663.083 266.7C663.447 265.788 663.974 265.03 664.661 264.425C665.357 263.821 666.153 263.369 667.048 263.071C667.951 262.772 668.895 262.623 669.881 262.623C670.735 262.623 671.547 262.743 672.318 262.984C673.096 263.224 673.788 263.589 674.393 264.077C675.006 264.566 675.491 265.192 675.847 265.954C676.204 266.708 676.382 267.611 676.382 268.664V282H674.866V278.557H674.754C674.422 279.27 673.966 279.92 673.386 280.509C672.815 281.089 672.123 281.553 671.311 281.901C670.507 282.24 669.6 282.41 668.589 282.41ZM668.738 281.006C669.931 281.006 670.988 280.716 671.907 280.136C672.835 279.547 673.56 278.744 674.082 277.724C674.604 276.705 674.866 275.549 674.866 274.257V271.448C674.675 271.614 674.397 271.763 674.033 271.895C673.676 272.02 673.27 272.131 672.815 272.231C672.367 272.322 671.895 272.405 671.398 272.479C670.909 272.546 670.432 272.608 669.968 272.666C668.576 272.832 667.441 273.088 666.563 273.436C665.693 273.776 665.055 274.224 664.649 274.779C664.251 275.334 664.052 276.005 664.052 276.792C664.052 278.093 664.5 279.121 665.395 279.875C666.29 280.629 667.404 281.006 668.738 281.006ZM689.289 282.398C687.756 282.398 686.418 281.975 685.275 281.13C684.131 280.285 683.245 279.121 682.615 277.637C681.994 276.146 681.683 274.435 681.683 272.504C681.683 270.59 681.998 268.892 682.627 267.408C683.265 265.917 684.156 264.749 685.3 263.903C686.443 263.05 687.777 262.623 689.302 262.623C690.396 262.623 691.344 262.835 692.148 263.257C692.96 263.671 693.639 264.222 694.186 264.91C694.742 265.598 695.164 266.352 695.454 267.172H695.603V256.545H697.107V282H695.641V277.836H695.454C695.148 278.657 694.721 279.415 694.174 280.111C693.627 280.799 692.948 281.354 692.136 281.776C691.324 282.191 690.375 282.398 689.289 282.398ZM689.426 280.993C690.719 280.993 691.825 280.625 692.745 279.887C693.673 279.141 694.381 278.13 694.87 276.854C695.367 275.57 695.616 274.116 695.616 272.492C695.616 270.868 695.367 269.422 694.87 268.154C694.381 266.878 693.673 265.875 692.745 265.146C691.825 264.409 690.719 264.04 689.426 264.04C688.117 264.04 686.994 264.413 686.058 265.159C685.13 265.896 684.417 266.903 683.92 268.179C683.431 269.455 683.187 270.893 683.187 272.492C683.187 274.091 683.431 275.533 683.92 276.817C684.417 278.101 685.13 279.121 686.058 279.875C686.994 280.62 688.117 280.993 689.426 280.993ZM706.292 256.545L706.205 274.58H704.714L704.627 256.545H706.292ZM705.459 282.162C705.087 282.162 704.768 282.033 704.502 281.776C704.246 281.511 704.117 281.192 704.117 280.819C704.117 280.455 704.25 280.14 704.515 279.875C704.78 279.609 705.095 279.477 705.459 279.477C705.824 279.477 706.139 279.609 706.404 279.875C706.669 280.14 706.802 280.455 706.802 280.819C706.802 281.068 706.74 281.296 706.615 281.503C706.499 281.702 706.338 281.863 706.131 281.988C705.932 282.104 705.708 282.162 705.459 282.162Z" fill="black"/>
<path d="M286.351 120.218L271.98 94.0038H260.574V120.218H245V47.0738H279.246C294.499 47.0738 303.821 57.0578 303.821 70.6456C303.821 83.5927 295.701 90.4801 287.794 92.3487L304.249 120.192H286.351V120.218ZM276.922 60.4748H260.574V80.6563H276.922C283.172 80.6563 287.901 76.7054 287.901 70.5655C287.874 64.4256 283.172 60.4748 276.922 60.4748Z" fill="black"/>
<path d="M350.195 45.8725C372.366 45.8725 388.474 61.6493 388.474 83.6995C388.474 105.75 372.34 121.526 350.195 121.526C328.13 121.526 312.022 105.75 312.022 83.6995C312.022 61.676 328.157 45.8725 350.195 45.8725ZM350.195 59.7006C336.705 59.7006 328.023 70.0049 328.023 83.7262C328.023 97.314 336.678 107.752 350.195 107.752C363.685 107.752 372.473 97.3407 372.473 83.7262C372.473 70.0049 363.711 59.7006 350.195 59.7006Z" fill="black"/>
<path d="M399.48 120.218V47.0738H437.999C451.944 47.0738 459.076 55.9633 459.076 65.707C459.076 74.9168 453.359 81.0567 446.467 82.4715C454.268 83.6728 460.518 91.2542 460.518 100.464C460.518 111.436 453.172 120.192 439.228 120.192H399.48V120.218ZM415.053 76.4651H434.58C439.843 76.4651 443.128 73.0749 443.128 68.3498C443.128 63.865 439.843 60.3413 434.58 60.3413H415.053V76.4651ZM415.053 106.951H435.141C441.071 106.951 444.571 103.561 444.571 98.3018C444.571 93.6835 441.285 89.7593 435.141 89.7593H415.053V106.951Z" fill="black"/>
<path d="M472.218 134.794V47.1005H487.792V134.821H472.218V134.794Z" fill="#2DCC8A"/>
<path d="M552.731 120.218L517.844 71.0994V120.218H502.27V47.0738H518.298L552.196 94.431V47.1005H567.77V120.245H552.731V120.218Z" fill="black"/>
<path d="M358.075 201.692V149.049L337.453 201.692H330.641L310.019 149.049V201.692H294.445V128.547H316.269L334.033 174.169L351.797 128.547H373.729V201.692H358.075Z" fill="black"/>
<path d="M422.934 127.346C445.105 127.346 461.213 143.123 461.213 165.173C461.213 187.223 445.078 203 422.934 203C400.869 203 384.761 187.223 384.761 165.173C384.761 143.15 400.869 127.346 422.934 127.346ZM422.934 141.174C409.444 141.174 400.762 151.478 400.762 165.2C400.762 178.788 409.417 189.225 422.934 189.225C436.423 189.225 445.212 178.814 445.212 165.2C445.212 151.478 436.423 141.174 422.934 141.174Z" fill="black"/>
<path d="M522.652 201.692L487.765 152.573V201.692H472.192V128.547H487.765L522.118 175.905V128.547H537.691V201.692H522.652Z" fill="#2DCC8A"/>
<path d="M552.17 201.692V128.547H603.966V141.922H567.77V157.832H603.218V171.206H567.77V188.211H603.966V201.692H552.17Z" fill="black"/>
<path d="M636.555 201.692V171.767L608.346 128.574H626.11L644.329 157.965L662.333 128.574H680.097L652.129 171.767V201.692H636.555V201.692Z" fill="black"/>
<path d="M613.421 78.622L613.343 78.8939L613.536 79.1012C614.77 80.43 616.784 81.1979 618.628 80.7535C620.464 80.3111 621.995 78.6674 622.16 76.7467C622.324 74.8285 621.033 72.8676 619.142 72.3674L619.142 72.3674L619.139 72.3667C617.252 71.8787 615.058 73.0231 614.504 74.9221L614.504 74.9233C614.325 75.54 614.145 76.1546 613.963 76.7704L613.963 76.771C613.782 77.3863 613.601 78.0028 613.421 78.622Z" fill="black" stroke="black"/>
<path d="M590.907 83.4567C590.376 83.7775 590.429 84.3161 590.551 84.6311C590.449 84.8748 590.478 85.1486 590.525 85.3022C590.546 85.3745 590.545 85.448 590.566 85.5203C590.561 85.5481 590.555 85.576 590.543 85.5949C590.422 85.6194 590.312 85.6618 590.218 85.7308C589.772 85.4049 589.136 85.2905 588.834 86.141C588.771 86.3001 588.725 86.4493 588.668 86.6174C588.64 86.6831 588.611 86.7487 588.572 86.8333C588.251 87.804 587.92 88.7935 587.599 89.7642C587.422 90.2963 588.105 90.9771 588.715 90.9368C588.714 90.9735 588.714 91.0102 588.719 91.0559C588.698 91.3597 589.366 92.3533 590.057 91.9601C590.389 92.1726 590.824 92.1412 591.177 91.6002C593.233 88.5865 593.463 85.7762 592.215 83.8212C592.07 83.5809 591.571 83.0558 590.907 83.4567Z" fill="black"/>
<path d="M647.253 46.7887C646.645 46.3395 647.93 45.4422 647.102 45.2836C646.444 45.1515 645.802 45.0591 645.126 45.0062C643.843 44.9137 642.559 44.8741 641.275 44.8873C638.624 44.9137 635.989 45.059 633.371 45.3233C628.135 45.8517 623.051 47.0011 618.085 48.3883C617.545 48.5337 617.173 49.2999 617.038 49.6566C616.785 50.3172 616.734 51.0967 616.852 51.7837C617.004 52.6688 617.579 54.0692 619.014 53.7125C623.727 52.5499 628.659 51.9422 633.573 51.5855C635.989 51.4137 638.421 51.3345 640.853 51.3609C642.137 51.3741 643.457 53.5735 644.715 51.8656C645.289 51.8788 645.836 51.4534 646.41 51.4137C647.356 51.3741 646.493 49.7499 647.253 49.3272C648.706 48.5345 648.588 47.7663 647.253 46.7887Z" fill="black"/>
<path d="M668.83 16.9616L652.965 49.3272L650.962 49.4118C650.962 49.4118 664.896 20.9233 664.713 20.7302C664.694 20.7205 658.042 18.8655 658.042 18.8655C658.042 18.8655 649.946 44.638 647.888 50.5964C647.502 50.2295 627.943 51.9419 622.996 53.487C621.498 53.9506 608.075 57.8038 602.2 61.0679C595.213 64.95 597.715 66.4812 597.753 66.4619C597.879 66.3846 611.042 61.7922 626.793 61.7922C627.103 61.7922 665.09 62.3523 671.835 59.3682C673.381 58.6826 675.275 54.8004 675.7 53.6995C677.981 47.8376 673.951 43.0477 673.951 43.0477L682.774 23.7625" fill="#2DCC8A"/>
<path d="M665.747 4.3903C663.572 3.0383 652.759 13.439 651.435 14.3564C650.324 15.129 624.977 32.8015 619.014 34.6267C618.869 34.675 605.194 47.4354 604.099 49.3272C601.78 53.8081 587.993 70.802 597.753 63.2888C610.296 53.622 648.14 44.6025 648.14 44.6025C648.14 44.6025 656.789 16.4037 656.953 15.9885C656.972 15.9692 665.756 18.1324 665.785 18.1324C665.872 18.2289 667.815 5.67469 665.747 4.3903Z" fill="#2DCC8A"/>
<path d="M617.67 62.8846L644.767 61.8996C645.975 61.832 647.183 61.7837 648.391 61.7644L664.471 61.185C664.471 61.185 670.143 60.876 673.342 57.525C674.25 56.5689 675.758 53.9422 676.038 50.2145C676.192 48.1189 675.999 45.4246 675.999 45.4246C675.999 45.4246 675.816 43.387 675.535 43.2904C675.323 43.2131 672.095 46.6221 670.877 47.5975C667.756 50.089 650.198 51.4796 650.198 51.4796C650.198 51.4796 636.601 51.3637 621.816 53.6525C617.004 54.3961 609.891 56.6655 607.302 58.0561C598.421 62.8074 581.645 71.0739 607.572 64.4587C612.684 63.155 617.67 62.8846 617.67 62.8846Z" stroke="black" stroke-width="5" stroke-miterlimit="10"/>
<path d="M645.646 46.0232C645.646 46.0232 646.729 45.8591 646.903 45.6949C647.221 45.4052 655.88 17.5541 655.88 17.5541C655.88 17.5541 656.141 16.5305 657.407 16.5305C659.185 16.5305 664.886 18.2977 664.886 18.2977C664.886 18.2977 665.418 18.4812 665.746 18.0853C665.785 18.037 666.316 16.8685 666.297 16.6657" stroke="#2DCC8A" stroke-width="5" stroke-miterlimit="10"/>
<path d="M648.681 45.5984L646.052 45.9557C646.052 45.9557 622.937 49.5481 610.858 54.7726C601.368 58.8769 594.749 66.8633 594.159 66.6219C591.888 65.6852 604.393 44.5651 620.338 34.2996C631.122 27.3658 642.902 21.1273 651.203 13.9231C657.523 8.43786 665.157 2.72086 665.572 3.01057C667.196 4.14045 666.287 19.727 666.287 19.727" stroke="black" stroke-width="5" stroke-miterlimit="10"/>
<path d="M646.748 51.6823L657.242 17.9018L666.094 20.007" stroke="black" stroke-width="5" stroke-miterlimit="10"/>
<path d="M651.222 51.1223L668.22 15.8835L684.213 23.4161L673.989 45.2604" stroke="black" stroke-width="5" stroke-miterlimit="10"/>
<path d="M675.999 46.1392C683.401 37.3995 692.514 30.1084 702.661 24.7874C704.197 23.9858 706.284 24.4494 707.328 25.84C715.329 36.4531 716.74 51.6341 710.836 63.551C704.932 75.4582 699.797 80.9227 686.5 81C682.982 81.0193 676.192 77.0152 675.999 73.5" stroke="black" stroke-width="5" stroke-miterlimit="10"/>
<path d="M701.511 25.4344C699.53 27.3175 697.945 29.3069 696.225 31.5087C694.708 33.5077 693.538 35.3619 692.301 37.4961C688.726 43.8988 684.658 50.8229 682.319 57.6408C679.845 64.5939 673.854 70.0212 666.732 71.8174" stroke="black" stroke-width="5" stroke-miterlimit="10"/>
<path d="M595.565 101.885C612.541 113.107 628.16 110.907 628.94 110.975C631.28 111.179 656.99 108.039 668.102 85.1779C670.259 78.1229 670.266 69.2001 670.266 69.2098" stroke="black" stroke-width="5" stroke-miterlimit="10"/>
<path d="M602.045 66.3129L601.233 68.534C598.208 75.6996 592.884 81.8705 586.235 85.9264C586.255 89.5672 587.965 93.1693 590.767 95.4966C593.57 97.824 597.426 98.838 601.02 98.2006" stroke="black" stroke-width="5" stroke-miterlimit="10"/>
<rect y="348" width="982" height="347" rx="10" fill="#2DCC8A" fill-opacity="0.3"/>
<path d="M50.5227 402.455V417H48.7614V402.455H50.5227ZM65.5884 402.455V417H63.8839L55.9577 405.58H55.8157V417H54.0543V402.455H55.7589L63.7134 413.903H63.8555V402.455H65.5884ZM70.8743 402.455V417H69.1129V402.455H70.8743ZM86.1104 407H84.3491C84.2449 406.493 84.0626 406.048 83.8022 405.665C83.5465 405.281 83.234 404.959 82.8647 404.699C82.5001 404.434 82.0953 404.235 81.6502 404.102C81.2051 403.97 80.7411 403.903 80.2582 403.903C79.3775 403.903 78.5797 404.126 77.8647 404.571C77.1545 405.016 76.5887 405.672 76.1673 406.538C75.7506 407.405 75.5423 408.468 75.5423 409.727C75.5423 410.987 75.7506 412.05 76.1673 412.916C76.5887 413.783 77.1545 414.438 77.8647 414.884C78.5797 415.329 79.3775 415.551 80.2582 415.551C80.7411 415.551 81.2051 415.485 81.6502 415.352C82.0953 415.22 82.5001 415.023 82.8647 414.763C83.234 414.498 83.5465 414.173 83.8022 413.79C84.0626 413.402 84.2449 412.956 84.3491 412.455H86.1104C85.9779 413.198 85.7364 413.863 85.386 414.45C85.0356 415.037 84.6 415.537 84.0792 415.949C83.5584 416.356 82.9736 416.666 82.3249 416.879C81.681 417.092 80.9921 417.199 80.2582 417.199C79.0176 417.199 77.9144 416.896 76.9485 416.29C75.9826 415.684 75.2227 414.822 74.6687 413.705C74.1147 412.587 73.8377 411.261 73.8377 409.727C73.8377 408.193 74.1147 406.867 74.6687 405.75C75.2227 404.633 75.9826 403.771 76.9485 403.165C77.9144 402.559 79.0176 402.256 80.2582 402.256C80.9921 402.256 81.681 402.362 82.3249 402.575C82.9736 402.788 83.5584 403.101 84.0792 403.513C84.6 403.92 85.0356 404.417 85.386 405.004C85.7364 405.587 85.9779 406.252 86.1104 407ZM90.718 402.455V417H88.9567V402.455H90.718ZM94.8462 417H92.9996L98.3406 402.455H100.159L105.5 417H103.653L99.3065 404.756H99.1928L94.8462 417ZM95.5281 411.318H102.971V412.881H95.5281V411.318ZM107.765 417V402.455H112.68C113.816 402.455 114.749 402.649 115.478 403.037C116.208 403.42 116.747 403.948 117.098 404.621C117.448 405.293 117.623 406.058 117.623 406.915C117.623 407.772 117.448 408.532 117.098 409.195C116.747 409.857 116.21 410.378 115.485 410.757C114.761 411.131 113.835 411.318 112.708 411.318H108.731V409.727H112.652C113.428 409.727 114.053 409.614 114.527 409.386C115.005 409.159 115.35 408.837 115.564 408.42C115.781 407.999 115.89 407.497 115.89 406.915C115.89 406.332 115.781 405.823 115.564 405.388C115.346 404.952 114.998 404.616 114.52 404.379C114.041 404.138 113.409 404.017 112.623 404.017H109.527V417H107.765ZM114.612 410.466L118.191 417H116.146L112.623 410.466H114.612ZM134.138 406.091C134.053 405.371 133.707 404.812 133.101 404.415C132.495 404.017 131.751 403.818 130.871 403.818C130.227 403.818 129.663 403.922 129.18 404.131C128.702 404.339 128.328 404.625 128.058 404.99C127.793 405.355 127.661 405.769 127.661 406.233C127.661 406.621 127.753 406.955 127.938 407.234C128.127 407.509 128.368 407.739 128.662 407.923C128.955 408.103 129.263 408.252 129.585 408.371C129.907 408.484 130.203 408.577 130.473 408.648L131.95 409.045C132.329 409.145 132.75 409.282 133.214 409.457C133.683 409.633 134.131 409.872 134.557 410.175C134.988 410.473 135.343 410.857 135.622 411.325C135.902 411.794 136.041 412.369 136.041 413.051C136.041 413.837 135.835 414.547 135.423 415.182C135.016 415.816 134.42 416.321 133.634 416.695C132.852 417.069 131.903 417.256 130.786 417.256C129.744 417.256 128.842 417.088 128.08 416.751C127.322 416.415 126.725 415.946 126.29 415.345C125.859 414.744 125.615 414.045 125.558 413.25H127.376C127.424 413.799 127.608 414.254 127.93 414.614C128.257 414.969 128.669 415.234 129.166 415.409C129.668 415.58 130.208 415.665 130.786 415.665C131.458 415.665 132.062 415.556 132.597 415.338C133.132 415.116 133.555 414.808 133.868 414.415C134.18 414.017 134.337 413.553 134.337 413.023C134.337 412.54 134.202 412.147 133.932 411.844C133.662 411.541 133.307 411.295 132.866 411.105C132.426 410.916 131.95 410.75 131.439 410.608L129.649 410.097C128.513 409.77 127.613 409.304 126.95 408.697C126.287 408.091 125.956 407.298 125.956 406.318C125.956 405.504 126.176 404.794 126.616 404.188C127.062 403.577 127.658 403.103 128.406 402.767C129.159 402.426 130 402.256 130.928 402.256C131.865 402.256 132.698 402.424 133.428 402.76C134.157 403.091 134.734 403.546 135.161 404.124C135.591 404.701 135.819 405.357 135.842 406.091H134.138ZM138.937 417V402.455H147.716V404.017H140.699V408.932H147.261V410.494H140.699V415.438H147.829V417H138.937ZM158.845 406.091C158.76 405.371 158.414 404.812 157.808 404.415C157.202 404.017 156.458 403.818 155.578 403.818C154.934 403.818 154.37 403.922 153.887 404.131C153.409 404.339 153.035 404.625 152.765 404.99C152.5 405.355 152.368 405.769 152.368 406.233C152.368 406.621 152.46 406.955 152.645 407.234C152.834 407.509 153.075 407.739 153.369 407.923C153.663 408.103 153.97 408.252 154.292 408.371C154.614 408.484 154.91 408.577 155.18 408.648L156.657 409.045C157.036 409.145 157.458 409.282 157.922 409.457C158.39 409.633 158.838 409.872 159.264 410.175C159.695 410.473 160.05 410.857 160.329 411.325C160.609 411.794 160.748 412.369 160.748 413.051C160.748 413.837 160.542 414.547 160.13 415.182C159.723 415.816 159.127 416.321 158.341 416.695C157.559 417.069 156.61 417.256 155.493 417.256C154.451 417.256 153.549 417.088 152.787 416.751C152.029 416.415 151.432 415.946 150.997 415.345C150.566 414.744 150.322 414.045 150.265 413.25H152.083C152.131 413.799 152.315 414.254 152.637 414.614C152.964 414.969 153.376 415.234 153.873 415.409C154.375 415.58 154.915 415.665 155.493 415.665C156.165 415.665 156.769 415.556 157.304 415.338C157.839 415.116 158.262 414.808 158.575 414.415C158.887 414.017 159.044 413.553 159.044 413.023C159.044 412.54 158.909 412.147 158.639 411.844C158.369 411.541 158.014 411.295 157.574 411.105C157.133 410.916 156.657 410.75 156.146 410.608L154.356 410.097C153.22 409.77 152.32 409.304 151.657 408.697C150.994 408.091 150.663 407.298 150.663 406.318C150.663 405.504 150.883 404.794 151.324 404.188C151.769 403.577 152.365 403.103 153.113 402.767C153.866 402.426 154.707 402.256 155.635 402.256C156.572 402.256 157.405 402.424 158.135 402.76C158.864 403.091 159.441 403.546 159.868 404.124C160.298 404.701 160.526 405.357 160.549 406.091H158.845ZM165.406 402.455V417H163.644V402.455H165.406ZM181.21 409.727C181.21 411.261 180.933 412.587 180.379 413.705C179.825 414.822 179.065 415.684 178.099 416.29C177.133 416.896 176.03 417.199 174.789 417.199C173.549 417.199 172.446 416.896 171.48 416.29C170.514 415.684 169.754 414.822 169.2 413.705C168.646 412.587 168.369 411.261 168.369 409.727C168.369 408.193 168.646 406.867 169.2 405.75C169.754 404.633 170.514 403.771 171.48 403.165C172.446 402.559 173.549 402.256 174.789 402.256C176.03 402.256 177.133 402.559 178.099 403.165C179.065 403.771 179.825 404.633 180.379 405.75C180.933 406.867 181.21 408.193 181.21 409.727ZM179.505 409.727C179.505 408.468 179.295 407.405 178.873 406.538C178.457 405.672 177.891 405.016 177.176 404.571C176.466 404.126 175.67 403.903 174.789 403.903C173.909 403.903 173.111 404.126 172.396 404.571C171.686 405.016 171.12 405.672 170.699 406.538C170.282 407.405 170.074 408.468 170.074 409.727C170.074 410.987 170.282 412.05 170.699 412.916C171.12 413.783 171.686 414.438 172.396 414.884C173.111 415.329 173.909 415.551 174.789 415.551C175.67 415.551 176.466 415.329 177.176 414.884C177.891 414.438 178.457 413.783 178.873 412.916C179.295 412.05 179.505 410.987 179.505 409.727ZM174.022 400.977L175.755 397.682H177.716L175.5 400.977H174.022ZM195.706 402.455V417H194.001L186.075 405.58H185.933V417H184.172V402.455H185.876L193.831 413.903H193.973V402.455H195.706Z" fill="#91959D"/>
</svg>
