<svg width="472" height="290" viewBox="0 0 472 290" fill="none" xmlns="http://www.w3.org/2000/svg">
<path d="M5.50604 288.463H3.84055L3.92756 270.429H5.41903L5.50604 288.463ZM4.6733 262.847C5.04616 262.847 5.36103 262.98 5.6179 263.245C5.88305 263.502 6.01562 263.816 6.01562 264.189C6.01562 264.554 5.88305 264.869 5.6179 265.134C5.35275 265.399 5.03788 265.532 4.6733 265.532C4.30871 265.532 3.99384 265.399 3.72869 265.134C3.46354 264.869 3.33097 264.554 3.33097 264.189C3.33097 263.941 3.38897 263.717 3.50497 263.518C3.62926 263.311 3.79084 263.149 3.9897 263.033C4.19685 262.909 4.42472 262.847 4.6733 262.847ZM13.01 282V256.545H27.1791V257.987H14.5637V268.539H26.4209V269.981H14.5637V280.558H27.4774V282H13.01ZM34.6023 256.545V282H33.0859V256.545H34.6023ZM57.2727 282.398C55.7398 282.398 54.4016 281.975 53.2582 281.13C52.1147 280.285 51.2281 279.121 50.5984 277.637C49.9769 276.146 49.6662 274.435 49.6662 272.504C49.6662 270.59 49.9811 268.892 50.6108 267.408C51.2488 265.917 52.1396 264.749 53.283 263.903C54.4265 263.05 55.7605 262.623 57.2852 262.623C58.3789 262.623 59.3277 262.835 60.1314 263.257C60.9434 263.671 61.6229 264.222 62.1697 264.91C62.7249 265.598 63.1475 266.352 63.4375 267.172H63.5866V256.545H65.0906V282H63.6239V277.836H63.4375C63.1309 278.657 62.7042 279.415 62.1573 280.111C61.6104 280.799 60.931 281.354 60.119 281.776C59.3069 282.191 58.3582 282.398 57.2727 282.398ZM57.4094 280.993C58.7021 280.993 59.8082 280.625 60.728 279.887C61.656 279.141 62.3645 278.13 62.8533 276.854C63.3505 275.57 63.5991 274.116 63.5991 272.492C63.5991 270.868 63.3505 269.422 62.8533 268.154C62.3645 266.878 61.656 265.875 60.728 265.146C59.8082 264.409 58.7021 264.04 57.4094 264.04C56.1003 264.04 54.9775 264.413 54.0412 265.159C53.1132 265.896 52.4006 266.903 51.9034 268.179C51.4145 269.455 51.1701 270.893 51.1701 272.492C51.1701 274.091 51.4145 275.533 51.9034 276.817C52.4006 278.101 53.1132 279.121 54.0412 279.875C54.9775 280.62 56.1003 280.993 57.4094 280.993ZM71.9886 282V262.909H73.4925V282H71.9886ZM72.7468 259.528C72.4154 259.528 72.1254 259.412 71.8768 259.18C71.6365 258.948 71.5163 258.667 71.5163 258.335C71.5163 258.004 71.6365 257.722 71.8768 257.49C72.1171 257.258 72.4071 257.142 72.7468 257.142C73.0782 257.142 73.3641 257.258 73.6044 257.49C73.853 257.722 73.9773 258.004 73.9773 258.335C73.9773 258.667 73.8571 258.948 73.6168 259.18C73.3765 259.412 73.0865 259.528 72.7468 259.528ZM81.3601 269.621V282H79.8438V262.909H81.3228V265.929H81.4719C81.9194 264.943 82.6361 264.152 83.6222 263.555C84.6082 262.959 85.7807 262.661 87.1396 262.661C88.4239 262.661 89.5508 262.934 90.5202 263.481C91.498 264.028 92.2603 264.807 92.8072 265.817C93.3623 266.82 93.6399 268.017 93.6399 269.409V282H92.1236V269.472C92.1236 267.848 91.6388 266.542 90.6694 265.556C89.7082 264.562 88.4363 264.065 86.8537 264.065C85.7931 264.065 84.8485 264.297 84.0199 264.761C83.1913 265.225 82.5408 265.875 82.0685 266.712C81.5962 267.541 81.3601 268.51 81.3601 269.621ZM107.386 282.398C105.663 282.398 104.163 281.971 102.887 281.118C101.611 280.264 100.625 279.096 99.929 277.613C99.233 276.129 98.8849 274.439 98.8849 272.542C98.8849 270.636 99.233 268.937 99.929 267.446C100.633 265.954 101.599 264.778 102.825 263.916C104.051 263.054 105.452 262.623 107.026 262.623C108.095 262.623 109.106 262.839 110.059 263.27C111.02 263.692 111.865 264.305 112.594 265.109C113.332 265.913 113.907 266.882 114.322 268.017C114.744 269.153 114.956 270.429 114.956 271.846V272.79H99.842V271.411H113.439C113.439 270.027 113.158 268.78 112.594 267.669C112.031 266.559 111.264 265.677 110.295 265.022C109.325 264.367 108.236 264.04 107.026 264.04C105.758 264.04 104.627 264.396 103.633 265.109C102.647 265.813 101.864 266.766 101.284 267.968C100.712 269.169 100.414 270.511 100.389 271.995V272.616C100.389 274.207 100.666 275.636 101.222 276.904C101.785 278.164 102.589 279.162 103.633 279.9C104.677 280.629 105.928 280.993 107.386 280.993C108.43 280.993 109.321 280.819 110.059 280.471C110.804 280.115 111.413 279.684 111.886 279.179C112.358 278.673 112.714 278.184 112.955 277.712L114.334 278.271C114.044 278.909 113.593 279.547 112.979 280.185C112.375 280.815 111.604 281.341 110.668 281.764C109.74 282.186 108.646 282.398 107.386 282.398ZM120.176 282V262.909H121.655V265.892H121.792C122.206 264.914 122.906 264.131 123.892 263.543C124.878 262.946 126.001 262.648 127.26 262.648C127.393 262.648 127.525 262.648 127.658 262.648C127.791 262.648 127.915 262.652 128.031 262.661V264.189C127.931 264.181 127.811 264.169 127.67 264.152C127.538 264.127 127.372 264.115 127.173 264.115C126.113 264.115 125.168 264.343 124.339 264.798C123.519 265.254 122.873 265.884 122.401 266.688C121.928 267.483 121.692 268.394 121.692 269.422V282H120.176ZM138.62 282.398C137.046 282.398 135.646 281.975 134.419 281.13C133.193 280.277 132.228 279.104 131.523 277.613C130.819 276.121 130.467 274.422 130.467 272.517C130.467 270.603 130.819 268.904 131.523 267.421C132.228 265.929 133.193 264.757 134.419 263.903C135.646 263.05 137.046 262.623 138.62 262.623C140.195 262.623 141.595 263.05 142.821 263.903C144.048 264.757 145.013 265.929 145.717 267.421C146.422 268.912 146.774 270.611 146.774 272.517C146.774 274.422 146.422 276.121 145.717 277.613C145.013 279.104 144.048 280.277 142.821 281.13C141.595 281.975 140.195 282.398 138.62 282.398ZM138.62 280.993C139.954 280.993 141.119 280.616 142.113 279.862C143.116 279.108 143.89 278.089 144.437 276.805C144.992 275.52 145.27 274.091 145.27 272.517C145.27 270.942 144.992 269.517 144.437 268.241C143.882 266.957 143.107 265.938 142.113 265.184C141.119 264.421 139.954 264.04 138.62 264.04C137.286 264.04 136.122 264.421 135.128 265.184C134.134 265.938 133.359 266.957 132.804 268.241C132.248 269.517 131.971 270.942 131.971 272.517C131.971 274.091 132.244 275.52 132.791 276.805C133.346 278.089 134.121 279.108 135.115 279.862C136.118 280.616 137.286 280.993 138.62 280.993ZM173.972 267.023L172.567 267.396C172.343 266.7 172.024 266.099 171.61 265.594C171.196 265.088 170.674 264.699 170.044 264.425C169.422 264.144 168.677 264.003 167.807 264.003C166.406 264.003 165.259 264.351 164.364 265.047C163.477 265.743 163.034 266.65 163.034 267.769C163.034 268.68 163.336 269.434 163.941 270.031C164.546 270.619 165.47 271.067 166.713 271.373L169.646 272.107C171.154 272.479 172.289 273.084 173.052 273.921C173.814 274.75 174.195 275.781 174.195 277.016C174.195 278.068 173.909 279 173.338 279.812C172.766 280.625 171.975 281.258 170.964 281.714C169.961 282.17 168.793 282.398 167.459 282.398C165.677 282.398 164.215 281.983 163.071 281.155C161.928 280.318 161.195 279.121 160.871 277.563L162.326 277.19C162.599 278.433 163.167 279.382 164.028 280.036C164.898 280.683 166.038 281.006 167.446 281.006C169.004 281.006 170.259 280.637 171.212 279.9C172.173 279.162 172.654 278.217 172.654 277.066C172.654 276.187 172.372 275.446 171.809 274.841C171.245 274.236 170.392 273.793 169.248 273.511L166.203 272.765C164.646 272.384 163.477 271.775 162.698 270.938C161.92 270.093 161.53 269.053 161.53 267.819C161.53 266.791 161.799 265.888 162.338 265.109C162.877 264.33 163.618 263.721 164.563 263.282C165.507 262.843 166.589 262.623 167.807 262.623C169.422 262.623 170.74 263.004 171.759 263.767C172.778 264.529 173.516 265.614 173.972 267.023ZM179.518 282V262.909H181.022V282H179.518ZM179.543 260.187L182.874 254.694H184.676L180.935 260.187H179.543ZM198.733 269.621V282H197.217V256.545H198.733V265.929H198.882C199.33 264.935 200.042 264.144 201.02 263.555C202.006 262.959 203.187 262.661 204.562 262.661C205.847 262.661 206.978 262.934 207.955 263.481C208.933 264.019 209.695 264.794 210.242 265.805C210.798 266.808 211.075 268.009 211.075 269.409V282H209.571V269.472C209.571 267.839 209.086 266.53 208.117 265.544C207.148 264.558 205.867 264.065 204.276 264.065C203.208 264.065 202.255 264.297 201.418 264.761C200.581 265.225 199.922 265.875 199.442 266.712C198.969 267.541 198.733 268.51 198.733 269.621ZM222.407 282.41C221.305 282.41 220.294 282.191 219.375 281.751C218.463 281.312 217.73 280.67 217.175 279.825C216.628 278.98 216.354 277.952 216.354 276.743C216.354 275.947 216.495 275.247 216.777 274.642C217.059 274.037 217.494 273.515 218.082 273.076C218.67 272.637 219.424 272.276 220.344 271.995C221.264 271.705 222.362 271.481 223.638 271.324C224.607 271.208 225.473 271.096 226.235 270.988C226.998 270.872 227.594 270.694 228.025 270.453C228.464 270.213 228.684 269.849 228.684 269.36V268.564C228.684 267.172 228.245 266.066 227.366 265.246C226.488 264.425 225.278 264.015 223.737 264.015C222.37 264.015 221.218 264.318 220.282 264.923C219.354 265.519 218.703 266.29 218.331 267.234L216.901 266.7C217.266 265.788 217.792 265.03 218.48 264.425C219.176 263.821 219.971 263.369 220.866 263.071C221.769 262.772 222.714 262.623 223.7 262.623C224.553 262.623 225.365 262.743 226.136 262.984C226.915 263.224 227.607 263.589 228.212 264.077C228.825 264.566 229.309 265.192 229.666 265.954C230.022 266.708 230.2 267.611 230.2 268.664V282H228.684V278.557H228.572C228.241 279.27 227.785 279.92 227.205 280.509C226.633 281.089 225.941 281.553 225.129 281.901C224.325 282.24 223.418 282.41 222.407 282.41ZM222.556 281.006C223.75 281.006 224.806 280.716 225.726 280.136C226.654 279.547 227.379 278.744 227.901 277.724C228.423 276.705 228.684 275.549 228.684 274.257V271.448C228.493 271.614 228.216 271.763 227.851 271.895C227.495 272.02 227.089 272.131 226.633 272.231C226.186 272.322 225.713 272.405 225.216 272.479C224.727 272.546 224.251 272.608 223.787 272.666C222.395 272.832 221.26 273.088 220.381 273.436C219.511 273.776 218.873 274.224 218.467 274.779C218.07 275.334 217.871 276.005 217.871 276.792C217.871 278.093 218.318 279.121 219.213 279.875C220.108 280.629 221.222 281.006 222.556 281.006ZM243.717 282.398C242.093 282.398 240.663 281.971 239.429 281.118C238.194 280.256 237.229 279.079 236.533 277.588C235.845 276.096 235.501 274.406 235.501 272.517C235.501 270.627 235.849 268.937 236.545 267.446C237.241 265.954 238.207 264.778 239.441 263.916C240.676 263.054 242.097 262.623 243.704 262.623C244.914 262.623 246.016 262.872 247.01 263.369C248.013 263.866 248.842 264.558 249.496 265.445C250.159 266.331 250.582 267.359 250.764 268.527H249.223C248.974 267.234 248.353 266.165 247.358 265.32C246.372 264.467 245.158 264.04 243.717 264.04C242.424 264.04 241.272 264.405 240.261 265.134C239.251 265.855 238.455 266.853 237.875 268.129C237.295 269.397 237.005 270.851 237.005 272.492C237.005 274.108 237.287 275.558 237.85 276.842C238.414 278.118 239.201 279.129 240.212 279.875C241.223 280.62 242.391 280.993 243.717 280.993C244.653 280.993 245.506 280.807 246.277 280.434C247.056 280.061 247.706 279.531 248.228 278.843C248.75 278.155 249.094 277.352 249.26 276.432H250.801C250.619 277.608 250.205 278.644 249.558 279.539C248.912 280.434 248.088 281.134 247.085 281.64C246.082 282.145 244.96 282.398 243.717 282.398ZM263.417 282.398C261.693 282.398 260.193 281.971 258.917 281.118C257.641 280.264 256.655 279.096 255.959 277.613C255.263 276.129 254.915 274.439 254.915 272.542C254.915 270.636 255.263 268.937 255.959 267.446C256.664 265.954 257.629 264.778 258.855 263.916C260.082 263.054 261.482 262.623 263.056 262.623C264.125 262.623 265.136 262.839 266.089 263.27C267.05 263.692 267.895 264.305 268.624 265.109C269.362 265.913 269.938 266.882 270.352 268.017C270.775 269.153 270.986 270.429 270.986 271.846V272.79H255.872V271.411H269.47C269.47 270.027 269.188 268.78 268.624 267.669C268.061 266.559 267.294 265.677 266.325 265.022C265.356 264.367 264.266 264.04 263.056 264.04C261.788 264.04 260.657 264.396 259.663 265.109C258.677 265.813 257.894 266.766 257.314 267.968C256.742 269.169 256.444 270.511 256.419 271.995V272.616C256.419 274.207 256.697 275.636 257.252 276.904C257.815 278.164 258.619 279.162 259.663 279.9C260.707 280.629 261.958 280.993 263.417 280.993C264.461 280.993 265.351 280.819 266.089 280.471C266.835 280.115 267.444 279.684 267.916 279.179C268.388 278.673 268.745 278.184 268.985 277.712L270.364 278.271C270.074 278.909 269.623 279.547 269.01 280.185C268.405 280.815 267.634 281.341 266.698 281.764C265.77 282.186 264.676 282.398 263.417 282.398ZM287.566 256.545V282H286.05V256.545H287.566ZM298.901 282.41C297.799 282.41 296.788 282.191 295.869 281.751C294.957 281.312 294.224 280.67 293.669 279.825C293.122 278.98 292.848 277.952 292.848 276.743C292.848 275.947 292.989 275.247 293.271 274.642C293.553 274.037 293.988 273.515 294.576 273.076C295.164 272.637 295.918 272.276 296.838 271.995C297.758 271.705 298.856 271.481 300.132 271.324C301.101 271.208 301.967 271.096 302.729 270.988C303.492 270.872 304.088 270.694 304.519 270.453C304.958 270.213 305.178 269.849 305.178 269.36V268.564C305.178 267.172 304.739 266.066 303.861 265.246C302.982 264.425 301.772 264.015 300.231 264.015C298.864 264.015 297.712 264.318 296.776 264.923C295.848 265.519 295.198 266.29 294.825 267.234L293.395 266.7C293.76 265.788 294.286 265.03 294.974 264.425C295.67 263.821 296.465 263.369 297.36 263.071C298.263 262.772 299.208 262.623 300.194 262.623C301.047 262.623 301.859 262.743 302.63 262.984C303.409 263.224 304.101 263.589 304.706 264.077C305.319 264.566 305.804 265.192 306.16 265.954C306.516 266.708 306.694 267.611 306.694 268.664V282H305.178V278.557H305.066C304.735 279.27 304.279 279.92 303.699 280.509C303.127 281.089 302.435 281.553 301.623 281.901C300.82 282.24 299.912 282.41 298.901 282.41ZM299.051 281.006C300.244 281.006 301.3 280.716 302.22 280.136C303.148 279.547 303.873 278.744 304.395 277.724C304.917 276.705 305.178 275.549 305.178 274.257V271.448C304.987 271.614 304.71 271.763 304.345 271.895C303.989 272.02 303.583 272.131 303.127 272.231C302.68 272.322 302.207 272.405 301.71 272.479C301.221 272.546 300.745 272.608 300.281 272.666C298.889 272.832 297.754 273.088 296.875 273.436C296.005 273.776 295.367 274.224 294.961 274.779C294.564 275.334 294.365 276.005 294.365 276.792C294.365 278.093 294.812 279.121 295.707 279.875C296.602 280.629 297.716 281.006 299.051 281.006ZM330.104 262.909V264.264H321.64V262.909H330.104ZM324.424 282V259.939C324.424 258.977 324.644 258.157 325.083 257.478C325.522 256.798 326.098 256.28 326.811 255.924C327.532 255.568 328.306 255.39 329.135 255.39C329.574 255.39 329.947 255.427 330.253 255.501C330.568 255.568 330.842 255.646 331.074 255.738L330.626 257.08C330.436 257.014 330.229 256.956 330.005 256.906C329.789 256.856 329.533 256.831 329.234 256.831C328.273 256.831 327.482 257.125 326.86 257.714C326.239 258.302 325.928 259.122 325.928 260.175L325.916 282H324.424ZM341.483 282.398C339.76 282.398 338.26 281.971 336.984 281.118C335.708 280.264 334.722 279.096 334.026 277.613C333.33 276.129 332.982 274.439 332.982 272.542C332.982 270.636 333.33 268.937 334.026 267.446C334.73 265.954 335.695 264.778 336.922 263.916C338.148 263.054 339.548 262.623 341.123 262.623C342.191 262.623 343.202 262.839 344.155 263.27C345.116 263.692 345.962 264.305 346.691 265.109C347.428 265.913 348.004 266.882 348.418 268.017C348.841 269.153 349.052 270.429 349.052 271.846V272.79H333.939V271.411H347.536C347.536 270.027 347.254 268.78 346.691 267.669C346.127 266.559 345.361 265.677 344.391 265.022C343.422 264.367 342.332 264.04 341.123 264.04C339.855 264.04 338.724 264.396 337.729 265.109C336.743 265.813 335.96 266.766 335.38 267.968C334.809 269.169 334.51 270.511 334.486 271.995V272.616C334.486 274.207 334.763 275.636 335.318 276.904C335.882 278.164 336.685 279.162 337.729 279.9C338.774 280.629 340.025 280.993 341.483 280.993C342.527 280.993 343.418 280.819 344.155 280.471C344.901 280.115 345.51 279.684 345.982 279.179C346.455 278.673 346.811 278.184 347.051 277.712L348.431 278.271C348.141 278.909 347.689 279.547 347.076 280.185C346.471 280.815 345.701 281.341 344.764 281.764C343.836 282.186 342.743 282.398 341.483 282.398ZM355.789 256.545V282H354.272V256.545H355.789ZM362.14 282V262.909H363.644V282H362.14ZM362.898 259.528C362.567 259.528 362.277 259.412 362.028 259.18C361.788 258.948 361.668 258.667 361.668 258.335C361.668 258.004 361.788 257.722 362.028 257.49C362.268 257.258 362.558 257.142 362.898 257.142C363.23 257.142 363.515 257.258 363.756 257.49C364.004 257.722 364.129 258.004 364.129 258.335C364.129 258.667 364.008 258.948 363.768 259.18C363.528 259.412 363.238 259.528 362.898 259.528ZM377.154 282.398C375.53 282.398 374.101 281.971 372.866 281.118C371.632 280.256 370.666 279.079 369.97 277.588C369.283 276.096 368.939 274.406 368.939 272.517C368.939 270.627 369.287 268.937 369.983 267.446C370.679 265.954 371.644 264.778 372.879 263.916C374.113 263.054 375.534 262.623 377.142 262.623C378.352 262.623 379.454 262.872 380.448 263.369C381.45 263.866 382.279 264.558 382.934 265.445C383.597 266.331 384.019 267.359 384.201 268.527H382.66C382.412 267.234 381.79 266.165 380.796 265.32C379.81 264.467 378.596 264.04 377.154 264.04C375.862 264.04 374.71 264.405 373.699 265.134C372.688 265.855 371.893 266.853 371.313 268.129C370.733 269.397 370.443 270.851 370.443 272.492C370.443 274.108 370.724 275.558 371.288 276.842C371.851 278.118 372.638 279.129 373.649 279.875C374.66 280.62 375.828 280.993 377.154 280.993C378.091 280.993 378.944 280.807 379.715 280.434C380.493 280.061 381.144 279.531 381.666 278.843C382.188 278.155 382.532 277.352 382.698 276.432H384.239C384.056 277.608 383.642 278.644 382.996 279.539C382.35 280.434 381.525 281.134 380.522 281.64C379.52 282.145 378.397 282.398 377.154 282.398ZM389.484 282V262.909H390.988V282H389.484ZM390.242 259.528C389.91 259.528 389.62 259.412 389.372 259.18C389.132 258.948 389.011 258.667 389.011 258.335C389.011 258.004 389.132 257.722 389.372 257.49C389.612 257.258 389.902 257.142 390.242 257.142C390.573 257.142 390.859 257.258 391.1 257.49C391.348 257.722 391.472 258.004 391.472 258.335C391.472 258.667 391.352 258.948 391.112 259.18C390.872 259.412 390.582 259.528 390.242 259.528ZM403.889 282.398C402.356 282.398 401.018 281.975 399.874 281.13C398.731 280.285 397.844 279.121 397.215 277.637C396.593 276.146 396.282 274.435 396.282 272.504C396.282 270.59 396.597 268.892 397.227 267.408C397.865 265.917 398.756 264.749 399.899 263.903C401.043 263.05 402.377 262.623 403.901 262.623C404.995 262.623 405.944 262.835 406.748 263.257C407.56 263.671 408.239 264.222 408.786 264.91C409.341 265.598 409.764 266.352 410.054 267.172H410.203V256.545H411.707V282H410.24V277.836H410.054C409.747 278.657 409.32 279.415 408.774 280.111C408.227 280.799 407.547 281.354 406.735 281.776C405.923 282.191 404.974 282.398 403.889 282.398ZM404.026 280.993C405.318 280.993 406.424 280.625 407.344 279.887C408.272 279.141 408.981 278.13 409.47 276.854C409.967 275.57 410.215 274.116 410.215 272.492C410.215 270.868 409.967 269.422 409.47 268.154C408.981 266.878 408.272 265.875 407.344 265.146C406.424 264.409 405.318 264.04 404.026 264.04C402.716 264.04 401.594 264.413 400.657 265.159C399.729 265.896 399.017 266.903 398.52 268.179C398.031 269.455 397.786 270.893 397.786 272.492C397.786 274.091 398.031 275.533 398.52 276.817C399.017 278.101 399.729 279.121 400.657 279.875C401.594 280.62 402.716 280.993 404.026 280.993ZM423.589 282.41C422.487 282.41 421.476 282.191 420.556 281.751C419.645 281.312 418.911 280.67 418.356 279.825C417.809 278.98 417.536 277.952 417.536 276.743C417.536 275.947 417.677 275.247 417.959 274.642C418.24 274.037 418.675 273.515 419.264 273.076C419.852 272.637 420.606 272.276 421.526 271.995C422.445 271.705 423.543 271.481 424.819 271.324C425.789 271.208 426.655 271.096 427.417 270.988C428.179 270.872 428.776 270.694 429.207 270.453C429.646 270.213 429.866 269.849 429.866 269.36V268.564C429.866 267.172 429.426 266.066 428.548 265.246C427.67 264.425 426.46 264.015 424.919 264.015C423.552 264.015 422.4 264.318 421.464 264.923C420.535 265.519 419.885 266.29 419.512 267.234L418.083 266.7C418.447 265.788 418.974 265.03 419.661 264.425C420.357 263.821 421.153 263.369 422.048 263.071C422.951 262.772 423.895 262.623 424.881 262.623C425.735 262.623 426.547 262.743 427.318 262.984C428.096 263.224 428.788 263.589 429.393 264.077C430.006 264.566 430.491 265.192 430.847 265.954C431.204 266.708 431.382 267.611 431.382 268.664V282H429.866V278.557H429.754C429.422 279.27 428.966 279.92 428.386 280.509C427.815 281.089 427.123 281.553 426.311 281.901C425.507 282.24 424.6 282.41 423.589 282.41ZM423.738 281.006C424.931 281.006 425.988 280.716 426.907 280.136C427.835 279.547 428.56 278.744 429.082 277.724C429.604 276.705 429.866 275.549 429.866 274.257V271.448C429.675 271.614 429.397 271.763 429.033 271.895C428.676 272.02 428.27 272.131 427.815 272.231C427.367 272.322 426.895 272.405 426.398 272.479C425.909 272.546 425.432 272.608 424.968 272.666C423.576 272.832 422.441 273.088 421.563 273.436C420.693 273.776 420.055 274.224 419.649 274.779C419.251 275.334 419.052 276.005 419.052 276.792C419.052 278.093 419.5 279.121 420.395 279.875C421.29 280.629 422.404 281.006 423.738 281.006ZM444.289 282.398C442.756 282.398 441.418 281.975 440.275 281.13C439.131 280.285 438.245 279.121 437.615 277.637C436.994 276.146 436.683 274.435 436.683 272.504C436.683 270.59 436.998 268.892 437.627 267.408C438.265 265.917 439.156 264.749 440.3 263.903C441.443 263.05 442.777 262.623 444.302 262.623C445.396 262.623 446.344 262.835 447.148 263.257C447.96 263.671 448.639 264.222 449.186 264.91C449.742 265.598 450.164 266.352 450.454 267.172H450.603V256.545H452.107V282H450.641V277.836H450.454C450.148 278.657 449.721 279.415 449.174 280.111C448.627 280.799 447.948 281.354 447.136 281.776C446.324 282.191 445.375 282.398 444.289 282.398ZM444.426 280.993C445.719 280.993 446.825 280.625 447.745 279.887C448.673 279.141 449.381 278.13 449.87 276.854C450.367 275.57 450.616 274.116 450.616 272.492C450.616 270.868 450.367 269.422 449.87 268.154C449.381 266.878 448.673 265.875 447.745 265.146C446.825 264.409 445.719 264.04 444.426 264.04C443.117 264.04 441.994 264.413 441.058 265.159C440.13 265.896 439.417 266.903 438.92 268.179C438.431 269.455 438.187 270.893 438.187 272.492C438.187 274.091 438.431 275.533 438.92 276.817C439.417 278.101 440.13 279.121 441.058 279.875C441.994 280.62 443.117 280.993 444.426 280.993ZM461.292 256.545L461.205 274.58H459.714L459.627 256.545H461.292ZM460.459 282.162C460.087 282.162 459.768 282.033 459.502 281.776C459.246 281.511 459.117 281.192 459.117 280.819C459.117 280.455 459.25 280.14 459.515 279.875C459.78 279.609 460.095 279.477 460.459 279.477C460.824 279.477 461.139 279.609 461.404 279.875C461.669 280.14 461.802 280.455 461.802 280.819C461.802 281.068 461.74 281.296 461.615 281.503C461.499 281.702 461.338 281.863 461.131 281.988C460.932 282.104 460.708 282.162 460.459 282.162Z" fill="black"/>
<path d="M41.3513 120.218L26.9799 94.0038H15.5735V120.218H0V47.0738H34.2457C49.4987 47.0738 58.8214 57.0578 58.8214 70.6456C58.8214 83.5927 50.7008 90.4801 42.7938 92.3488L59.2488 120.192H41.3513V120.218ZM31.9217 60.4748H15.5735V80.6563H31.9217C38.1725 80.6563 42.9006 76.7054 42.9006 70.5655C42.8739 64.4256 38.1725 60.4748 31.9217 60.4748Z" fill="black"/>
<path d="M105.195 45.8725C127.366 45.8725 143.474 61.6493 143.474 83.6995C143.474 105.75 127.34 121.526 105.195 121.526C83.13 121.526 67.0222 105.75 67.0222 83.6995C67.0222 61.676 83.1567 45.8725 105.195 45.8725ZM105.195 59.7006C91.7047 59.7006 83.0231 70.0049 83.0231 83.7262C83.0231 97.314 91.678 107.752 105.195 107.752C118.685 107.752 127.473 97.3407 127.473 83.7262C127.473 70.0049 118.711 59.7006 105.195 59.7006Z" fill="black"/>
<path d="M154.48 120.218V47.0738H192.999C206.944 47.0738 214.076 55.9633 214.076 65.707C214.076 74.9168 208.359 81.0567 201.467 82.4715C209.268 83.6728 215.518 91.2542 215.518 100.464C215.518 111.436 208.172 120.192 194.228 120.192H154.48V120.218ZM170.053 76.4651H189.58C194.843 76.4651 198.128 73.0749 198.128 68.3498C198.128 63.865 194.843 60.3413 189.58 60.3413H170.053V76.4651ZM170.053 106.951H190.141C196.071 106.951 199.571 103.561 199.571 98.3018C199.571 93.6835 196.285 89.7593 190.141 89.7593H170.053V106.951Z" fill="black"/>
<path d="M227.218 134.794V47.1005H242.792V134.821H227.218V134.794Z" fill="#2DCC8A"/>
<path d="M307.731 120.218L272.844 71.0994V120.218H257.27V47.0738H273.298L307.196 94.431V47.1005H322.77V120.245H307.731V120.218Z" fill="black"/>
<path d="M113.075 201.692V149.049L92.4527 201.692H85.6409L65.0187 149.049V201.692H49.4452V128.547H71.2695L89.0335 174.169L106.797 128.547H128.729V201.692H113.075Z" fill="black"/>
<path d="M177.934 127.346C200.105 127.346 216.213 143.123 216.213 165.173C216.213 187.223 200.078 203 177.934 203C155.869 203 139.761 187.223 139.761 165.173C139.761 143.15 155.869 127.346 177.934 127.346ZM177.934 141.174C164.444 141.174 155.762 151.478 155.762 165.2C155.762 178.788 164.417 189.225 177.934 189.225C191.423 189.225 200.212 178.814 200.212 165.2C200.212 151.478 191.423 141.174 177.934 141.174Z" fill="black"/>
<path d="M277.652 201.692L242.765 152.573V201.692H227.192V128.547H242.765L277.118 175.905V128.547H292.691V201.692H277.652Z" fill="#2DCC8A"/>
<path d="M307.17 201.692V128.547H358.966V141.922H322.77V157.832H358.218V171.206H322.77V188.211H358.966V201.692H307.17Z" fill="black"/>
<path d="M391.555 201.692V171.767L363.346 128.574H381.11L399.329 157.965L417.333 128.574H435.097L407.129 171.767V201.692H391.555Z" fill="black"/>
<path d="M368.421 78.622L368.343 78.8939L368.536 79.1012C369.77 80.43 371.784 81.1979 373.628 80.7535C375.464 80.3111 376.995 78.6674 377.16 76.7467C377.324 74.8285 376.033 72.8676 374.142 72.3674L374.142 72.3674L374.139 72.3667C372.252 71.8787 370.058 73.0231 369.504 74.9221L369.504 74.9233C369.325 75.54 369.145 76.1546 368.963 76.7704L368.963 76.771C368.782 77.3863 368.601 78.0028 368.421 78.622Z" fill="black" stroke="black"/>
<path d="M345.907 83.4567C345.376 83.7775 345.429 84.3161 345.551 84.6311C345.449 84.8748 345.478 85.1486 345.525 85.3022C345.546 85.3745 345.545 85.448 345.566 85.5203C345.561 85.5481 345.555 85.576 345.543 85.5949C345.422 85.6194 345.312 85.6618 345.218 85.7308C344.772 85.4049 344.136 85.2905 343.834 86.141C343.771 86.3001 343.725 86.4493 343.668 86.6174C343.64 86.6831 343.611 86.7487 343.572 86.8333C343.251 87.804 342.92 88.7935 342.599 89.7642C342.422 90.2963 343.105 90.9771 343.715 90.9368C343.714 90.9735 343.714 91.0102 343.719 91.0559C343.698 91.3597 344.366 92.3533 345.057 91.9601C345.389 92.1726 345.824 92.1412 346.177 91.6002C348.233 88.5865 348.463 85.7762 347.215 83.8212C347.07 83.5809 346.571 83.0558 345.907 83.4567Z" fill="black"/>
<path d="M402.253 46.7887C401.645 46.3395 402.93 45.4422 402.102 45.2836C401.444 45.1515 400.802 45.0591 400.126 45.0062C398.843 44.9137 397.559 44.8741 396.275 44.8873C393.624 44.9137 390.989 45.059 388.371 45.3233C383.135 45.8517 378.051 47.0011 373.085 48.3883C372.545 48.5337 372.173 49.2999 372.038 49.6566C371.785 50.3172 371.734 51.0967 371.852 51.7837C372.004 52.6688 372.579 54.0692 374.014 53.7125C378.727 52.5499 383.659 51.9422 388.573 51.5855C390.989 51.4137 393.421 51.3345 395.853 51.3609C397.137 51.3741 398.457 53.5735 399.715 51.8656C400.289 51.8788 400.836 51.4534 401.41 51.4137C402.356 51.3741 401.493 49.7499 402.253 49.3272C403.706 48.5345 403.588 47.7663 402.253 46.7887Z" fill="black"/>
<path d="M423.83 16.9616L407.965 49.3272L405.962 49.4118C405.962 49.4118 419.896 20.9233 419.713 20.7302C419.694 20.7205 413.042 18.8655 413.042 18.8655C413.042 18.8655 404.946 44.638 402.888 50.5964C402.502 50.2295 382.943 51.9419 377.996 53.487C376.498 53.9506 363.075 57.8038 357.2 61.0679C350.213 64.95 352.715 66.4812 352.753 66.4619C352.879 66.3846 366.042 61.7922 381.793 61.7922C382.103 61.7922 420.09 62.3523 426.835 59.3682C428.381 58.6826 430.275 54.8004 430.7 53.6995C432.981 47.8376 428.951 43.0477 428.951 43.0477L437.774 23.7625" fill="#2DCC8A"/>
<path d="M420.747 4.3903C418.572 3.0383 407.759 13.439 406.435 14.3564C405.324 15.129 379.977 32.8015 374.014 34.6267C373.869 34.675 360.194 47.4354 359.099 49.3272C356.78 53.8081 342.993 70.802 352.753 63.2888C365.296 53.622 403.14 44.6025 403.14 44.6025C403.14 44.6025 411.789 16.4037 411.953 15.9885C411.972 15.9692 420.756 18.1324 420.785 18.1324C420.872 18.2289 422.815 5.67469 420.747 4.3903Z" fill="#2DCC8A"/>
<path d="M372.67 62.8846L399.767 61.8996C400.975 61.832 402.183 61.7837 403.391 61.7644L419.471 61.185C419.471 61.185 425.143 60.876 428.342 57.525C429.25 56.5689 430.758 53.9422 431.038 50.2145C431.192 48.1189 430.999 45.4246 430.999 45.4246C430.999 45.4246 430.816 43.387 430.535 43.2904C430.323 43.2131 427.095 46.6221 425.877 47.5975C422.756 50.089 405.198 51.4796 405.198 51.4796C405.198 51.4796 391.601 51.3637 376.816 53.6525C372.004 54.3961 364.891 56.6655 362.302 58.0561C353.421 62.8074 336.645 71.0739 362.572 64.4587C367.684 63.155 372.67 62.8846 372.67 62.8846Z" stroke="black" stroke-width="5" stroke-miterlimit="10"/>
<path d="M400.646 46.0232C400.646 46.0232 401.729 45.8591 401.903 45.6949C402.221 45.4052 410.88 17.5541 410.88 17.5541C410.88 17.5541 411.141 16.5305 412.407 16.5305C414.185 16.5305 419.886 18.2977 419.886 18.2977C419.886 18.2977 420.418 18.4812 420.746 18.0853C420.785 18.037 421.316 16.8685 421.297 16.6657" stroke="#2DCC8A" stroke-width="5" stroke-miterlimit="10"/>
<path d="M403.681 45.5984L401.052 45.9557C401.052 45.9557 377.937 49.5481 365.858 54.7726C356.368 58.8769 349.749 66.8633 349.159 66.6219C346.888 65.6852 359.393 44.5651 375.338 34.2996C386.122 27.3658 397.902 21.1273 406.203 13.9231C412.523 8.43786 420.157 2.72086 420.572 3.01057C422.196 4.14045 421.287 19.727 421.287 19.727" stroke="black" stroke-width="5" stroke-miterlimit="10"/>
<path d="M401.748 51.6823L412.242 17.9018L421.094 20.007" stroke="black" stroke-width="5" stroke-miterlimit="10"/>
<path d="M406.222 51.1223L423.22 15.8835L439.213 23.4161L428.989 45.2604" stroke="black" stroke-width="5" stroke-miterlimit="10"/>
<path d="M430.999 46.1392C438.401 37.3995 447.514 30.1084 457.661 24.7874C459.197 23.9858 461.284 24.4494 462.328 25.84C470.329 36.4531 471.74 51.6341 465.836 63.551C459.932 75.4582 454.797 80.9227 441.5 81C437.982 81.0193 431.192 77.0152 430.999 73.5" stroke="black" stroke-width="5" stroke-miterlimit="10"/>
<path d="M456.511 25.4344C454.53 27.3175 452.945 29.3069 451.225 31.5087C449.708 33.5077 448.538 35.3619 447.301 37.4961C443.726 43.8988 439.658 50.8229 437.319 57.6408C434.845 64.5939 428.854 70.0212 421.732 71.8174" stroke="black" stroke-width="5" stroke-miterlimit="10"/>
<path d="M350.565 101.885C367.541 113.107 383.16 110.907 383.94 110.975C386.28 111.179 411.99 108.039 423.102 85.1779C425.259 78.1229 425.266 69.2001 425.266 69.2098" stroke="black" stroke-width="5" stroke-miterlimit="10"/>
<path d="M357.045 66.3129L356.233 68.534C353.208 75.6996 347.884 81.8705 341.235 85.9264C341.255 89.5672 342.965 93.1693 345.767 95.4966C348.57 97.824 352.426 98.838 356.02 98.2006" stroke="black" stroke-width="5" stroke-miterlimit="10"/>
</svg>
