<svg width="894" height="120" viewBox="0 0 894 120" fill="none" xmlns="http://www.w3.org/2000/svg">
<rect x="2" y="2" width="890" height="116" rx="8" stroke="#2DCC8A" stroke-width="4"/>
<path d="M318.196 75V45.9091H328.565C330.819 45.9091 332.689 46.2973 334.176 47.0739C335.672 47.8504 336.79 48.9252 337.528 50.2983C338.267 51.6619 338.636 53.2386 338.636 55.0284C338.636 56.8087 338.262 58.3759 337.514 59.7301C336.776 61.0748 335.658 62.1212 334.162 62.8693C332.675 63.6174 330.805 63.9915 328.551 63.9915H320.696V60.2131H328.153C329.574 60.2131 330.729 60.0095 331.619 59.6023C332.519 59.1951 333.177 58.6032 333.594 57.8267C334.01 57.0502 334.219 56.1174 334.219 55.0284C334.219 53.9299 334.006 52.9782 333.58 52.1733C333.163 51.3684 332.505 50.7528 331.605 50.3267C330.715 49.8911 329.545 49.6733 328.097 49.6733H322.585V75H318.196ZM332.557 61.875L339.744 75H334.744L327.699 61.875H332.557ZM352.766 75.4403C350.617 75.4403 348.765 74.9811 347.212 74.0625C345.669 73.1345 344.476 71.8324 343.633 70.1562C342.799 68.4706 342.383 66.4962 342.383 64.233C342.383 61.9981 342.799 60.0284 343.633 58.3239C344.476 56.6193 345.65 55.2888 347.156 54.3324C348.671 53.3759 350.442 52.8977 352.468 52.8977C353.699 52.8977 354.892 53.1013 356.048 53.5085C357.203 53.9157 358.24 54.5549 359.158 55.4261C360.077 56.2973 360.801 57.429 361.332 58.821C361.862 60.2036 362.127 61.8845 362.127 63.8636V65.3693H344.783V62.1875H357.965C357.965 61.0701 357.738 60.0805 357.283 59.2188C356.829 58.3475 356.19 57.661 355.366 57.1591C354.551 56.6572 353.595 56.4062 352.496 56.4062C351.303 56.4062 350.262 56.6998 349.371 57.2869C348.491 57.8646 347.809 58.6222 347.326 59.5597C346.853 60.4877 346.616 61.4962 346.616 62.5852V65.071C346.616 66.5294 346.871 67.7699 347.383 68.7926C347.904 69.8153 348.628 70.5966 349.556 71.1364C350.484 71.6667 351.568 71.9318 352.809 71.9318C353.614 71.9318 354.348 71.8182 355.011 71.5909C355.674 71.3542 356.246 71.0038 356.729 70.5398C357.212 70.0758 357.582 69.5028 357.837 68.821L361.857 69.5455C361.535 70.7292 360.958 71.7661 360.124 72.6562C359.3 73.5369 358.263 74.2235 357.013 74.7159C355.773 75.1989 354.357 75.4403 352.766 75.4403ZM377.024 53.1818V56.5909H365.107V53.1818H377.024ZM368.303 47.9545H372.55V68.5938C372.55 69.4176 372.673 70.0379 372.919 70.4545C373.165 70.8617 373.482 71.1411 373.871 71.2926C374.268 71.4347 374.699 71.5057 375.163 71.5057C375.504 71.5057 375.803 71.482 376.058 71.4347C376.314 71.3873 376.513 71.3494 376.655 71.321L377.422 74.8295C377.176 74.9242 376.825 75.0189 376.371 75.1136C375.916 75.2178 375.348 75.2746 374.666 75.2841C373.549 75.303 372.507 75.1042 371.541 74.6875C370.575 74.2708 369.794 73.6269 369.197 72.7557C368.601 71.8845 368.303 70.7907 368.303 69.4744V47.9545ZM381.722 75V53.1818H385.969V75H381.722ZM383.867 49.8153C383.129 49.8153 382.494 49.5691 381.964 49.0767C381.443 48.5748 381.183 47.9782 381.183 47.2869C381.183 46.5862 381.443 45.9896 381.964 45.4972C382.494 44.9953 383.129 44.7443 383.867 44.7443C384.606 44.7443 385.236 44.9953 385.756 45.4972C386.287 45.9896 386.552 46.5862 386.552 47.2869C386.552 47.9782 386.287 48.5748 385.756 49.0767C385.236 49.5691 384.606 49.8153 383.867 49.8153ZM391.683 75V53.1818H395.788V56.6477H396.016C396.413 55.4735 397.114 54.5502 398.118 53.8778C399.131 53.196 400.277 52.8551 401.555 52.8551C401.821 52.8551 402.133 52.8646 402.493 52.8835C402.862 52.9025 403.151 52.9261 403.359 52.9545V57.017C403.189 56.9697 402.886 56.9176 402.45 56.8608C402.015 56.7945 401.579 56.7614 401.143 56.7614C400.14 56.7614 399.245 56.9744 398.459 57.4006C397.682 57.8172 397.067 58.3996 396.612 59.1477C396.158 59.8864 395.93 60.7292 395.93 61.6761V75H391.683ZM413.189 75.483C411.806 75.483 410.556 75.2273 409.439 74.7159C408.321 74.1951 407.436 73.4422 406.783 72.4574C406.139 71.4725 405.817 70.2652 405.817 68.8352C405.817 67.6042 406.054 66.5909 406.527 65.7955C407 65 407.64 64.3703 408.445 63.9062C409.25 63.4422 410.149 63.0919 411.143 62.8551C412.138 62.6184 413.151 62.4384 414.183 62.3153C415.49 62.1638 416.551 62.0407 417.365 61.946C418.179 61.8419 418.771 61.6761 419.141 61.4489C419.51 61.2216 419.695 60.8523 419.695 60.3409V60.2415C419.695 59.0009 419.344 58.0398 418.643 57.358C417.952 56.6761 416.92 56.3352 415.547 56.3352C414.117 56.3352 412.99 56.6525 412.166 57.2869C411.352 57.9119 410.788 58.608 410.476 59.375L406.484 58.4659C406.958 57.1402 407.649 56.0701 408.558 55.2557C409.477 54.4318 410.533 53.8352 411.726 53.4659C412.919 53.0871 414.174 52.8977 415.49 52.8977C416.361 52.8977 417.285 53.0019 418.26 53.2102C419.245 53.4091 420.163 53.7784 421.016 54.3182C421.877 54.858 422.583 55.6297 423.132 56.6335C423.681 57.6278 423.956 58.9205 423.956 60.5114V75H419.808V72.017H419.638C419.363 72.5663 418.951 73.1061 418.402 73.6364C417.853 74.1667 417.147 74.607 416.286 74.9574C415.424 75.3078 414.392 75.483 413.189 75.483ZM414.112 72.0739C415.286 72.0739 416.29 71.8419 417.124 71.3778C417.966 70.9138 418.606 70.3078 419.041 69.5597C419.486 68.8021 419.709 67.9924 419.709 67.1307V64.3182C419.557 64.4697 419.264 64.6117 418.828 64.7443C418.402 64.8674 417.914 64.9763 417.365 65.071C416.816 65.1562 416.281 65.2367 415.76 65.3125C415.239 65.3788 414.804 65.4356 414.453 65.483C413.629 65.5871 412.876 65.7623 412.195 66.0085C411.522 66.2547 410.982 66.6098 410.575 67.0739C410.178 67.5284 409.979 68.1345 409.979 68.892C409.979 69.9432 410.367 70.7386 411.143 71.2784C411.92 71.8087 412.91 72.0739 414.112 72.0739ZM429.613 75V53.1818H433.718V56.6477H433.945C434.343 55.4735 435.044 54.5502 436.048 53.8778C437.061 53.196 438.207 52.8551 439.485 52.8551C439.75 52.8551 440.063 52.8646 440.423 52.8835C440.792 52.9025 441.081 52.9261 441.289 52.9545V57.017C441.119 56.9697 440.816 56.9176 440.38 56.8608C439.944 56.7945 439.509 56.7614 439.073 56.7614C438.069 56.7614 437.174 56.9744 436.388 57.4006C435.612 57.8172 434.996 58.3996 434.542 59.1477C434.087 59.8864 433.86 60.7292 433.86 61.6761V75H429.613ZM465.309 75H455.891V45.9091H465.607C468.458 45.9091 470.906 46.4915 472.951 47.6562C474.996 48.8116 476.564 50.4735 477.653 52.642C478.751 54.8011 479.3 57.3911 479.3 60.4119C479.3 63.4422 478.746 66.0464 477.638 68.2244C476.54 70.4025 474.949 72.0786 472.866 73.2528C470.782 74.4176 468.263 75 465.309 75ZM460.281 71.1648H465.067C467.283 71.1648 469.125 70.7481 470.593 69.9148C472.061 69.072 473.159 67.8551 473.888 66.2642C474.618 64.6638 474.982 62.7131 474.982 60.4119C474.982 58.1297 474.618 56.1932 473.888 54.6023C473.169 53.0114 472.094 51.804 470.664 50.9801C469.234 50.1562 467.459 49.7443 465.337 49.7443H460.281V71.1648ZM484.418 75V53.1818H488.665V75H484.418ZM486.562 49.8153C485.824 49.8153 485.189 49.5691 484.659 49.0767C484.138 48.5748 483.878 47.9782 483.878 47.2869C483.878 46.5862 484.138 45.9896 484.659 45.4972C485.189 44.9953 485.824 44.7443 486.562 44.7443C487.301 44.7443 487.931 44.9953 488.452 45.4972C488.982 45.9896 489.247 46.5862 489.247 47.2869C489.247 47.9782 488.982 48.5748 488.452 49.0767C487.931 49.5691 487.301 49.8153 486.562 49.8153ZM498.626 62.0455V75H494.379V53.1818H498.455V56.733H498.725C499.227 55.5777 500.013 54.6496 501.083 53.9489C502.163 53.2481 503.522 52.8977 505.16 52.8977C506.647 52.8977 507.949 53.2102 509.066 53.8352C510.183 54.4508 511.05 55.3693 511.665 56.5909C512.281 57.8125 512.589 59.3229 512.589 61.1222V75H508.342V61.6335C508.342 60.0521 507.93 58.8163 507.106 57.9261C506.282 57.0265 505.15 56.5767 503.711 56.5767C502.726 56.5767 501.85 56.7898 501.083 57.2159C500.326 57.642 499.724 58.267 499.279 59.0909C498.844 59.9053 498.626 60.8902 498.626 62.0455ZM527.688 75.4403C525.539 75.4403 523.687 74.9811 522.134 74.0625C520.591 73.1345 519.397 71.8324 518.555 70.1562C517.721 68.4706 517.305 66.4962 517.305 64.233C517.305 61.9981 517.721 60.0284 518.555 58.3239C519.397 56.6193 520.572 55.2888 522.077 54.3324C523.593 53.3759 525.363 52.8977 527.39 52.8977C528.621 52.8977 529.814 53.1013 530.969 53.5085C532.125 53.9157 533.162 54.5549 534.08 55.4261C534.999 56.2973 535.723 57.429 536.254 58.821C536.784 60.2036 537.049 61.8845 537.049 63.8636V65.3693H519.705V62.1875H532.887C532.887 61.0701 532.66 60.0805 532.205 59.2188C531.751 58.3475 531.112 57.661 530.288 57.1591C529.473 56.6572 528.517 56.4062 527.418 56.4062C526.225 56.4062 525.183 56.6998 524.293 57.2869C523.413 57.8646 522.731 58.6222 522.248 59.5597C521.774 60.4877 521.538 61.4962 521.538 62.5852V65.071C521.538 66.5294 521.793 67.7699 522.305 68.7926C522.826 69.8153 523.55 70.5966 524.478 71.1364C525.406 71.6667 526.49 71.9318 527.731 71.9318C528.536 71.9318 529.27 71.8182 529.933 71.5909C530.595 71.3542 531.168 71.0038 531.651 70.5398C532.134 70.0758 532.504 69.5028 532.759 68.821L536.779 69.5455C536.457 70.7292 535.879 71.7661 535.046 72.6562C534.222 73.5369 533.185 74.2235 531.935 74.7159C530.695 75.1989 529.279 75.4403 527.688 75.4403ZM541.761 75V53.1818H545.866V56.6477H546.094C546.491 55.4735 547.192 54.5502 548.196 53.8778C549.209 53.196 550.355 52.8551 551.634 52.8551C551.899 52.8551 552.211 52.8646 552.571 52.8835C552.94 52.9025 553.229 52.9261 553.438 52.9545V57.017C553.267 56.9697 552.964 56.9176 552.528 56.8608C552.093 56.7945 551.657 56.7614 551.222 56.7614C550.218 56.7614 549.323 56.9744 548.537 57.4006C547.76 57.8172 547.145 58.3996 546.69 59.1477C546.236 59.8864 546.009 60.7292 546.009 61.6761V75H541.761ZM565.522 75.4403C563.477 75.4403 561.692 74.9716 560.167 74.0341C558.642 73.0966 557.459 71.785 556.616 70.0994C555.773 68.4138 555.352 66.4441 555.352 64.1903C555.352 61.9271 555.773 59.9479 556.616 58.2528C557.459 56.5578 558.642 55.2415 560.167 54.304C561.692 53.3665 563.477 52.8977 565.522 52.8977C567.567 52.8977 569.353 53.3665 570.877 54.304C572.402 55.2415 573.585 56.5578 574.428 58.2528C575.271 59.9479 575.692 61.9271 575.692 64.1903C575.692 66.4441 575.271 68.4138 574.428 70.0994C573.585 71.785 572.402 73.0966 570.877 74.0341C569.353 74.9716 567.567 75.4403 565.522 75.4403ZM565.536 71.875C566.862 71.875 567.96 71.5246 568.832 70.8239C569.703 70.1231 570.347 69.1903 570.763 68.0256C571.19 66.8608 571.403 65.5777 571.403 64.1761C571.403 62.7841 571.19 61.5057 570.763 60.3409C570.347 59.1667 569.703 58.2244 568.832 57.5142C567.96 56.804 566.862 56.4489 565.536 56.4489C564.201 56.4489 563.093 56.804 562.212 57.5142C561.341 58.2244 560.692 59.1667 560.266 60.3409C559.85 61.5057 559.641 62.7841 559.641 64.1761C559.641 65.5777 559.85 66.8608 560.266 68.0256C560.692 69.1903 561.341 70.1231 562.212 70.8239C563.093 71.5246 564.201 71.875 565.536 71.875Z" fill="#2DCC8A"/>
</svg>
